<?xml version="1.0" encoding="UTF-8" standalone="no"?>
<svg
   xmlns:dc="http://purl.org/dc/elements/1.1/"
   xmlns:cc="http://creativecommons.org/ns#"
   xmlns:rdf="http://www.w3.org/1999/02/22-rdf-syntax-ns#"
   xmlns:svg="http://www.w3.org/2000/svg"
   xmlns="http://www.w3.org/2000/svg"
   xmlns:sodipodi="http://sodipodi.sourceforge.net/DTD/sodipodi-0.dtd"
   xmlns:inkscape="http://www.inkscape.org/namespaces/inkscape"
   id="Layer_1"
   data-name="Layer 1"
   viewBox="0 0 275.91 44.8"
   version="1.1"
   sodipodi:docname="10yearlogo.svg"
   inkscape:version="0.92.2 (5c3e80d, 2017-08-06)">
  <metadata
     id="metadata4490">
    <rdf:RDF>
      <cc:Work
         rdf:about="">
        <dc:format>image/svg+xml</dc:format>
        <dc:type
           rdf:resource="http://purl.org/dc/dcmitype/StillImage" />
        <dc:title>logo</dc:title>
      </cc:Work>
    </rdf:RDF>
  </metadata>
  <sodipodi:namedview
     pagecolor="#ffffff"
     bordercolor="#666666"
     borderopacity="1"
     objecttolerance="10"
     gridtolerance="10"
     guidetolerance="10"
     inkscape:pageopacity="0"
     inkscape:pageshadow="2"
     inkscape:window-width="2027"
     inkscape:window-height="1419"
     id="namedview4488"
     showgrid="false"
     inkscape:zoom="3.8635786"
     inkscape:cx="8.0816789"
     inkscape:cy="16.103116"
     inkscape:window-x="0"
     inkscape:window-y="0"
     inkscape:window-maximized="0"
     inkscape:current-layer="Layer_1" />
  <defs
     id="defs4381">
    <style
       id="style4376">.cls-1,.cls-4,.cls-5,.cls-6{fill:none;}.cls-2{fill:#231f20;}.cls-3{clip-path:url(#clip-path);}.cls-4{stroke:#70b244;}.cls-4,.cls-5{stroke-width:5px;}.cls-5{stroke:#3a4f8d;}.cls-6{stroke:#3a4e8c;stroke-width:4px;}</style>
    <clipPath
       id="clip-path"
       transform="translate(-8.4 -12.6)">
      <rect
         class="cls-1"
         x="8.4"
         y="12.5"
         width="276.3"
         height="47.1"
         id="rect4378" />
    </clipPath>
  </defs>
  <title
     id="title4383">logo</title>
  <path
     class="cls-2"
     d="M224.3,53.08"
     transform="translate(-8.4 -12.6)"
     id="path4385" />
  <path
     class="cls-2"
     d="M219.6,28.78l2.9-.4c.2.7.8,1,2,1,.9,0,1.4-.2,1.4-.5s-.1-.3-.3-.4a4.91,4.91,0,0,0-1.3-.3c-1.9-.3-3.1-.7-3.5-1.2a2.86,2.86,0,0,1,.5-4.2,5,5,0,0,1,3.1-.9c2.3,0,3.7.8,4.3,2.4l-2.8.5a1.7,1.7,0,0,0-1.6-.8,2,2,0,0,0-.9.2q-.3.15-.3.3,0,.45.9.6a19.53,19.53,0,0,1,3.1.5,3.32,3.32,0,0,1,1.4,1,2.52,2.52,0,0,1,.6,1.7,2.71,2.71,0,0,1-1.3,2.4,5.84,5.84,0,0,1-3.5.9C221.7,31.58,220.2,30.68,219.6,28.78Z"
     transform="translate(-8.4 -12.6)"
     id="path4387" />
  <path
     class="cls-2"
     d="M71.4,19l-3.9,12.5H63.6L59.6,19h4l2,6.8c.1.4.3.8.4,1.2l2.3-8Z"
     transform="translate(-8.4 -12.6)"
     id="path4393" />
  <path
     class="cls-2"
     d="M81.2,31.38H77.7a5.28,5.28,0,0,1-.1-1.3,3.44,3.44,0,0,1-3,1.5,3.74,3.74,0,0,1-2.5-.8,2.93,2.93,0,0,1-.8-1.9,2.71,2.71,0,0,1,1.3-2.4,9.76,9.76,0,0,1,4.7-1.1v-.2c0-.4-.1-.7-.3-.8a1.88,1.88,0,0,0-.8-.2c-.8,0-1.3.3-1.4,1l-3.3-.3C72,23,73.6,22,76.3,22a14.92,14.92,0,0,1,2.1.2,3.48,3.48,0,0,1,1.5.7,2,2,0,0,1,.7,1,8.09,8.09,0,0,1,.2,2v3.7A8,8,0,0,0,81.2,31.38Zm-3.8-4.3c-1.6.2-2.3.7-2.3,1.5,0,.6.3.8.9.8a1.69,1.69,0,0,0,1-.3c.3-.2.4-.7.4-1.5Z"
     transform="translate(-8.4 -12.6)"
     id="path4395" />
  <path
     class="cls-2"
     d="M85.8,19v12.5H82.2V19Z"
     transform="translate(-8.4 -12.6)"
     id="path4397" />
  <path
     class="cls-2"
     d="M90.7,19v12.5H87.1V19Z"
     transform="translate(-8.4 -12.6)"
     id="path4399" />
  <path
     class="cls-2"
     d="M98.1,28.08l3.4.2a3.89,3.89,0,0,1-1.5,2.3,5.4,5.4,0,0,1-3.3,1,5,5,0,0,1-3.7-1.4,4.6,4.6,0,0,1-1.4-3.4,4.83,4.83,0,0,1,1.4-3.5,4.62,4.62,0,0,1,3.7-1.4,4.9,4.9,0,0,1,3.6,1.4,5,5,0,0,1,1.4,3.7v.5H95.5a2.27,2.27,0,0,0,.3,1.3,1.25,1.25,0,0,0,1.1.4A1.12,1.12,0,0,0,98.1,28.08Zm-.2-2.4a1.7,1.7,0,0,0-.4-1.3,1.4,1.4,0,0,0-.9-.3c-.9,0-1.3.5-1.3,1.6Z"
     transform="translate(-8.4 -12.6)"
     id="path4401" />
  <path
     class="cls-2"
     d="M111,22.08l-3.6,10.1a4.07,4.07,0,0,1-1.2,1.8,3.84,3.84,0,0,1-2.4.6,15.26,15.26,0,0,1-1.8-.1v-2.6a6.15,6.15,0,0,0,1.3.1c1,0,1.6-.2,1.6-.7a1.42,1.42,0,0,0-.2-.6l-3.3-8.6h3.9l1.5,5,1.6-5Z"
     transform="translate(-8.4 -12.6)"
     id="path4403" />
  <path
     class="cls-2"
     d="M119.3,26.88v4.5h-3.9V19h5.3a7.75,7.75,0,0,1,3,.5,3.64,3.64,0,0,1,1.6,1.4,3.7,3.7,0,0,1,.6,2.1,3.85,3.85,0,0,1-1.2,2.9,4.86,4.86,0,0,1-3.3,1.1h-2.1Zm0-2.7h1.3c1.1,0,1.7-.4,1.7-1.2s-.5-1.2-1.6-1.2h-1.4Z"
     transform="translate(-8.4 -12.6)"
     id="path4405" />
  <path
     class="cls-2"
     d="M130.2,31.38h-3.5v-9.3h3V24a2.36,2.36,0,0,1,2.4-2.1h.5v3.4a2,2,0,0,0-.7-.1c-1.2,0-1.8.7-1.8,2v4.2Z"
     transform="translate(-8.4 -12.6)"
     id="path4407" />
  <path
     class="cls-2"
     d="M137.8,31.58a5.14,5.14,0,0,1-3.7-1.4,4.94,4.94,0,0,1-1.4-3.4,5,5,0,0,1,1.4-3.5,5.59,5.59,0,0,1,7.4,0,4.76,4.76,0,0,1,1.4,3.4,5,5,0,0,1-1.4,3.5A4.75,4.75,0,0,1,137.8,31.58Zm0-2.2a.92.92,0,0,0,1-.9,11,11,0,0,0,.2-1.8,4.39,4.39,0,0,0-.3-1.9,1,1,0,0,0-1.8,0,4.6,4.6,0,0,0-.3,2,4.54,4.54,0,0,0,.3,2.1A1.05,1.05,0,0,0,137.8,29.38Z"
     transform="translate(-8.4 -12.6)"
     id="path4409" />
  <path
     class="cls-2"
     d="M147.7,24.48v6.9h-3.4v-6.9h-1.4v-2.4h1.4a7.63,7.63,0,0,1,.1-1.7,2.7,2.7,0,0,1,.5-1.1,3.13,3.13,0,0,1,1.1-.8,4.84,4.84,0,0,1,1.8-.3,16.41,16.41,0,0,1,2.3.2v2.4a7.17,7.17,0,0,0-1.3-.1,2.35,2.35,0,0,0-.8.2.89.89,0,0,0-.4.8V22H150v2.4h-2.3Z"
     transform="translate(-8.4 -12.6)"
     id="path4411" />
  <path
     class="cls-2"
     d="M156.6,28.08l3.4.2a3.89,3.89,0,0,1-1.5,2.3,5.4,5.4,0,0,1-3.3,1,5,5,0,0,1-3.7-1.4,4.6,4.6,0,0,1-1.4-3.4,4.83,4.83,0,0,1,1.4-3.5,4.62,4.62,0,0,1,3.7-1.4,4.9,4.9,0,0,1,3.6,1.4,5,5,0,0,1,1.4,3.7v.5H154a2.27,2.27,0,0,0,.3,1.3,1.25,1.25,0,0,0,1.1.4C156,29.18,156.4,28.88,156.6,28.08Zm-.3-2.4a1.7,1.7,0,0,0-.4-1.3,1.4,1.4,0,0,0-.9-.3c-.9,0-1.3.5-1.3,1.6Z"
     transform="translate(-8.4 -12.6)"
     id="path4413" />
  <path
     class="cls-2"
     d="M160,28.78l2.9-.4c.2.7.8,1,2,1,.9,0,1.4-.2,1.4-.5s-.1-.3-.3-.4a4.91,4.91,0,0,0-1.3-.3c-1.9-.3-3.1-.7-3.5-1.2a2.86,2.86,0,0,1,.5-4.2,5,5,0,0,1,3.1-.9c2.3,0,3.7.8,4.3,2.4l-2.8.5a1.7,1.7,0,0,0-1.6-.8,2,2,0,0,0-.9.2q-.3.15-.3.3,0,.45.9.6a19.53,19.53,0,0,1,3.1.5,3.32,3.32,0,0,1,1.4,1,2.52,2.52,0,0,1,.6,1.7,2.71,2.71,0,0,1-1.3,2.4,5.84,5.84,0,0,1-3.5.9C162.1,31.58,160.6,30.68,160,28.78Z"
     transform="translate(-8.4 -12.6)"
     id="path4415" />
  <path
     class="cls-2"
     d="M169.2,28.78l2.9-.4c.2.7.8,1,2,1,.9,0,1.4-.2,1.4-.5s-.1-.3-.3-.4a4.91,4.91,0,0,0-1.3-.3c-1.9-.3-3.1-.7-3.5-1.2a2.86,2.86,0,0,1,.5-4.2,5,5,0,0,1,3.1-.9c2.3,0,3.7.8,4.3,2.4l-2.8.5a1.7,1.7,0,0,0-1.6-.8,2,2,0,0,0-.9.2q-.3.15-.3.3,0,.45.9.6a19.53,19.53,0,0,1,3.1.5,3.32,3.32,0,0,1,1.4,1,2.52,2.52,0,0,1,.6,1.7,2.71,2.71,0,0,1-1.3,2.4,5.84,5.84,0,0,1-3.5.9C171.4,31.58,169.8,30.68,169.2,28.78Z"
     transform="translate(-8.4 -12.6)"
     id="path4417" />
  <path
     class="cls-2"
     d="M183,18.58v2.9h-3.6v-2.9Zm0,3.5v9.3h-3.6v-9.3Z"
     transform="translate(-8.4 -12.6)"
     id="path4419" />
  <path
     class="cls-2"
     d="M188.8,31.58a5.14,5.14,0,0,1-3.7-1.4,4.94,4.94,0,0,1-1.4-3.4,5,5,0,0,1,1.4-3.5,4.75,4.75,0,0,1,3.7-1.4,5.14,5.14,0,0,1,3.7,1.4,4.76,4.76,0,0,1,1.4,3.4,5,5,0,0,1-1.4,3.5A4.62,4.62,0,0,1,188.8,31.58Zm.1-2.2a.92.92,0,0,0,1-.9,11,11,0,0,0,.2-1.8,4.39,4.39,0,0,0-.3-1.9,1,1,0,0,0-1.8,0,4.6,4.6,0,0,0-.3,2,4.54,4.54,0,0,0,.3,2.1A1.05,1.05,0,0,0,188.9,29.38Z"
     transform="translate(-8.4 -12.6)"
     id="path4421" />
  <path
     class="cls-2"
     d="M203.9,31.38h-3.6v-5.8a1.44,1.44,0,0,0-.2-.9.85.85,0,0,0-.6-.2c-.7,0-1,.5-1,1.4v5.6h-3.6v-9.3h3.4v1.3A2.75,2.75,0,0,1,201,22a3.06,3.06,0,0,1,1.7.4,2.4,2.4,0,0,1,1,1,5.15,5.15,0,0,1,.3,2.1v5.9Z"
     transform="translate(-8.4 -12.6)"
     id="path4423" />
  <path
     class="cls-2"
     d="M214.5,31.38H211a5.28,5.28,0,0,1-.1-1.3,3.44,3.44,0,0,1-3,1.5,3.74,3.74,0,0,1-2.5-.8,2.93,2.93,0,0,1-.8-1.9,2.71,2.71,0,0,1,1.3-2.4,9.76,9.76,0,0,1,4.7-1.1v-.2c0-.4-.1-.7-.3-.8a1.88,1.88,0,0,0-.8-.2c-.8,0-1.3.3-1.4,1l-3.3-.3c.5-1.9,2.1-2.9,4.8-2.9a14.92,14.92,0,0,1,2.1.2,3.48,3.48,0,0,1,1.5.7,2,2,0,0,1,.7,1,8.09,8.09,0,0,1,.2,2v3.7A8,8,0,0,0,214.5,31.38Zm-3.8-4.3c-1.6.2-2.3.7-2.3,1.5,0,.6.3.8.9.8a1.69,1.69,0,0,0,1-.3c.3-.2.4-.7.4-1.5v-.5Z"
     transform="translate(-8.4 -12.6)"
     id="path4425" />
  <path
     class="cls-2"
     d="M219.1,19v12.5h-3.6V19Z"
     transform="translate(-8.4 -12.6)"
     id="path4427" />
  <path
     class="cls-2"
     d="M67.5,43.68l3.5.2a5.1,5.1,0,0,1-1.7,3.5,5.89,5.89,0,0,1-7.7-.5,6.75,6.75,0,0,1-1.6-4.6,7,7,0,0,1,1.5-4.7,5.1,5.1,0,0,1,4.1-1.8,5.22,5.22,0,0,1,3.8,1.4,5.4,5.4,0,0,1,1.5,3.6l-3.6.2a3,3,0,0,0-.5-1.8,1.38,1.38,0,0,0-1.1-.6q-1.8,0-1.8,3.6a5.75,5.75,0,0,0,.5,2.8,1.46,1.46,0,0,0,1.3.7C66.8,45.68,67.4,45,67.5,43.68Z"
     transform="translate(-8.4 -12.6)"
     id="path4429" />
  <path
     class="cls-2"
     d="M76.8,48.58a5.14,5.14,0,0,1-3.7-1.4,4.94,4.94,0,0,1-1.4-3.4,5,5,0,0,1,1.4-3.5,5.59,5.59,0,0,1,7.4,0,4.76,4.76,0,0,1,1.4,3.4,5,5,0,0,1-1.4,3.5A4.62,4.62,0,0,1,76.8,48.58Zm.1-2.2a.92.92,0,0,0,1-.9,11,11,0,0,0,.2-1.8,4.39,4.39,0,0,0-.3-1.9,1,1,0,0,0-1.8,0,4.6,4.6,0,0,0-.3,2,4.54,4.54,0,0,0,.3,2.1A1.05,1.05,0,0,0,76.9,46.38Z"
     transform="translate(-8.4 -12.6)"
     id="path4431" />
  <path
     class="cls-2"
     d="M97.4,48.38H93.9v-5.8a1.29,1.29,0,0,0-.2-.8c-.1-.2-.3-.2-.6-.2-.7,0-1,.5-1,1.5v5.4H88.6v-5.8c0-.7-.3-1.1-.9-1.1s-.9.4-.9,1.1v5.8H83.3v-9.3h3.3v1.3a2.66,2.66,0,0,1,2.5-1.4,2.79,2.79,0,0,1,2.6,1.4,3.47,3.47,0,0,1,4.4-1,2.4,2.4,0,0,1,1,1,4.18,4.18,0,0,1,.3,1.8Z"
     transform="translate(-8.4 -12.6)"
     id="path4433" />
  <path
     class="cls-2"
     d="M113.4,48.38h-3.5v-5.8a1.29,1.29,0,0,0-.2-.8c-.1-.2-.3-.2-.6-.2-.7,0-1,.5-1,1.5v5.4h-3.5v-5.8c0-.7-.3-1.1-.9-1.1s-.9.4-.9,1.1v5.8H99.3v-9.3h3.3v1.3a2.66,2.66,0,0,1,2.5-1.4,2.79,2.79,0,0,1,2.6,1.4,3.47,3.47,0,0,1,4.4-1,2.4,2.4,0,0,1,1,1,4.18,4.18,0,0,1,.3,1.8Z"
     transform="translate(-8.4 -12.6)"
     id="path4435" />
  <path
     class="cls-2"
     d="M124.4,39.08v9.3H121v-1.5a2.94,2.94,0,0,1-2.9,1.7,2.44,2.44,0,0,1-2-.7,2.82,2.82,0,0,1-.7-2.1v-6.6H119V45c0,.4,0,.6.2.8a.85.85,0,0,0,.6.2,1.14,1.14,0,0,0,.8-.3,1.22,1.22,0,0,0,.3-.9v-5.6h3.5Z"
     transform="translate(-8.4 -12.6)"
     id="path4437" />
  <path
     class="cls-2"
     d="M135.4,48.38h-3.6v-5.8a1.44,1.44,0,0,0-.2-.9.85.85,0,0,0-.6-.2c-.7,0-1,.5-1,1.4v5.6h-3.6v-9.3h3.4v1.3a2.75,2.75,0,0,1,2.7-1.5,3.06,3.06,0,0,1,1.7.4,2.4,2.4,0,0,1,1,1,5.15,5.15,0,0,1,.3,2.1v5.9Z"
     transform="translate(-8.4 -12.6)"
     id="path4439" />
  <path
     class="cls-2"
     d="M140.9,35.58v2.9h-3.6v-2.9Zm0,3.5v9.3h-3.6v-9.3Z"
     transform="translate(-8.4 -12.6)"
     id="path4441" />
  <path
     class="cls-2"
     d="M148.6,39.08v2.4h-1.9v3.4c0,.5.1.7.3.8a1.09,1.09,0,0,0,.5.1,4.4,4.4,0,0,0,1-.2v2.7a14.92,14.92,0,0,1-2.1.2,3.73,3.73,0,0,1-2.5-.7,2.7,2.7,0,0,1-.8-2.3v-4h-1.4v-2.4h1.4l.1-3,3.5-.1v3.1Z"
     transform="translate(-8.4 -12.6)"
     id="path4443" />
  <path
     class="cls-2"
     d="M158.5,39.08l-3.6,10.1a4.07,4.07,0,0,1-1.2,1.8,3.84,3.84,0,0,1-2.4.6,15.26,15.26,0,0,1-1.8-.1v-2.6a6.15,6.15,0,0,0,1.3.1c1,0,1.6-.2,1.6-.7a1.42,1.42,0,0,0-.2-.6l-3.3-8.6h3.9l1.5,5,1.6-5Z"
     transform="translate(-8.4 -12.6)"
     id="path4445" />
  <path
     class="cls-2"
     d="M174.7,36v12.5h-3.8v-4.8H168v4.8h-3.8V36H168v4.6h2.9V36Z"
     transform="translate(-8.4 -12.6)"
     id="path4447" />
  <path
     class="cls-2"
     d="M182.9,45.08l3.4.2a3.89,3.89,0,0,1-1.5,2.3,5.4,5.4,0,0,1-3.3,1,5,5,0,0,1-3.7-1.4,4.6,4.6,0,0,1-1.4-3.4,4.83,4.83,0,0,1,1.4-3.5,4.62,4.62,0,0,1,3.7-1.4,4.9,4.9,0,0,1,3.6,1.4,5,5,0,0,1,1.4,3.7v.5h-6.2a2.27,2.27,0,0,0,.3,1.3,1.25,1.25,0,0,0,1.1.4A1.12,1.12,0,0,0,182.9,45.08Zm-.2-2.4a1.7,1.7,0,0,0-.4-1.3,1.4,1.4,0,0,0-.9-.3c-.9,0-1.3.5-1.3,1.6Z"
     transform="translate(-8.4 -12.6)"
     id="path4449" />
  <path
     class="cls-2"
     d="M197.1,48.38h-3.5a5.28,5.28,0,0,1-.1-1.3,3.44,3.44,0,0,1-3,1.5,3.74,3.74,0,0,1-2.5-.8,2.93,2.93,0,0,1-.8-1.9,2.71,2.71,0,0,1,1.3-2.4,9.76,9.76,0,0,1,4.7-1.1v-.2c0-.4-.1-.7-.3-.8a1.88,1.88,0,0,0-.8-.2c-.8,0-1.3.3-1.4,1l-3.3-.3c.5-1.9,2.1-2.9,4.8-2.9a14.92,14.92,0,0,1,2.1.2,3.48,3.48,0,0,1,1.5.7,2,2,0,0,1,.7,1,8.09,8.09,0,0,1,.2,2v3.7A8,8,0,0,0,197.1,48.38Zm-3.8-4.3c-1.6.2-2.3.7-2.3,1.5,0,.6.3.8.9.8a1.69,1.69,0,0,0,1-.3c.3-.2.4-.7.4-1.5v-.5Z"
     transform="translate(-8.4 -12.6)"
     id="path4451" />
  <path
     class="cls-2"
     d="M202.3,36v12.5h-3.6V36Z"
     transform="translate(-8.4 -12.6)"
     id="path4453" />
  <path
     class="cls-2"
     d="M209.9,39.08v2.4H208v3.4c0,.5.1.7.3.8a1.09,1.09,0,0,0,.5.1,4.4,4.4,0,0,0,1-.2v2.7a14.92,14.92,0,0,1-2.1.2,3.73,3.73,0,0,1-2.5-.7,2.7,2.7,0,0,1-.8-2.3v-4H203v-2.4h1.4l.1-3L208,36v3.1Z"
     transform="translate(-8.4 -12.6)"
     id="path4455" />
  <path
     class="cls-2"
     d="M220.3,48.38h-3.6v-5.6a2.68,2.68,0,0,0-.2-1.1.6.6,0,0,0-.6-.3,1.07,1.07,0,0,0-.6.2.55.55,0,0,0-.3.5v6.2h-3.6V36H215v4.3a3,3,0,0,1,2.6-1.3,3.19,3.19,0,0,1,1.4.3,2.18,2.18,0,0,1,.9.7,2,2,0,0,1,.4.8,6.22,6.22,0,0,1,.1,1.6v6Z"
     transform="translate(-8.4 -12.6)"
     id="path4457" />
  <path
     class="cls-2"
     d="M233.8,43.68l3.5.2a5.1,5.1,0,0,1-1.7,3.5,5.89,5.89,0,0,1-7.7-.5,6.75,6.75,0,0,1-1.6-4.6,7,7,0,0,1,1.5-4.7,5.1,5.1,0,0,1,4.1-1.8,5.22,5.22,0,0,1,3.8,1.4,5.4,5.4,0,0,1,1.5,3.6l-3.6.2a3,3,0,0,0-.5-1.8,1.38,1.38,0,0,0-1.1-.6q-1.8,0-1.8,3.6a5.75,5.75,0,0,0,.5,2.8,1.46,1.46,0,0,0,1.3.7C233.2,45.68,233.7,45,233.8,43.68Z"
     transform="translate(-8.4 -12.6)"
     id="path4459" />
  <path
     class="cls-2"
     d="M244.7,45.08l3.4.2a3.89,3.89,0,0,1-1.5,2.3,5.4,5.4,0,0,1-3.3,1,5,5,0,0,1-3.7-1.4,4.6,4.6,0,0,1-1.4-3.4,4.83,4.83,0,0,1,1.4-3.5,4.62,4.62,0,0,1,3.7-1.4,4.9,4.9,0,0,1,3.6,1.4,5,5,0,0,1,1.4,3.7v.5h-6.2a2.27,2.27,0,0,0,.3,1.3,1.25,1.25,0,0,0,1.1.4A1.12,1.12,0,0,0,244.7,45.08Zm-.2-2.4a1.7,1.7,0,0,0-.4-1.3,1.4,1.4,0,0,0-.9-.3c-.9,0-1.3.5-1.3,1.6Z"
     transform="translate(-8.4 -12.6)"
     id="path4461" />
  <path
     class="cls-2"
     d="M258.6,48.38H255v-5.8a1.44,1.44,0,0,0-.2-.9.85.85,0,0,0-.6-.2c-.7,0-1,.5-1,1.4v5.6h-3.6v-9.3H253v1.3a2.75,2.75,0,0,1,2.7-1.5,3.06,3.06,0,0,1,1.7.4,2.4,2.4,0,0,1,1,1,5.15,5.15,0,0,1,.3,2.1v5.9Z"
     transform="translate(-8.4 -12.6)"
     id="path4463" />
  <path
     class="cls-2"
     d="M266.3,39.08v2.4h-1.9v3.4c0,.5.1.7.3.8a1.09,1.09,0,0,0,.5.1,4.4,4.4,0,0,0,1-.2v2.7a14.92,14.92,0,0,1-2.1.2,3.73,3.73,0,0,1-2.5-.7,2.7,2.7,0,0,1-.8-2.3v-4h-1.4v-2.4h1.4l.1-3,3.5-.1v3.1Z"
     transform="translate(-8.4 -12.6)"
     id="path4465" />
  <path
     class="cls-2"
     d="M273.6,45.08l3.4.2a3.89,3.89,0,0,1-1.5,2.3,5.4,5.4,0,0,1-3.3,1,5,5,0,0,1-3.7-1.4,4.6,4.6,0,0,1-1.4-3.4,4.83,4.83,0,0,1,1.4-3.5,4.62,4.62,0,0,1,3.7-1.4,4.9,4.9,0,0,1,3.6,1.4,5,5,0,0,1,1.4,3.7v.5H271a2.27,2.27,0,0,0,.3,1.3,1.25,1.25,0,0,0,1.1.4A1.12,1.12,0,0,0,273.6,45.08Zm-.2-2.4a1.7,1.7,0,0,0-.4-1.3,1.4,1.4,0,0,0-.9-.3c-.9,0-1.3.5-1.3,1.6Z"
     transform="translate(-8.4 -12.6)"
     id="path4467" />
  <path
     class="cls-2"
     d="M281.74,48.38h-3.5v-9.3h3V41a2.36,2.36,0,0,1,2.4-2.1h.66l-.06,3.2a2.49,2.49,0,0,0-.8-.1c-1.2,0-1.8.7-1.8,2v4.4Z"
     transform="translate(-8.4 -12.6)"
     id="path4469" />
  <path
     class="st0"
     d="m 4.2007543,12.650596 h 3.5947199 v 16.830469 c 0.8163324,-0.222491 1.6326628,-0.405729 2.4203508,-0.562766 0.730401,-0.157037 1.489447,-0.30101 2.248491,-0.431888 V 6.2246539 H 9.3278867 C 8.6118066,8.0437994 7.8097968,9.6273892 4.2007543,9.6273892 Z"
     id="path244"
     inkscape:connector-curvature="0"
     style="clip-rule:evenodd;fill:#6fb143;fill-rule:evenodd;stroke-width:0.13690631" />
  <path
     class="st1"
     d="m 27.01506,4.955159 c -8.77914,0 -15.882653,6.504471 -15.882653,14.513992 0,3.298037 1.203015,6.334338 3.236681,8.781694 1.203016,-0.183227 2.391708,-0.27483 3.580399,-0.549671 l -0.873617,3.075535 c 0.143217,0.104719 0.27211,0.196322 0.415327,0.301021 1.532411,-0.183217 3.293967,-0.536587 5.213063,-1.060089 0.114572,-0.02613 0.229143,-0.06537 0.343718,-0.0916 -0.300755,-0.0916 -0.587187,-0.196312 -0.859297,-0.314105 0,0 0,0 -0.01431,0 -0.358041,-0.143952 -0.701759,-0.30101 -1.031155,-0.471142 h -0.01432 c -0.27211,-0.130868 -0.5299,-0.274831 -0.773366,-0.431888 0,0 0,0 0,0 -0.05728,-0.03924 -0.114573,-0.07849 -0.18618,-0.117794 0,0 -0.01431,-0.01311 -0.01431,-0.01311 -0.243467,-0.157058 -0.486933,-0.314105 -0.716078,-0.484248 -0.01432,0 -0.01432,-0.01311 -0.02865,-0.01311 -0.05729,-0.03935 -0.100252,-0.07849 -0.157539,-0.117783 -0.01432,-0.01312 -0.01432,-0.01312 -0.02865,-0.02613 -0.171859,-0.130878 -0.329398,-0.261735 -0.501256,-0.405708 0,0 0,0 0,0 -0.04295,-0.03935 -0.100252,-0.07849 -0.143216,-0.130868 -0.01431,-0.01311 -0.02865,-0.02613 -0.04295,-0.03935 -0.04295,-0.03914 -0.08593,-0.07849 -0.128893,-0.117763 -0.01433,-0.01311 -0.02865,-0.02613 -0.04295,-0.03935 -0.143215,-0.130888 -0.272111,-0.261766 -0.415326,-0.405719 -0.01432,-0.01312 -0.02865,-0.02613 -0.04295,-0.03924 -0.04295,-0.03924 -0.07161,-0.07849 -0.114572,-0.117783 -0.01431,-0.01312 -0.02865,-0.03935 -0.05728,-0.05236 -0.04295,-0.03914 -0.07161,-0.07849 -0.114575,-0.117793 -0.01431,-0.01301 -0.02865,-0.03924 -0.04295,-0.05236 -0.114573,-0.130867 -0.229145,-0.27482 -0.343719,-0.405708 -0.01432,-0.02613 -0.04295,-0.05236 -0.05728,-0.06537 -0.02865,-0.03935 -0.05728,-0.07849 -0.08593,-0.117794 -0.01432,-0.02613 -0.04295,-0.05236 -0.05728,-0.07849 -0.02865,-0.03935 -0.05728,-0.07849 -0.08593,-0.117783 -0.01431,-0.02613 -0.04296,-0.05236 -0.05729,-0.07849 -0.04295,-0.06537 -0.08593,-0.130868 -0.143215,-0.196302 -0.02865,-0.02613 -0.04295,-0.06537 -0.07161,-0.0916 -0.02865,-0.03924 -0.04295,-0.07849 -0.07161,-0.104699 -0.01431,-0.03924 -0.04295,-0.06537 -0.05728,-0.104698 -0.02865,-0.03935 -0.04295,-0.07849 -0.07161,-0.104698 -0.02865,-0.03924 -0.04295,-0.06537 -0.05728,-0.104699 -0.01431,-0.03935 -0.04295,-0.06537 -0.05728,-0.104698 -0.02865,-0.03935 -0.04295,-0.07849 -0.07161,-0.130868 -0.02865,-0.05236 -0.05728,-0.0916 -0.08593,-0.143973 -0.02865,-0.05236 -0.05728,-0.0916 -0.07161,-0.143962 -0.01431,-0.03935 -0.02865,-0.06547 -0.05728,-0.104709 -0.01431,-0.03924 -0.04295,-0.07849 -0.05728,-0.117783 -0.01431,-0.03924 -0.02865,-0.06537 -0.05728,-0.104688 -0.01431,-0.03935 -0.04295,-0.0916 -0.05729,-0.130878 -0.01431,-0.02613 -0.02865,-0.06547 -0.04295,-0.0916 -0.02865,-0.06537 -0.05728,-0.130868 -0.08593,-0.196312 -0.01431,-0.02613 -0.02865,-0.05236 -0.02865,-0.07849 -0.02865,-0.05236 -0.04295,-0.104708 -0.07161,-0.157047 -0.01431,-0.02613 -0.02865,-0.06537 -0.04295,-0.0916 -0.01431,-0.05236 -0.04296,-0.0916 -0.05728,-0.143973 -0.01431,-0.02613 -0.02865,-0.06547 -0.02865,-0.0916 -0.01431,-0.05236 -0.04295,-0.104688 -0.05728,-0.157047 -0.01431,-0.02613 -0.01431,-0.05236 -0.02865,-0.07849 -0.02865,-0.07849 -0.05728,-0.157058 -0.07161,-0.235587 0,-0.02613 -0.01432,-0.03935 -0.01432,-0.06547 -0.01431,-0.05236 -0.02865,-0.117784 -0.05728,-0.170122 -0.01431,-0.02613 -0.01431,-0.06537 -0.02865,-0.0916 -0.01431,-0.05236 -0.02865,-0.104708 -0.04295,-0.157057 -0.01432,-0.02613 -0.01432,-0.06537 -0.02865,-0.0916 -0.01432,-0.06537 -0.02865,-0.117783 -0.04295,-0.183227 0,-0.02613 -0.01431,-0.03935 -0.01431,-0.06547 -0.01431,-0.07849 -0.02865,-0.157047 -0.05728,-0.248661 0,-0.02613 -0.01431,-0.05236 -0.01431,-0.06547 -0.01431,-0.06537 -0.02865,-0.117783 -0.02865,-0.183227 0,-0.02613 -0.01431,-0.06537 -0.01431,-0.0916 -0.01431,-0.05236 -0.01431,-0.117793 -0.02865,-0.170132 0,-0.02613 -0.01431,-0.05236 -0.01431,-0.0916 -0.01431,-0.06537 -0.01431,-0.143973 -0.02865,-0.209418 0,-0.01301 0,-0.02613 0,-0.03924 -0.01431,-0.07849 -0.01431,-0.170133 -0.02865,-0.248651 0,-0.02613 0,-0.05236 0,-0.07849 0,-0.06547 -0.01431,-0.117793 -0.01431,-0.183237 0,-0.02613 0,-0.06537 0,-0.0916 0,-0.06537 0,-0.117783 -0.01431,-0.183217 0,-0.02613 0,-0.05236 0,-0.07849 0,-0.0916 0,-0.170133 0,-0.261746 0,0 0,0 0,0 0,-2.093986 0.644473,-4.057105 1.761556,-5.732318 2.119597,-3.193339 5.972106,-5.3265791 10.354517,-5.3265791 6.673863,0 12.101748,4.9601251 12.101748,11.0588971 0,0 0,0.01312 0,0.01312 0,0.0916 0,0.183238 0,0.274841 0,0.03935 0,0.06547 0,0.104708 0,0.06537 0,0.130878 -0.01431,0.196312 0,0.03935 0,0.07849 -0.01431,0.117783 0,0.05236 -0.01432,0.117794 -0.01432,0.170143 0,0.03924 -0.01431,0.07849 -0.01431,0.117783 0,0.05236 -0.01431,0.117783 -0.01431,0.170142 0,0.03935 -0.01431,0.07849 -0.01431,0.117773 0,0.05236 -0.01431,0.104708 -0.02864,0.170142 0,0.03935 -0.01431,0.07849 -0.01431,0.117794 -0.01431,0.05236 -0.01431,0.104698 -0.02867,0.157037 0,0.03935 -0.01432,0.07849 -0.01432,0.117793 -0.01431,0.05236 -0.01431,0.104698 -0.02864,0.157058 -0.01431,0.03935 -0.01431,0.07849 -0.02864,0.117772 -0.01431,0.05236 -0.02864,0.104709 -0.04295,0.157058 -0.01432,0.03924 -0.01432,0.07849 -0.02864,0.117783 -0.01431,0.05236 -0.02864,0.104709 -0.04295,0.170143 -0.01433,0.03924 -0.01433,0.07849 -0.02864,0.104698 -0.01431,0.05236 -0.02864,0.104698 -0.04295,0.170132 -0.01432,0.03924 -0.01432,0.06537 -0.02864,0.104709 -0.01431,0.05236 -0.02864,0.117783 -0.05729,0.170132 -0.01431,0.03935 -0.01431,0.06547 -0.02864,0.0916 -0.01432,0.05236 -0.04295,0.117793 -0.05729,0.170142 -0.01432,0.02613 -0.02864,0.06537 -0.02864,0.0916 -0.02864,0.06537 -0.04295,0.117793 -0.07161,0.183227 -0.01431,0.02613 -0.02864,0.05236 -0.02864,0.07849 -0.02864,0.06537 -0.04295,0.117783 -0.07161,0.183217 -0.01431,0.02613 -0.01431,0.05236 -0.02864,0.07849 -0.02864,0.06547 -0.05729,0.130878 -0.08593,0.196312 -0.01431,0.02613 -0.01431,0.03935 -0.02864,0.06547 -0.02864,0.06537 -0.05729,0.130878 -0.100253,0.196312 -0.01431,0.01311 -0.01431,0.03935 -0.02864,0.05236 -0.02867,0.07849 -0.07161,0.143973 -0.114574,0.222492 0,0.01311 -0.01431,0.02613 -0.01431,0.02613 -0.04295,0.07849 -0.08593,0.157048 -0.128894,0.235566 0,0 0,0 0,0 -0.644471,1.164787 -1.518088,2.21178 -2.549242,3.101736 1.274622,0.06537 2.678136,0.27483 4.439693,0.65438 0.01431,-0.01312 0.02864,-0.02613 0.04295,-0.05236 l 0.55854,-2.473535 0.429648,0.05236 c 0.04295,0 0.243469,0.03935 0.558544,0.0916 1.031157,-1.923864 1.618339,-4.096389 1.618339,-6.386687 C 42.89796,11.459661 35.780121,4.9552102 27.015303,4.9552102"
     id="path246"
     inkscape:connector-curvature="0"
     style="fill:#394e8c;stroke-width:0.13690631" />
  <path
     class="st1"
     d="m 40.649219,26.183028 c 0,0 5.256027,0.706709 7.676366,2.918498 l -3.007526,2.329563 -0.114572,3.808454 c 0,0 -3.737936,-2.421186 -5.785923,-2.970858 l 1.489445,-5.418203 z"
     id="path248"
     inkscape:connector-curvature="0"
     style="fill:#394e8c;stroke-width:0.13690631" />
  <path
     class="st1"
     d="m 17.276373,28.277015 c 0,0 -8.0917025,0.916135 -11.700746,2.473525 l 3.6233651,1.950044 -2.9932138,3.271847 c 0,0 6.2728587,-1.544305 9.0369277,-1.570485 l 1.546733,-5.522921 z"
     id="path250"
     inkscape:connector-curvature="0"
     style="fill:#394e8c;stroke-width:0.13690631" />
  <polygon
     class="st2"
     points="243.2,447.3 233.5,485.1 201.8,478.7 199.9,463.7 "
     id="polygon252"
     transform="matrix(0.14321597,0,0,0.13087459,-17.553754,-30.263202)"
     style="fill:#548534" />
  <polygon
     class="st2"
     points="399.4,465 429.7,458.3 406.4,431.3 "
     id="polygon254"
     transform="matrix(0.14321597,0,0,0.13087459,-17.553754,-30.263202)"
     style="fill:#548534" />
  <path
     class="st3"
     d="m 11.07512,30.42336 c 0,0 1.761558,2.735271 11.729389,0 9.967834,-2.735281 10.741199,-3.507444 21.167323,-0.706718 l -2.678139,5.954779 c 0,0 -3.064823,-3.572858 -15.037678,0.418803 -11.958534,3.991671 -17.7158165,0.418804 -17.7158165,0.418804 z"
     id="path256"
     inkscape:connector-curvature="0"
     style="fill:#6fb143;stroke-width:0.13690631" />
  <polygon
     class="st4"
     points="230.7,510.2 230.5,500.4 220.2,484.1 228.4,484 234,493.4 239.3,483.8 247.4,483.6 237.7,500.1 237.9,510 "
     id="polygon258"
     transform="matrix(0.14321597,0,0,0.13087459,-17.553754,-30.263202)"
     style="fill:#ffffff" />
  <polygon
     class="st4"
     points="272.3,487.8 273.5,493.4 261.3,496.1 262.2,500.2 275.9,497.1 277.3,503.1 256.5,507.8 250.8,482.2 271.3,477.6 272.7,483.6 259.1,486.6 260,490.5 "
     id="polygon260"
     transform="matrix(0.14321597,0,0,0.13087459,-17.553754,-30.263202)"
     style="fill:#ffffff" />
  <path
     class="st4"
     d="m 23.864308,31.588136 0.973868,-0.248661 2.549245,2.944688 -1.074121,0.274831 -0.443968,-0.536587 -1.403518,0.35337 -0.08593,0.667444 -1.045477,0.261756 z m 1.489447,1.806071 -0.687438,-0.837586 -0.128894,1.033898 z"
     id="path262"
     inkscape:connector-curvature="0"
     style="fill:#ffffff;stroke-width:0.13690631" />
  <path
     class="st4"
     d="m 27.960285,30.567313 1.732913,-0.379529 c 0.286433,-0.06547 0.5299,-0.07849 0.744724,-0.06547 0.214822,0.02613 0.386683,0.07849 0.544218,0.157047 0.272111,0.143963 0.443973,0.392624 0.529901,0.70674 v 0.01312 c 0.07161,0.261746 0.05729,0.484237 -0.04295,0.680549 -0.08593,0.196322 -0.243466,0.366444 -0.443969,0.510407 l 1.174371,0.968464 -1.160049,0.248671 -1.002514,-0.850681 -0.443969,0.0916 0.25779,1.007739 -1.016834,0.222492 z m 2.105273,1.243315 c 0.17186,-0.03924 0.300754,-0.104709 0.372364,-0.196322 0.07161,-0.0916 0.100252,-0.196292 0.07161,-0.314095 v -0.01312 c -0.02864,-0.130867 -0.114572,-0.222491 -0.229146,-0.27483 -0.114575,-0.03924 -0.25779,-0.05236 -0.429648,-0.01301 l -0.673117,0.143963 0.214824,0.811437 z"
     id="path264"
     inkscape:connector-curvature="0"
     style="fill:#ffffff;stroke-width:0.13690631" />
  <path
     class="st4"
     d="m 35.507767,32.883811 c -0.329396,0.01311 -0.658793,-0.01312 -0.959546,-0.0916 -0.300754,-0.07849 -0.587188,-0.209387 -0.830653,-0.379519 l 0.544219,-0.654369 c 0.401006,0.24865 0.816333,0.366444 1.24598,0.353349 0.143215,-0.01312 0.243465,-0.03924 0.315076,-0.07849 0.07161,-0.03924 0.100252,-0.104698 0.100252,-0.183217 v -0.01311 c 0,-0.03935 -0.01431,-0.06537 -0.02864,-0.0916 -0.01431,-0.02613 -0.05729,-0.05236 -0.100252,-0.07849 -0.05729,-0.02613 -0.114572,-0.03935 -0.200501,-0.06547 -0.08593,-0.02613 -0.186182,-0.03914 -0.315076,-0.06537 -0.200504,-0.02613 -0.386685,-0.06547 -0.572866,-0.117783 -0.171857,-0.03935 -0.329396,-0.104698 -0.458291,-0.170142 -0.128892,-0.07849 -0.243468,-0.170132 -0.315074,-0.274831 -0.08593,-0.117783 -0.128897,-0.261756 -0.143219,-0.431878 v -0.01311 c -0.01431,-0.157058 0.01431,-0.314095 0.07161,-0.444963 0.05729,-0.130878 0.143214,-0.261766 0.272111,-0.366454 0.114573,-0.104698 0.272108,-0.183237 0.443968,-0.248661 0.171861,-0.06537 0.372364,-0.104698 0.601509,-0.104698 0.315075,-0.01312 0.615829,0.01311 0.873616,0.06537 0.257791,0.06537 0.486935,0.170132 0.701758,0.30101 l -0.472613,0.693634 c -0.171858,-0.104698 -0.358039,-0.183217 -0.54422,-0.222491 -0.186182,-0.05236 -0.358039,-0.06537 -0.529899,-0.05236 -0.128893,0 -0.214823,0.02613 -0.272111,0.07849 -0.05728,0.03924 -0.08593,0.104698 -0.08593,0.170142 v 0.01312 c 0,0.03914 0.01431,0.07849 0.04295,0.104698 0.01431,0.02613 0.05729,0.05236 0.100253,0.07849 0.04295,0.02613 0.114573,0.03924 0.200502,0.06537 0.08593,0.02613 0.200502,0.03924 0.329395,0.06537 0.214826,0.02613 0.415329,0.07849 0.587188,0.117783 0.171858,0.05236 0.329396,0.104698 0.45829,0.183227 0.128892,0.07849 0.229145,0.170122 0.300753,0.287925 0.07161,0.117783 0.114574,0.248661 0.128894,0.405709 v 0.01312 c 0.01431,0.170132 -0.01432,0.340275 -0.08593,0.471132 -0.0716,0.143973 -0.157536,0.261756 -0.28643,0.366465 -0.128897,0.104688 -0.286432,0.183227 -0.458292,0.248661 -0.214824,0.02613 -0.429648,0.05236 -0.658793,0.06537"
     id="path266"
     inkscape:connector-curvature="0"
     style="fill:#ffffff;stroke-width:0.13690631" />
  <path
     class="st5"
     d="m 33.216312,35.501299 c -0.02864,-0.196322 0.05728,-0.261756 0.171857,-0.274851 0.114576,-0.01301 0.214827,0.02613 0.24347,0.222491 l 0.01431,0.117783 c 0.02864,0.170143 -0.05729,0.235577 -0.17186,0.248672 -0.11457,0.01301 -0.214823,-0.02613 -0.243465,-0.196312 z m 0.171857,1.099342 -0.02864,-0.196301 c -0.02864,-0.170153 0.04295,-0.248682 0.17186,-0.274851 0.128895,-0.01312 0.214825,0.03935 0.243466,0.209396 l 0.02864,0.196322 c 0.02867,0.196302 -0.05728,0.248651 -0.171856,0.274831 -0.114573,0.01311 -0.214825,-0.02613 -0.24347,-0.209397 z m 0.787689,-0.104708 -0.02864,-0.170122 c -0.02864,-0.209397 -0.128892,-0.35338 -0.300754,-0.418824 0.143215,-0.0916 0.186182,-0.248651 0.157537,-0.458048 l -0.01431,-0.06537 c -0.05728,-0.340264 -0.28643,-0.510407 -0.658792,-0.458047 -0.372362,0.05236 -0.544221,0.27483 -0.486935,0.615105 l 0.01431,0.06547 c 0.02866,0.209396 0.128899,0.340264 0.300753,0.405718 -0.143212,0.104709 -0.186181,0.274831 -0.157535,0.471153 l 0.02864,0.170122 c 0.05729,0.340274 0.286431,0.510417 0.658791,0.458068 0.358042,-0.05236 0.529899,-0.274841 0.486935,-0.615116 z m -3.093465,-0.6282 0.286432,-0.06537 0.415327,1.609759 0.358039,-0.07849 -0.544222,-2.107071 -0.243465,0.05236 c -0.01431,0.157068 -0.05729,0.287925 -0.329396,0.353359 z m -1.861808,1.649023 c 0.100253,0.32719 0.35804,0.471153 0.701759,0.379539 0.343718,-0.0916 0.486935,-0.340274 0.372362,-0.667454 l -0.34372,-1.073183 c -0.100253,-0.327169 -0.358039,-0.471132 -0.701758,-0.379529 -0.343716,0.0916 -0.486935,0.340285 -0.372361,0.667444 z m 0,-1.190945 c -0.04295,-0.143973 0,-0.222492 0.114573,-0.248672 0.114573,-0.02613 0.200503,0 0.243467,0.157048 l 0.358039,1.112447 c 0.04295,0.143943 0,0.222471 -0.114571,0.248641 -0.114574,0.02613 -0.200503,0 -0.243468,-0.157037 z m -1.546732,0.484227 c 0.229146,0.588935 -0.429647,0.916135 -0.186181,1.505061 l 0.100252,0.24865 1.016835,-0.327189 -0.114574,-0.287916 -0.658794,0.222482 c -0.01431,-0.01312 -0.01431,-0.02613 -0.01431,-0.03924 -0.128896,-0.340275 0.472611,-0.798332 0.214823,-1.439617 -0.128894,-0.32719 -0.372361,-0.458068 -0.716081,-0.340275 -0.343718,0.117783 -0.443968,0.353349 -0.315074,0.680549 l 0.07161,0.196312 0.329396,-0.104698 -0.08593,-0.222492 c -0.05728,-0.143962 -0.01432,-0.222491 0.100253,-0.261745 0.08593,-0.03935 0.186181,-0.01312 0.257789,0.170122 z m -1.861809,1.348013 0.644472,-0.196322 -0.114573,-0.287925 -0.644472,0.196322 z m -1.689949,-0.261756 c -0.05728,-0.183217 0.01431,-0.261745 0.128896,-0.287925 0.114573,-0.02613 0.214823,0 0.272109,0.183227 l 0.04295,0.117793 c 0.05729,0.170132 -0.01431,0.248661 -0.128895,0.274841 -0.114573,0.02613 -0.214823,0 -0.27211,-0.170143 z m 0.343719,1.060078 -0.05728,-0.196302 c -0.05729,-0.157047 0,-0.248671 0.128894,-0.287925 0.128894,-0.03935 0.229145,0.01312 0.27211,0.183237 l 0.05728,0.196292 c 0.05728,0.183227 -0.01431,0.261766 -0.128893,0.287935 -0.100253,0.02613 -0.214826,0 -0.272112,-0.183237 z m 0.759047,-0.196302 -0.05728,-0.157047 c -0.05728,-0.196302 -0.171859,-0.340275 -0.358041,-0.379549 0.128895,-0.117783 0.157538,-0.274831 0.08593,-0.471132 l -0.01431,-0.06537 c -0.100253,-0.327189 -0.35804,-0.471152 -0.730403,-0.366444 -0.35804,0.0916 -0.501255,0.340275 -0.386683,0.667465 l 0.01432,0.06537 c 0.07161,0.209397 0.186181,0.327169 0.358039,0.35337 -0.128893,0.117772 -0.143215,0.287915 -0.08593,0.497311 l 0.05728,0.157048 c 0.100252,0.327179 0.372362,0.471142 0.730402,0.366444 0.35804,-0.0916 0.501256,-0.340264 0.386683,-0.667454 z m -2.935928,0.745983 c 0.100252,0.340285 0.343717,0.484248 0.687436,0.392624 0.358039,-0.07849 0.486935,-0.314095 0.401005,-0.65438 L 23.07662,38.158051 c -0.100253,-0.340274 -0.343718,-0.484247 -0.687437,-0.392634 -0.343718,0.0916 -0.486934,0.314105 -0.401003,0.65437 z m 0.04295,-1.20404 c -0.04295,-0.143963 0.01431,-0.222492 0.128893,-0.248661 0.114574,-0.02613 0.200503,0.01311 0.243467,0.157047 l 0.315076,1.125522 c 0.04295,0.143963 -0.01432,0.222482 -0.128895,0.248661 -0.114574,0.02613 -0.200503,-0.01322 -0.243466,-0.157057 z m -1.904774,1.53122 c 0.07161,0.340275 0.315075,0.497332 0.673116,0.431888 0.358039,-0.06547 0.515577,-0.287915 0.443969,-0.62819 L 21.300727,38.53758 c -0.07161,-0.340254 -0.315075,-0.497332 -0.673116,-0.431888 -0.358039,0.06537 -0.515576,0.287935 -0.443968,0.62821 z m 0.128894,-1.190956 c -0.02865,-0.157047 0.02865,-0.222491 0.143217,-0.248651 0.114572,-0.02613 0.200502,0.02613 0.229144,0.170122 l 0.243468,1.138628 c 0.02865,0.157037 -0.02865,0.222471 -0.143216,0.248661 -0.114573,0.02613 -0.200502,-0.02613 -0.229146,-0.170153 z m -1.403516,0.235576 c 0.08593,0.615095 -0.63015,0.811428 -0.544221,1.439617 l 0.04295,0.261746 1.0598,-0.130857 -0.02865,-0.301031 -0.701759,0.07849 c 0,-0.01312 -0.01433,-0.02613 -0.01433,-0.03935 -0.04295,-0.353359 0.644472,-0.693633 0.558544,-1.361088 -0.04295,-0.340274 -0.257791,-0.510406 -0.630152,-0.471152 -0.35804,0.03924 -0.515576,0.261756 -0.472611,0.60203 l 0.02865,0.209397 0.343719,-0.03935 -0.02865,-0.235566 c -0.02865,-0.157048 0.04295,-0.222492 0.157537,-0.235566 0.128895,-0.01312 0.214825,0.02613 0.229145,0.22246 z"
     id="path268"
     inkscape:connector-curvature="0"
     style="fill:#2e3e6e;stroke-width:0.13690631" />
  <path
     class="st2"
     d="m 44.831127,22.230612 c -0.529899,-0.0916 -0.71608,0.405708 -1.088442,0.340264 -0.128895,-0.02613 -0.171857,-0.0916 -0.143215,-0.170132 0.01431,-0.07849 0.07161,-0.130868 0.214824,-0.104688 l 0.128893,0.02613 0.05729,-0.248671 -0.114572,-0.02613 c -0.300754,-0.05236 -0.486935,0.05236 -0.544223,0.314106 -0.05728,0.261745 0.08593,0.418782 0.372363,0.484227 0.5299,0.0916 0.716081,-0.405719 1.088443,-0.340275 0.128893,0.02613 0.171858,0.07849 0.157536,0.170132 -0.01431,0.07849 -0.08593,0.117804 -0.214823,0.104698 l -0.07161,-0.01301 -0.0716,0.235577 0.05728,0.01311 c 0.300754,0.05236 0.486935,-0.05236 0.544219,-0.30101 0.07161,-0.261735 -0.0716,-0.431878 -0.372359,-0.484227 m 0.329396,-1.073173 -0.05729,0.458068 0.272112,0.02613 0.08593,-0.732888 -1.861808,-0.196322 -0.08593,0.732899 0.272111,0.02613 0.05728,-0.458047 0.544223,0.05236 -0.04295,0.366465 0.272112,0.02613 0.04295,-0.366444 z m -1.518091,-1.282569 -0.01432,0.27484 1.876129,0.06537 0.01431,-0.274831 z m 1.589701,-1.387268 0.01431,0.287915 -1.60402,0.03924 0.01431,0.274841 1.604019,-0.03935 0.01432,0.287916 0.272111,-0.01312 -0.02867,-0.837596 z m -1.689952,-0.732888 0.04295,0.261725 1.861807,-0.209396 -0.04295,-0.261746 z m -0.128893,-0.850691 0.05729,0.27484 1.847482,-0.30102 -0.04295,-0.235566 -1.102764,0.183227 1.045478,-0.458078 -0.07161,-0.32719 -1.847487,0.30102 0.04295,0.235587 1.331909,-0.222492 z m 1.317588,-2.355753 -1.374874,0.353359 c -0.286432,0.07849 -0.415325,0.248661 -0.329398,0.497322 0.07161,0.248672 0.286432,0.340275 0.572864,0.274841 l 1.374873,-0.353349 -0.07161,-0.248681 -1.389194,0.353379 c -0.128895,0.03924 -0.186182,-0.01312 -0.214825,-0.0916 -0.02864,-0.07859 0,-0.143952 0.128894,-0.183227 l 1.389198,-0.353359 z m -0.558555,-1.42652 -0.157536,-0.35337 -1.747235,0.6282 0.100252,0.222482 1.231657,-0.444973 -1.145726,0.6282 0.100252,0.235576 1.331909,-0.27483 -1.245979,0.458047 0.100253,0.235586 1.747233,-0.6282 -0.157538,-0.353369 -1.317587,0.27483 z m -0.859295,-1.688288 -0.186181,-0.340285 -1.675627,0.772173 0.114572,0.209397 1.188695,-0.549682 -1.088443,0.732898 0.128897,0.222492 1.288943,-0.392624 -1.203016,0.562777 0.128897,0.222471 1.675624,-0.772173 -0.18618,-0.340265 -1.274621,0.392624 z m -2.305777,-0.942316 c -0.257789,0.143973 -0.315074,0.35338 -0.157538,0.575862 0.157538,0.222491 0.386684,0.261756 0.644473,0.104688 l 0.81633,-0.484217 c 0.25779,-0.143963 0.315077,-0.353359 0.15754,-0.575851 -0.15754,-0.2224916 -0.386686,-0.261756 -0.644472,-0.104688 z m 0.98819,-0.261735 c 0.114575,-0.06537 0.186181,-0.05236 0.243469,0.02613 0.05728,0.07849 0.04295,0.143953 -0.07161,0.209397 l -0.844973,0.497322 c -0.114572,0.06537 -0.186182,0.05236 -0.243467,-0.02613 -0.05729,-0.07849 -0.04295,-0.143943 0.0716,-0.209387 z m -1.346231,-0.5365967 -0.214825,0.143973 c -0.100252,0.078488 -0.186177,0.065475 -0.243464,-0.013115 -0.05728,-0.065372 -0.05728,-0.130878 0.05729,-0.2093863 L 41.05022,9.0516106 c 0.100252,-0.078488 0.186181,-0.065475 0.243469,0.013115 0.05728,0.065372 0.05728,0.1439422 -0.05729,0.2093863 l -0.157537,0.117783 0.171858,0.1963119 0.143217,-0.1046983 c 0.243468,-0.1701424 0.28643,-0.366444 0.100252,-0.5758611 -0.17186,-0.2093966 -0.401005,-0.2224608 -0.644473,-0.052359 l -0.773365,0.5496814 c -0.243468,0.1701219 -0.286434,0.366444 -0.100253,0.5758303 0.17186,0.2094169 0.401006,0.2224919 0.644471,0.052359 L 40.821071,9.8892067 Z M 39.847206,7.6251088 c 0.0716,0.065372 0.0716,0.1308677 -0.02864,0.2224915 l -0.128895,0.117783 c -0.100252,0.1047085 -0.18618,0.091603 -0.272108,0.013116 l -0.08593,-0.078488 0.401004,-0.3795287 z m -0.77337,1.3610982 c 0.02864,-0.065372 0.07161,-0.1046983 0.128897,-0.1701322 l 0.2005,-0.1963221 c 0.128896,-0.1308677 0.200503,-0.2486712 0.128896,-0.3926237 0.143215,0.039244 0.272109,0 0.401006,-0.1308677 l 0.100252,-0.091603 C 40.233888,7.8083362 40.233888,7.638204 40.019077,7.4418819 l -0.315075,-0.2879254 -1.303264,1.2302305 0.214824,0.1832169 0.529898,-0.4973118 0.07161,0.065372 c 0.100253,0.078488 0.100253,0.1701322 -0.02864,0.2748305 L 38.987926,8.6066168 C 38.887674,8.7113151 38.873354,8.7374743 38.844712,8.7767592 Z M 38.629868,6.61738 39.016552,6.9183799 39.18841,6.7351528 38.586905,6.2509155 37.369568,7.5465799 37.985397,8.0308172 38.157252,7.8476003 37.770573,7.5465799 38.128611,7.1670512 38.429364,7.4026172 38.601226,7.2193901 38.300472,6.9838241 Z M 36.610525,7.0492579 36.853989,7.2063156 37.94243,5.8059529 37.698965,5.6489055 Z M 35.966049,5.7928477 36.252483,5.9629901 35.822835,6.5781054 36.080622,6.7220681 37.097457,5.2824513 36.839669,5.1384886 36.410021,5.7535936 36.123588,5.5834614 36.553235,4.9683565 36.30977,4.8243937 35.292937,6.2640003 35.536402,6.4079835 Z M 34.70575,4.3401462 34.977862,4.4710242 34.24746,5.7797835 34.505247,5.8975563 35.235648,4.5888175 35.50776,4.7196852 35.622334,4.4972039 34.806001,4.1176752 Z M 32.944192,5.2693665 33.674594,5.5311225 33.774846,5.3086412 33.316556,5.1515733 33.903739,3.7774006 33.63163,3.6726921 Z M 32.342685,3.581099 32.228113,4.444865 31.956005,4.3794926 Z m 0.315076,-0.2355865 -0.415327,-0.1047085 -0.802008,1.5704948 0.257787,0.065475 0.143219,-0.2879254 0.343718,0.091603 -0.04295,0.3141153 0.286433,0.078488 z m -1.861808,-0.1832169 0.501255,0.1046881 0.05729,-0.2355763 -0.787689,-0.1701425 -0.415326,1.6751932 0.787689,0.1701629 0.05728,-0.2355968 -0.501253,-0.104688 0.128894,-0.4842475 0.401005,0.078488 0.05728,-0.2355763 -0.401006,-0.078488 z m -1.818843,0.4711321 0.329399,0.039244 -0.100253,0.7329085 0.300754,0.039346 0.229146,-1.7013729 -0.300753,-0.039244 -0.100252,0.7329085 -0.329395,-0.039244 0.100252,-0.7328983 -0.286432,-0.039141 -0.229146,1.7013626 0.286432,0.039346 z m -1.81884,-0.8375966 0.486933,0.013013 0.01431,-0.248661 -0.773366,-0.026129 -0.05729,1.7144576 0.300754,0.013116 0.01431,-0.7067186 0.386684,0.013116 0.01431,-0.2486507 -0.386684,-0.013116 z m -1.876131,1.138617 c 0.02865,0.2748304 0.200502,0.4187931 0.486934,0.3926237 0.286432,-0.026128 0.429649,-0.1832272 0.415326,-0.4580576 l -0.0716,-0.889956 C 26.084149,2.7042277 25.912298,2.5602548 25.625865,2.5864447 25.339433,2.6125737 25.196219,2.7696616 25.210539,3.0445024 Z m 0.214824,-0.9292 c -0.01432,-0.1178035 0.04295,-0.1701424 0.143217,-0.1832373 0.100252,0 0.157536,0.039346 0.171857,0.1570474 l 0.07161,0.9292102 c 0.01431,0.1178035 -0.04295,0.1701424 -0.143217,0.1832373 -0.100252,0 -0.157537,-0.039244 -0.171858,-0.1570576 z m -2.277134,0.3140745 c 0.100252,0.4842475 0.673115,0.458078 0.744724,0.7983526 0.02865,0.1177932 -0.02865,0.1701321 -0.114574,0.1832271 -0.08593,0.013116 -0.157537,-0.013115 -0.18618,-0.1439627 l -0.02865,-0.1177933 -0.27211,0.039244 0.01431,0.1046983 c 0.05728,0.2748406 0.229146,0.4057186 0.515576,0.3533695 0.286434,-0.052359 0.401007,-0.2225018 0.343721,-0.4973323 -0.100252,-0.4842475 -0.673116,-0.4580575 -0.744724,-0.7983423 -0.02865,-0.1177626 0.01431,-0.1701219 0.114573,-0.1963016 0.08593,-0.013013 0.157537,0.026129 0.171859,0.1439729 l 0.01431,0.065372 0.272111,-0.039141 -0.01432,-0.052359 C 23.993175,2.8875061 23.821311,2.7566179 23.534879,2.808967 23.291411,2.874442 23.176837,3.0576383 23.219803,3.319384 Z m -1.174371,0.1047085 c 0.100252,-0.026129 0.157538,0.013116 0.200501,0.130878 l 0.05728,0.1570576 c 0.04295,0.130878 -0.01431,0.1963017 -0.114573,0.2224814 l -0.114574,0.026128 -0.157537,-0.5104169 z m 0.90226,1.2956541 c -0.04295,-0.052359 -0.07161,-0.117783 -0.08593,-0.1962913 l -0.07161,-0.2486713 c -0.05729,-0.1701424 -0.143215,-0.2879152 -0.300753,-0.3010204 0.114574,-0.091603 0.128894,-0.2093966 0.08593,-0.3795287 l -0.04295,-0.130878 C 22.460795,3.2146345 22.28894,3.1099362 21.988186,3.1884651 l -0.429649,0.1046983 0.515577,1.6490134 0.286433,-0.078488 -0.200503,-0.6674747 0.100252,-0.026129 c 0.128895,-0.039244 0.200503,0.013116 0.243468,0.1570475 l 0.08593,0.2617457 c 0.04296,0.130878 0.05729,0.1570474 0.08593,0.1963118 z m -2.491958,-0.745983 0.486935,0.7590882 -0.257788,0.091603 z m 0.100252,-0.3664542 -0.401004,0.1439832 0.415327,1.7013522 0.257788,-0.091603 -0.07161,-0.3010101 0.329397,-0.117783 0.171858,0.2748304 0.27211,-0.1046983 z M 18.894707,4.5364581 19.352999,4.3270718 19.238426,4.1045802 18.522345,4.43177 19.367321,5.9629901 20.083401,5.635831 19.954504,5.4133395 19.496214,5.6227258 19.252747,5.1777427 19.610787,5.0076209 19.496214,4.7851293 19.138175,4.9552717 Z M 18.307521,6.5126715 18.565311,6.3817935 18.250235,5.8844818 17.949481,4.7196852 17.706015,4.8505632 17.93516,5.635831 17.319332,5.05997 17.047221,5.2039429 17.992447,6.0284445 Z m -2.07663,0.8376068 c 0.186181,0.2224916 0.415325,0.2486508 0.644472,0.091603 0.229145,-0.1570269 0.243466,-0.3795287 0.05728,-0.5889253 L 16.331134,6.1462378 c -0.18618,-0.2224916 -0.415327,-0.2486713 -0.644472,-0.091603 -0.229145,0.157068 -0.243468,0.3795493 -0.05728,0.5889458 z M 15.844208,6.4734071 c -0.08593,-0.091603 -0.07161,-0.1701322 0,-0.2224916 0.07161,-0.052359 0.157537,-0.052359 0.229145,0.052359 l 0.630149,0.7329085 c 0.08593,0.091603 0.07161,0.1701322 0,0.2224813 -0.07161,0.052359 -0.157537,0.052359 -0.229145,-0.052359 z M 14.555264,7.5073155 14.727122,7.363363 15.715313,8.3056476 15.930137,8.1224205 14.626871,6.8791258 14.483656,7.0099935 c 0.05728,0.117783 0.100253,0.2225018 -0.07161,0.3664543 z"
     id="path270"
     inkscape:connector-curvature="0"
     style="fill:#548534;stroke-width:0.13690631" />
  <path
     class="st0"
     d="m 20.069085,13.134823 c 2.16256,-1.976214 5.671351,-1.976214 7.833914,0 2.162559,1.976202 2.162559,5.182626 0,7.15885 -1.947737,1.779881 -4.983915,1.950003 -7.146479,0.536576 0.17186,-0.32718 0.401005,-0.62821 0.70176,-0.903031 0.186182,-0.170132 0.401004,-0.3272 0.615828,-0.444972 1.389196,0.798332 3.236682,0.654369 4.439696,-0.444973 1.389195,-1.269495 1.389195,-3.350397 0,-4.619871 -1.389196,-1.269494 -3.666331,-1.269494 -5.055524,0 -1.102764,1.007718 -1.331909,2.499705 -0.70176,3.71683 -0.243466,0.157058 -0.472611,0.340264 -0.687435,0.536587 -0.272111,0.24865 -0.515578,0.523491 -0.730401,0.824501 -1.389197,-1.989288 -1.145728,-4.632956 0.730401,-6.360497"
     id="path272"
     inkscape:connector-curvature="0"
     style="clip-rule:evenodd;fill:#6fb143;fill-rule:evenodd;stroke-width:0.13690631" />
  <path
     class="st0"
     d="m 26.112798,18.657713 c 1.947737,-1.779871 4.983916,-1.950013 7.146476,-0.536566 -0.171855,0.32718 -0.401004,0.62819 -0.701758,0.903031 -0.186177,0.170132 -0.401001,0.3272 -0.615826,0.444973 -1.389197,-0.798332 -3.236683,-0.65438 -4.439695,0.444972 -1.389197,1.269485 -1.389197,3.350387 0,4.619861 1.389193,1.269505 3.666327,1.269505 5.055521,0 1.102765,-1.007718 1.331909,-2.499695 0.701758,-3.71682 0.243471,-0.157058 0.472616,-0.340264 0.687438,-0.536586 0.272109,-0.248661 0.515579,-0.523492 0.730403,-0.824512 1.403514,1.963108 1.160047,4.619871 -0.730403,6.334328 -2.16256,1.976214 -5.671353,1.976214 -7.833914,0 -2.16256,-1.950023 -2.16256,-5.156457 0,-7.132681"
     id="path274"
     inkscape:connector-curvature="0"
     style="clip-rule:evenodd;fill:#6fb143;fill-rule:evenodd;stroke-width:0.13690631" />
  <path
     class="st6"
     d="M 33.946712,13.134823 C 32.056264,11.40727 29.1633,11.197884 27.01506,12.467369 c 0.315075,0.183227 0.615828,0.405718 0.90226,0.667454 0.214824,0.196322 0.415327,0.405708 0.587186,0.6282 1.331909,-0.575851 2.96457,-0.366434 4.067335,0.641284 1.389192,1.269485 1.389192,3.350396 0,4.619871 -1.389198,1.269495 -3.666329,1.269495 -5.055526,0 -1.203015,-1.099342 -1.374873,-2.800715 -0.486934,-4.057115 -0.143216,-0.196312 -0.300754,-0.392614 -0.486934,-0.562756 -0.300754,-0.27483 -0.63015,-0.484237 -0.988191,-0.641284 -1.561055,1.976202 -1.360552,4.750738 0.587186,6.53065 2.162561,1.976203 5.671352,1.976203 7.833914,0 2.133918,-1.976224 2.133918,-5.182648 -0.02864,-7.15885"
     id="path276"
     inkscape:connector-curvature="0"
     style="clip-rule:evenodd;fill:#394e8c;fill-rule:evenodd;stroke-width:0.13690631" />
  <path
     class="st6"
     d="m 27.902999,18.657713 c -2.162563,-1.976193 -5.671354,-1.976193 -7.833914,0 -2.162563,1.976224 -2.162563,5.182658 0,7.158861 1.89045,1.727542 4.783412,1.936939 6.931652,0.667454 -0.315075,-0.183227 -0.615829,-0.405708 -0.90226,-0.667454 -0.214824,-0.196322 -0.415326,-0.405708 -0.587185,-0.62821 -1.331909,0.575861 -2.964572,0.366444 -4.067334,-0.641275 -1.389195,-1.269474 -1.389195,-3.350396 0,-4.619871 1.389194,-1.269505 3.666329,-1.269505 5.055525,0 1.203012,1.099343 1.374872,2.800716 0.486933,4.057115 0.143215,0.196302 0.300754,0.392614 0.486935,0.562756 0.300752,0.274831 0.630149,0.484238 0.98819,0.641275 1.589696,-1.989278 1.389195,-4.750739 -0.558542,-6.530651"
     id="path278"
     inkscape:connector-curvature="0"
     style="clip-rule:evenodd;fill:#394e8c;fill-rule:evenodd;stroke-width:0.13690631" />
</svg>
