<?xml version="1.0" encoding="utf-8"?>
<!-- Generator: Adobe Illustrator 21.0.2, SVG Export Plug-In . SVG Version: 6.00 Build 0)  -->
<svg version="1.1" id="Layer_1" xmlns="http://www.w3.org/2000/svg" xmlns:xlink="http://www.w3.org/1999/xlink" x="0px" y="0px"
	 viewBox="0 0 282.9 46" style="enable-background:new 0 0 282.9 46;" xml:space="preserve">
<style type="text/css">
	.st0{clip-path:url(#SVGID_2_);}
	.st1{clip-path:url(#SVGID_13_);}
	.st2{clip-path:url(#SVGID_14_);}
	.st3{clip-path:url(#SVGID_15_);}
	.st4{clip-path:url(#SVGID_16_);}
	.st5{clip-path:url(#SVGID_17_);}
	.st6{clip-path:url(#SVGID_18_);}
	.st7{clip-path:url(#SVGID_19_);}
	.st8{clip-path:url(#SVGID_20_);}
	.st9{clip-path:url(#SVGID_21_);}
	.st10{clip-path:url(#SVGID_22_);fill:#6FB244;}
	.st11{clip-path:url(#SVGID_22_);fill:#3A4F8D;}
	.st12{fill:#231F20;}
	.st13{font-family:'FranklinGothic-Heavy';}
	.st14{font-size:18.6917px;}
	.st15{enable-background:new    ;}
</style>
<g>
	<g>
		<g>
			<g id="VPCHC_Rings_2016_2_">
				<defs>
					<rect id="SVGID_1_" y="0.7" width="49" height="44.6"/>
				</defs>
				<clipPath id="SVGID_2_">
					<use xlink:href="#SVGID_1_"  style="overflow:visible;"/>
				</clipPath>
				<g class="st0">
					<g>
						<defs>
							<rect id="SVGID_3_" y="0.7" width="49" height="44.6"/>
						</defs>
						<defs>
							<rect id="SVGID_4_" y="0.7" width="49" height="44.6"/>
						</defs>
						<defs>
							<rect id="SVGID_5_" y="0.7" width="49" height="44.6"/>
						</defs>
						<defs>
							<rect id="SVGID_6_" y="0.7" width="49" height="44.6"/>
						</defs>
						<defs>
							<rect id="SVGID_7_" y="0.7" width="49" height="44.6"/>
						</defs>
						<defs>
							<rect id="SVGID_8_" y="0.7" width="49" height="44.6"/>
						</defs>
						<defs>
							<rect id="SVGID_9_" y="0.7" width="49" height="44.6"/>
						</defs>
						<defs>
							<rect id="SVGID_10_" y="0.7" width="49" height="44.6"/>
						</defs>
						<defs>
							<rect id="SVGID_11_" y="0.7" width="49" height="44.6"/>
						</defs>
						<defs>
							<rect id="SVGID_12_" y="0.7" width="49" height="44.6"/>
						</defs>
						<clipPath id="SVGID_13_">
							<use xlink:href="#SVGID_3_"  style="overflow:visible;"/>
						</clipPath>
						<clipPath id="SVGID_14_" class="st1">
							<use xlink:href="#SVGID_4_"  style="overflow:visible;"/>
						</clipPath>
						<clipPath id="SVGID_15_" class="st2">
							<use xlink:href="#SVGID_5_"  style="overflow:visible;"/>
						</clipPath>
						<clipPath id="SVGID_16_" class="st3">
							<use xlink:href="#SVGID_6_"  style="overflow:visible;"/>
						</clipPath>
						<clipPath id="SVGID_17_" class="st4">
							<use xlink:href="#SVGID_7_"  style="overflow:visible;"/>
						</clipPath>
						<clipPath id="SVGID_18_" class="st5">
							<use xlink:href="#SVGID_8_"  style="overflow:visible;"/>
						</clipPath>
						<clipPath id="SVGID_19_" class="st6">
							<use xlink:href="#SVGID_9_"  style="overflow:visible;"/>
						</clipPath>
						<clipPath id="SVGID_20_" class="st7">
							<use xlink:href="#SVGID_10_"  style="overflow:visible;"/>
						</clipPath>
						<clipPath id="SVGID_21_" class="st8">
							<use xlink:href="#SVGID_11_"  style="overflow:visible;"/>
						</clipPath>
						<clipPath id="SVGID_22_" class="st9">
							<use xlink:href="#SVGID_12_"  style="overflow:visible;"/>
						</clipPath>
						<path class="st10" d="M15.3,5.7v-5c1,0,7.8,0.2,12.2,5.7c2.4,3,2.9,6.3,3.1,7.8c0,1.5-0.1,5.1-2.5,8.6
							c-4.3,6.2-12,6.4-12.7,6.4v-5c4.2,0,7.8-2.3,9.4-5.7c0.1-0.3,0.7-1.7,0.8-3.6c0-0.9-0.1-2-0.5-3.1C23.5,8.2,19.7,5.8,15.3,5.7
							"/>
						<path class="st10" d="M15.5,5.7v-5c-1,0-7.8,0.2-12.1,5.7c-2.4,3-2.9,6.3-3.1,7.8c0,1.5,0.1,5.1,2.5,8.6
							c4.3,6.2,11.9,6.4,12.7,6.4v-5c-4.2,0-7.8-2.3-9.4-5.7c-0.2-0.5-1.5-3.4-0.3-6.6C7.2,8.2,11,5.8,15.5,5.7"/>
						<path class="st11" d="M33.5,5.7v-5c-1,0-7.8,0.2-12.1,5.7c-2.4,3-2.9,6.3-3.1,7.8c0,1.5,0.1,5.1,2.5,8.6
							c4.3,6.2,11.9,6.4,12.7,6.4v-5c-4.2,0-7.8-2.3-9.4-5.7c-0.2-0.5-1.5-3.4-0.3-6.6C25.2,8.2,29,5.8,33.5,5.7"/>
						<path class="st10" d="M15.3,5.7c0.5,0,6.1,0.1,8.8,4.5c1.1,1.8,1.5,3.7,1.5,4.7c1.7,0,3.2,0,5-0.1c-0.1-1.5-0.4-5.1-3-8.5
							c-4.4-5.6-11.4-5.7-12.3-5.7C15.3,0.6,15.3,5.7,15.3,5.7z"/>
						<path class="st10" d="M33.5,21.8v-5c1,0,7.8,0.2,12.2,5.7c2.4,3,2.9,6.3,3.1,7.8c0,1.5-0.1,5.1-2.5,8.6
							c-4.3,6.2-12,6.4-12.8,6.4v-5c4.2,0,7.8-2.3,9.4-5.7c0.2-0.5,1.5-3.4,0.3-6.6C41.8,24.4,38,21.9,33.5,21.8"/>
						<path class="st11" d="M33.4,5.7v-5c1,0,7.8,0.2,12.2,5.7c2.4,3,2.9,6.3,3.1,7.8c0,1.5-0.1,5.1-2.5,8.6
							c-4.3,6.2-12,6.4-12.8,6.4v-5c4.2,0,7.8-2.3,9.4-5.7c0.2-0.5,1.5-3.4,0.3-6.6C41.7,8.2,37.8,5.8,33.4,5.7"/>
						<path class="st11" d="M15.2,21.8v-5c1,0,7.8,0.2,12.2,5.7c2.4,3,2.9,6.3,3.1,7.8c0,1.5-0.1,5.1-2.5,8.6
							c-4.3,6.2-12,6.4-12.8,6.4v-5c4.2,0,7.8-2.3,9.4-5.7c0.2-0.5,1.5-3.4,0.3-6.6C23.5,24.4,19.7,21.9,15.2,21.8"/>
						<path class="st11" d="M15.5,21.8v-5c-1,0-7.8,0.2-12.1,5.7c-2.4,3-2.9,6.3-3.1,7.8c0,1.5,0.1,5.1,2.5,8.6
							c4.3,6.2,11.9,6.4,12.7,6.4v-5c-4.2,0-7.8-2.3-9.4-5.7c-0.2-0.5-1.5-3.4-0.3-6.6C7.3,24.4,11.1,21.9,15.5,21.8"/>
						<path class="st10" d="M33.7,21.8v-5c-1,0-7.8,0.2-12.1,5.7c-2.4,3-2.9,6.3-3.1,7.8c0,1.5,0.1,5.1,2.5,8.6
							c4.3,6.2,11.9,6.4,12.7,6.4v-5c-4.2,0-7.8-2.3-9.4-5.7c-0.2-0.5-1.5-3.4-0.3-6.6C25.5,24.4,29.3,21.9,33.7,21.8"/>
						<path class="st11" d="M20.9,23.4c0.6,0.3,1.3,0.8,2,1.6c0.8,0.8,1.2,1.6,1.5,2.2c1.2-1.2,2.9-2.9,4.2-4.1
							c-0.6-0.3-1.5-0.7-2.4-1.6c-0.7-0.7-1.2-1.4-1.5-1.9c-0.6,0.4-1.4,0.9-2.1,1.6C21.8,21.9,21.4,22.8,20.9,23.4"/>
					</g>
				</g>
			</g>
		</g>
		<text transform="matrix(1 0 0 1 186.9723 21.6667)" class="st12 st13 st14"> </text>
		<g class="st15">
			<path class="st12" d="M63.7,9.2l-3.9,12.5h-3.9l-4-12.5h4l2,6.8c0.1,0.4,0.3,0.8,0.4,1.2l2.3-8H63.7z"/>
		</g>
		<g class="st15">
			<path class="st12" d="M73.5,21.7H70c-0.1-0.4-0.1-0.8-0.1-1.3c-0.7,1-1.7,1.5-3,1.5c-1.1,0-1.9-0.3-2.5-0.8
				c-0.5-0.6-0.8-1.2-0.8-1.9c0-1,0.4-1.8,1.3-2.4c0.9-0.6,2.5-1,4.7-1.1v-0.2c0-0.4-0.1-0.7-0.3-0.8s-0.5-0.2-0.8-0.2
				c-0.8,0-1.3,0.3-1.4,1l-3.3-0.3c0.5-1.9,2.1-2.9,4.8-2.9c0.7,0,1.4,0.1,2.1,0.2c0.6,0.1,1.1,0.4,1.5,0.7c0.4,0.3,0.6,0.7,0.7,1
				c0.1,0.4,0.2,1,0.2,2v3.7C73.2,20.6,73.3,21.2,73.5,21.7z M69.7,17.3c-1.6,0.2-2.3,0.7-2.3,1.5c0,0.6,0.3,0.8,0.9,0.8
				c0.4,0,0.7-0.1,1-0.3c0.3-0.2,0.4-0.7,0.4-1.5V17.3z"/>
			<path class="st12" d="M78.7,9.2v12.5h-3.6V9.2H78.7z"/>
			<path class="st12" d="M84.2,9.2v12.5h-3.6V9.2H84.2z"/>
			<path class="st12" d="M92.2,18.3l3.4,0.2c-0.2,0.9-0.7,1.7-1.5,2.3c-0.8,0.6-1.9,1-3.3,1c-1.6,0-2.8-0.5-3.7-1.4
				c-0.9-0.9-1.4-2-1.4-3.4c0-1.4,0.5-2.6,1.4-3.5c0.9-1,2.1-1.4,3.7-1.4c1.5,0,2.7,0.5,3.6,1.4c0.9,0.9,1.4,2.1,1.4,3.7
				c0,0.1,0,0.3,0,0.5h-6.2c0,0.6,0.1,1,0.3,1.3c0.2,0.3,0.6,0.4,1.1,0.4C91.6,19.5,92.1,19.1,92.2,18.3z M92,15.9
				c0-0.6-0.1-1-0.4-1.3s-0.6-0.3-0.9-0.3c-0.9,0-1.3,0.5-1.3,1.6H92z"/>
			<path class="st12" d="M105.4,12.4l-3.6,10.1c-0.3,0.8-0.7,1.4-1.2,1.8c-0.5,0.4-1.3,0.6-2.4,0.6c-0.3,0-0.9,0-1.8-0.1v-2.6
				c0.5,0.1,0.9,0.1,1.3,0.1c1,0,1.6-0.2,1.6-0.7c0-0.2-0.1-0.4-0.2-0.6l-3.3-8.6h3.9l1.5,5l1.6-5H105.4z"/>
			<path class="st12" d="M115,17.1v4.5h-3.9V9.2h5.3c1.3,0,2.3,0.2,3,0.5c0.7,0.3,1.2,0.8,1.6,1.4c0.4,0.6,0.6,1.3,0.6,2.1
				c0,1.2-0.4,2.1-1.2,2.9s-1.9,1.1-3.3,1.1H115z M114.9,14.5h1.3c1.1,0,1.7-0.4,1.7-1.2c0-0.8-0.5-1.2-1.6-1.2h-1.4V14.5z"/>
			<path class="st12" d="M126.5,21.7H123v-9.3h3v1.9c0.3-1.4,1.2-2.1,2.4-2.1c0.1,0,0.3,0,0.5,0v3.2c-0.3-0.1-0.5-0.1-0.7-0.1
				c-1.2,0-1.8,0.7-1.8,2V21.7z"/>
			<path class="st12" d="M134.6,21.9c-1.5,0-2.8-0.5-3.7-1.4c-0.9-1-1.4-2.1-1.4-3.4c0-1.4,0.5-2.5,1.4-3.5c0.9-0.9,2.2-1.4,3.7-1.4
				c1.5,0,2.8,0.5,3.7,1.4c0.9,0.9,1.4,2.1,1.4,3.4c0,1.4-0.5,2.5-1.4,3.5C137.4,21.4,136.2,21.9,134.6,21.9z M134.7,19.6
				c0.6,0,0.9-0.3,1-0.9c0.1-0.6,0.2-1.2,0.2-1.8c0-0.9-0.1-1.5-0.3-1.9c-0.2-0.4-0.5-0.6-0.9-0.6c-0.4,0-0.7,0.2-0.9,0.6
				s-0.3,1-0.3,2c0,1.1,0.1,1.8,0.3,2.1S134.3,19.6,134.7,19.6z"/>
			<path class="st12" d="M145.1,14.7v6.9h-3.4v-6.9h-1.4v-2.4h1.4c0-0.8,0-1.3,0.1-1.7c0.1-0.4,0.2-0.7,0.5-1.1s0.6-0.6,1.1-0.8
				s1.1-0.3,1.8-0.3c0.8,0,1.6,0.1,2.3,0.2v2.4c-0.6-0.1-1-0.1-1.3-0.1c-0.3,0-0.5,0.1-0.8,0.2c-0.2,0.1-0.4,0.4-0.4,0.8v0.3h2.4
				v2.4H145.1z"/>
			<path class="st12" d="M154.6,18.3l3.4,0.2c-0.2,0.9-0.7,1.7-1.5,2.3c-0.8,0.6-1.9,1-3.3,1c-1.6,0-2.8-0.5-3.7-1.4
				c-0.9-0.9-1.4-2-1.4-3.4c0-1.4,0.5-2.6,1.4-3.5c0.9-1,2.1-1.4,3.7-1.4c1.5,0,2.7,0.5,3.6,1.4c0.9,0.9,1.4,2.1,1.4,3.7
				c0,0.1,0,0.3,0,0.5h-6.2c0,0.6,0.1,1,0.3,1.3c0.2,0.3,0.6,0.4,1.1,0.4C154,19.5,154.4,19.1,154.6,18.3z M154.3,15.9
				c0-0.6-0.1-1-0.4-1.3c-0.2-0.2-0.5-0.3-0.9-0.3c-0.9,0-1.3,0.5-1.3,1.6H154.3z"/>
			<path class="st12" d="M158.6,19l2.9-0.4c0.2,0.7,0.8,1,2,1c0.9,0,1.4-0.2,1.4-0.5c0-0.2-0.1-0.3-0.3-0.4
				c-0.2-0.1-0.6-0.2-1.3-0.3c-1.9-0.3-3.1-0.7-3.5-1.2c-0.5-0.6-0.7-1.2-0.7-1.9c0-0.9,0.4-1.7,1.2-2.3s1.8-0.9,3.1-0.9
				c2.3,0,3.7,0.8,4.3,2.4l-2.8,0.5c-0.3-0.5-0.8-0.8-1.6-0.8c-0.4,0-0.7,0.1-0.9,0.2c-0.2,0.1-0.3,0.2-0.3,0.3
				c0,0.3,0.3,0.5,0.9,0.6c1.5,0.2,2.6,0.3,3.1,0.5c0.5,0.2,1,0.5,1.4,1c0.4,0.5,0.6,1,0.6,1.7c0,1-0.4,1.8-1.3,2.4s-2,0.9-3.5,0.9
				C160.7,21.9,159.2,20.9,158.6,19z"/>
			<path class="st12" d="M168.5,19l2.9-0.4c0.2,0.7,0.8,1,2,1c0.9,0,1.4-0.2,1.4-0.5c0-0.2-0.1-0.3-0.3-0.4
				c-0.2-0.1-0.6-0.2-1.3-0.3c-1.9-0.3-3.1-0.7-3.5-1.2c-0.5-0.6-0.7-1.2-0.7-1.9c0-0.9,0.4-1.7,1.2-2.3s1.8-0.9,3.1-0.9
				c2.3,0,3.7,0.8,4.3,2.4l-2.8,0.5c-0.3-0.5-0.8-0.8-1.6-0.8c-0.4,0-0.7,0.1-0.9,0.2c-0.2,0.1-0.3,0.2-0.3,0.3
				c0,0.3,0.3,0.5,0.9,0.6c1.5,0.2,2.6,0.3,3.1,0.5c0.5,0.2,1,0.5,1.4,1c0.4,0.5,0.6,1,0.6,1.7c0,1-0.4,1.8-1.3,2.4s-2,0.9-3.5,0.9
				C170.6,21.9,169.1,20.9,168.5,19z"/>
			<path class="st12" d="M182.9,8.8v2.9h-3.6V8.8H182.9z M182.9,12.4v9.3h-3.6v-9.3H182.9z"/>
			<path class="st12" d="M189.3,21.9c-1.5,0-2.8-0.5-3.7-1.4c-0.9-1-1.4-2.1-1.4-3.4c0-1.4,0.5-2.5,1.4-3.5c0.9-0.9,2.2-1.4,3.7-1.4
				c1.5,0,2.8,0.5,3.7,1.4c0.9,0.9,1.4,2.1,1.4,3.4c0,1.4-0.5,2.5-1.4,3.5C192.1,21.4,190.9,21.9,189.3,21.9z M189.4,19.6
				c0.6,0,0.9-0.3,1-0.9c0.1-0.6,0.2-1.2,0.2-1.8c0-0.9-0.1-1.5-0.3-1.9c-0.2-0.4-0.5-0.6-0.9-0.6c-0.4,0-0.7,0.2-0.9,0.6
				c-0.2,0.4-0.3,1-0.3,2c0,1.1,0.1,1.8,0.3,2.1C188.7,19.5,189,19.6,189.4,19.6z"/>
			<path class="st12" d="M204.9,21.7h-3.6v-5.8c0-0.5-0.1-0.8-0.2-0.9c-0.1-0.1-0.3-0.2-0.6-0.2c-0.7,0-1,0.5-1,1.4v5.6h-3.6v-9.3
				h3.4v1.3c0.5-1,1.4-1.5,2.7-1.5c0.7,0,1.2,0.1,1.7,0.4c0.5,0.3,0.8,0.6,1,1c0.2,0.4,0.3,1.1,0.3,2.1V21.7z"/>
			<path class="st12" d="M216.2,21.7h-3.5c-0.1-0.4-0.1-0.8-0.1-1.3c-0.7,1-1.7,1.5-3,1.5c-1.1,0-1.9-0.3-2.5-0.8
				c-0.5-0.6-0.8-1.2-0.8-1.9c0-1,0.4-1.8,1.3-2.4s2.5-1,4.7-1.1v-0.2c0-0.4-0.1-0.7-0.3-0.8s-0.5-0.2-0.8-0.2c-0.8,0-1.3,0.3-1.4,1
				l-3.3-0.3c0.5-1.9,2.1-2.9,4.8-2.9c0.7,0,1.4,0.1,2.1,0.2c0.6,0.1,1.1,0.4,1.5,0.7s0.6,0.7,0.7,1s0.2,1,0.2,2v3.7
				C215.9,20.6,216,21.2,216.2,21.7z M212.4,17.3c-1.6,0.2-2.3,0.7-2.3,1.5c0,0.6,0.3,0.8,0.9,0.8c0.4,0,0.7-0.1,1-0.3
				c0.3-0.2,0.4-0.7,0.4-1.5V17.3z"/>
			<path class="st12" d="M221.4,9.2v12.5h-3.6V9.2H221.4z"/>
			<path class="st12" d="M222.5,19l2.9-0.4c0.2,0.7,0.8,1,2,1c0.9,0,1.4-0.2,1.4-0.5c0-0.2-0.1-0.3-0.3-0.4
				c-0.2-0.1-0.6-0.2-1.3-0.3c-1.9-0.3-3.1-0.7-3.5-1.2c-0.5-0.6-0.7-1.2-0.7-1.9c0-0.9,0.4-1.7,1.2-2.3s1.8-0.9,3.1-0.9
				c2.3,0,3.7,0.8,4.3,2.4l-2.8,0.5c-0.3-0.5-0.8-0.8-1.6-0.8c-0.4,0-0.7,0.1-0.9,0.2c-0.2,0.1-0.3,0.2-0.3,0.3
				c0,0.3,0.3,0.5,0.9,0.6c1.5,0.2,2.6,0.3,3.1,0.5c0.5,0.2,1,0.5,1.4,1c0.4,0.5,0.6,1,0.6,1.7c0,1-0.4,1.8-1.3,2.4s-2,0.9-3.5,0.9
				C224.7,21.9,223.1,20.9,222.5,19z"/>
		</g>
		<g class="st15">
			<path class="st12" d="M59.8,33.9l3.5,0.2c-0.2,1.5-0.7,2.7-1.7,3.5s-2.1,1.2-3.6,1.2c-1.7,0-3.1-0.6-4.1-1.7
				c-1-1.1-1.6-2.7-1.6-4.6c0-2,0.5-3.5,1.5-4.7c1-1.2,2.4-1.8,4.1-1.8c1.6,0,2.9,0.5,3.8,1.4c0.9,0.9,1.4,2.1,1.5,3.6l-3.6,0.2
				c0-0.8-0.2-1.4-0.5-1.8s-0.7-0.6-1.1-0.6c-1.2,0-1.8,1.2-1.8,3.6c0,1.4,0.2,2.3,0.5,2.8c0.3,0.5,0.8,0.7,1.3,0.7
				C59.1,36,59.7,35.3,59.8,33.9z"/>
			<path class="st12" d="M69.1,38.9c-1.5,0-2.8-0.5-3.7-1.4c-0.9-1-1.4-2.1-1.4-3.4c0-1.4,0.5-2.5,1.4-3.5c0.9-0.9,2.2-1.4,3.7-1.4
				c1.5,0,2.8,0.5,3.7,1.4c0.9,0.9,1.4,2.1,1.4,3.4c0,1.4-0.5,2.5-1.4,3.5C71.9,38.4,70.6,38.9,69.1,38.9z M69.1,36.6
				c0.6,0,0.9-0.3,1-0.9c0.1-0.6,0.2-1.2,0.2-1.8c0-0.9-0.1-1.5-0.3-1.9c-0.2-0.4-0.5-0.6-0.9-0.6c-0.4,0-0.7,0.2-0.9,0.6
				s-0.3,1-0.3,2c0,1.1,0.1,1.8,0.3,2.1S68.7,36.6,69.1,36.6z"/>
			<path class="st12" d="M89.7,38.7h-3.5v-5.8c0-0.4-0.1-0.7-0.2-0.8c-0.1-0.2-0.3-0.2-0.6-0.2c-0.7,0-1,0.5-1,1.5v5.4h-3.5v-5.8
				c0-0.7-0.3-1.1-0.9-1.1c-0.6,0-0.9,0.4-0.9,1.1v5.8h-3.5v-9.3h3.3v1.3c0.6-1,1.4-1.4,2.5-1.4c1.2,0,2.1,0.5,2.6,1.4
				c0.6-1,1.5-1.4,2.8-1.4c0.6,0,1.1,0.1,1.6,0.4c0.5,0.3,0.8,0.6,1,1c0.2,0.4,0.3,1,0.3,1.8V38.7z"/>
			<path class="st12" d="M105.7,38.7h-3.5v-5.8c0-0.4-0.1-0.7-0.2-0.8c-0.1-0.2-0.3-0.2-0.6-0.2c-0.7,0-1,0.5-1,1.5v5.4h-3.5v-5.8
				c0-0.7-0.3-1.1-0.9-1.1c-0.6,0-0.9,0.4-0.9,1.1v5.8h-3.5v-9.3h3.3v1.3c0.6-1,1.4-1.4,2.5-1.4c1.2,0,2.1,0.5,2.6,1.4
				c0.6-1,1.5-1.4,2.8-1.4c0.6,0,1.1,0.1,1.6,0.4c0.5,0.3,0.8,0.6,1,1c0.2,0.4,0.3,1,0.3,1.8V38.7z"/>
			<path class="st12" d="M116.7,29.4v9.3h-3.4v-1.5c-0.5,1.1-1.5,1.7-2.9,1.7c-0.9,0-1.6-0.2-2-0.7c-0.5-0.5-0.7-1.2-0.7-2.1v-6.6
				h3.6v5.8c0,0.4,0,0.6,0.2,0.8c0.1,0.1,0.3,0.2,0.6,0.2c0.3,0,0.6-0.1,0.8-0.3c0.2-0.2,0.3-0.5,0.3-0.9v-5.6H116.7z"/>
			<path class="st12" d="M127.6,38.7H124v-5.8c0-0.5-0.1-0.8-0.2-0.9c-0.1-0.1-0.3-0.2-0.6-0.2c-0.7,0-1,0.5-1,1.4v5.6h-3.6v-9.3
				h3.4v1.3c0.5-1,1.4-1.5,2.7-1.5c0.7,0,1.2,0.1,1.7,0.4s0.8,0.6,1,1c0.2,0.4,0.3,1.1,0.3,2.1V38.7z"/>
			<path class="st12" d="M133.2,25.8v2.9h-3.6v-2.9H133.2z M133.2,29.4v9.3h-3.6v-9.3H133.2z"/>
			<path class="st12" d="M140.8,29.4v2.4H139v3.4c0,0.5,0.1,0.7,0.3,0.8c0.2,0.1,0.4,0.1,0.5,0.1c0.3,0,0.6-0.1,1-0.2v2.6
				c-0.7,0.1-1.4,0.2-2.1,0.2c-1.1,0-1.9-0.2-2.5-0.7s-0.8-1.2-0.8-2.3l0-1.1v-2.9h-1.4v-2.4h1.4l0.1-3l3.5-0.1v3.1H140.8z"/>
			<path class="st12" d="M150.7,29.4l-3.6,10.1c-0.3,0.8-0.7,1.4-1.2,1.8c-0.5,0.4-1.3,0.6-2.4,0.6c-0.3,0-0.9,0-1.8-0.1v-2.6
				c0.5,0.1,0.9,0.1,1.3,0.1c1,0,1.6-0.2,1.6-0.7c0-0.2-0.1-0.4-0.2-0.6l-3.3-8.6h3.9l1.5,5l1.6-5H150.7z"/>
			<path class="st12" d="M167,26.2v12.5h-3.8v-4.8h-2.9v4.8h-3.8V26.2h3.8v4.6h2.9v-4.6H167z"/>
			<path class="st12" d="M175.2,35.3l3.4,0.2c-0.2,0.9-0.7,1.7-1.5,2.3c-0.8,0.6-1.9,1-3.3,1c-1.6,0-2.8-0.5-3.7-1.4
				c-0.9-0.9-1.4-2-1.4-3.4c0-1.4,0.5-2.6,1.4-3.5c0.9-1,2.1-1.4,3.7-1.4c1.5,0,2.7,0.5,3.6,1.4c0.9,0.9,1.4,2.1,1.4,3.7
				c0,0.1,0,0.3,0,0.5h-6.2c0,0.6,0.1,1,0.3,1.3c0.2,0.3,0.6,0.4,1.1,0.4C174.6,36.5,175,36.1,175.2,35.3z M174.9,32.9
				c0-0.6-0.1-1-0.4-1.3c-0.2-0.2-0.5-0.3-0.9-0.3c-0.9,0-1.3,0.5-1.3,1.6H174.9z"/>
			<path class="st12" d="M189.4,38.7h-3.5c-0.1-0.4-0.1-0.8-0.1-1.3c-0.7,1-1.7,1.5-3,1.5c-1.1,0-1.9-0.3-2.5-0.8
				c-0.5-0.6-0.8-1.2-0.8-1.9c0-1,0.4-1.8,1.3-2.4s2.5-1,4.7-1.1v-0.2c0-0.4-0.1-0.7-0.3-0.8s-0.5-0.2-0.8-0.2c-0.8,0-1.3,0.3-1.4,1
				l-3.3-0.3c0.5-1.9,2.1-2.9,4.8-2.9c0.7,0,1.4,0.1,2.1,0.2c0.6,0.1,1.1,0.4,1.5,0.7s0.6,0.7,0.7,1s0.2,1,0.2,2v3.7
				C189.1,37.6,189.2,38.2,189.4,38.7z M185.6,34.3c-1.6,0.2-2.3,0.7-2.3,1.5c0,0.6,0.3,0.8,0.9,0.8c0.4,0,0.7-0.1,1-0.3
				c0.3-0.2,0.4-0.7,0.4-1.5V34.3z"/>
			<path class="st12" d="M194.5,26.2v12.5H191V26.2H194.5z"/>
			<path class="st12" d="M202.2,29.4v2.4h-1.9v3.4c0,0.5,0.1,0.7,0.3,0.8c0.2,0.1,0.4,0.1,0.5,0.1c0.3,0,0.6-0.1,1-0.2v2.6
				c-0.7,0.1-1.4,0.2-2.1,0.2c-1.1,0-1.9-0.2-2.5-0.7s-0.8-1.2-0.8-2.3l0-1.1v-2.9h-1.4v-2.4h1.4l0.1-3l3.5-0.1v3.1H202.2z"/>
			<path class="st12" d="M212.5,38.7h-3.6v-5.6c0-0.5-0.1-0.9-0.2-1.1c-0.1-0.2-0.3-0.3-0.6-0.3c-0.2,0-0.5,0.1-0.6,0.2
				c-0.2,0.1-0.3,0.3-0.3,0.5c0,0.2,0,0.5,0,1v5.2h-3.6V26.2h3.6v4.3c0.7-0.9,1.5-1.3,2.6-1.3c0.5,0,1,0.1,1.4,0.3
				c0.4,0.2,0.7,0.4,0.9,0.7c0.2,0.3,0.4,0.6,0.4,0.8c0.1,0.3,0.1,0.8,0.1,1.6V38.7z"/>
			<path class="st12" d="M226.1,33.9l3.5,0.2c-0.2,1.5-0.7,2.7-1.7,3.5c-1,0.8-2.1,1.2-3.6,1.2c-1.7,0-3.1-0.6-4.1-1.7
				c-1-1.1-1.6-2.7-1.6-4.6c0-2,0.5-3.5,1.5-4.7c1-1.2,2.4-1.8,4.1-1.8c1.6,0,2.9,0.5,3.8,1.4c0.9,0.9,1.4,2.1,1.5,3.6l-3.6,0.2
				c0-0.8-0.2-1.4-0.5-1.8s-0.7-0.6-1.1-0.6c-1.2,0-1.8,1.2-1.8,3.6c0,1.4,0.2,2.3,0.5,2.8c0.3,0.5,0.8,0.7,1.3,0.7
				C225.4,36,226,35.3,226.1,33.9z"/>
			<path class="st12" d="M237,35.3l3.4,0.2c-0.2,0.9-0.7,1.7-1.5,2.3c-0.8,0.6-1.9,1-3.3,1c-1.6,0-2.8-0.5-3.7-1.4
				c-0.9-0.9-1.4-2-1.4-3.4c0-1.4,0.5-2.6,1.4-3.5c0.9-1,2.1-1.4,3.7-1.4c1.5,0,2.7,0.5,3.6,1.4c0.9,0.9,1.4,2.1,1.4,3.7
				c0,0.1,0,0.3,0,0.5h-6.2c0,0.6,0.1,1,0.3,1.3c0.2,0.3,0.6,0.4,1.1,0.4C236.4,36.5,236.9,36.1,237,35.3z M236.8,32.9
				c0-0.6-0.1-1-0.4-1.3c-0.2-0.2-0.5-0.3-0.9-0.3c-0.9,0-1.3,0.5-1.3,1.6H236.8z"/>
			<path class="st12" d="M250.9,38.7h-3.6v-5.8c0-0.5-0.1-0.8-0.2-0.9c-0.1-0.1-0.3-0.2-0.6-0.2c-0.7,0-1,0.5-1,1.4v5.6h-3.6v-9.3
				h3.4v1.3c0.5-1,1.4-1.5,2.7-1.5c0.7,0,1.2,0.1,1.7,0.4c0.5,0.3,0.8,0.6,1,1c0.2,0.4,0.3,1.1,0.3,2.1V38.7z"/>
			<path class="st12" d="M258.5,29.4v2.4h-1.9v3.4c0,0.5,0.1,0.7,0.3,0.8c0.2,0.1,0.4,0.1,0.5,0.1c0.3,0,0.6-0.1,1-0.2v2.6
				c-0.7,0.1-1.4,0.2-2.1,0.2c-1.1,0-1.9-0.2-2.5-0.7s-0.8-1.2-0.8-2.3l0-1.1v-2.9h-1.4v-2.4h1.4l0.1-3l3.5-0.1v3.1H258.5z"/>
			<path class="st12" d="M265.9,35.3l3.4,0.2c-0.2,0.9-0.7,1.7-1.5,2.3c-0.8,0.6-1.9,1-3.3,1c-1.6,0-2.8-0.5-3.7-1.4
				c-0.9-0.9-1.4-2-1.4-3.4c0-1.4,0.5-2.6,1.4-3.5c0.9-1,2.1-1.4,3.7-1.4c1.5,0,2.7,0.5,3.6,1.4c0.9,0.9,1.4,2.1,1.4,3.7
				c0,0.1,0,0.3,0,0.5h-6.2c0,0.6,0.1,1,0.3,1.3c0.2,0.3,0.6,0.4,1.1,0.4C265.3,36.5,265.8,36.1,265.9,35.3z M265.6,32.9
				c0-0.6-0.1-1-0.4-1.3c-0.2-0.2-0.5-0.3-0.9-0.3c-0.9,0-1.3,0.5-1.3,1.6H265.6z"/>
			<path class="st12" d="M274.2,38.7h-3.5v-9.3h3v1.9c0.3-1.4,1.2-2.1,2.4-2.1c0.1,0,0.3,0,0.5,0v3.2c-0.3-0.1-0.5-0.1-0.7-0.1
				c-1.2,0-1.8,0.7-1.8,2V38.7z"/>
		</g>
	</g>
</g>
</svg>
