<?xml version="1.0" encoding="utf-8"?>
<!-- Generator: Adobe Illustrator 21.1.0, SVG Export Plug-In . SVG Version: 6.00 Build 0)  -->
<svg version="1.1" id="Layer_1" xmlns="http://www.w3.org/2000/svg" xmlns:xlink="http://www.w3.org/1999/xlink" x="0px" y="0px"
	 viewBox="0 0 288 72" style="enable-background:new 0 0 288 72;" xml:space="preserve">
<style type="text/css">
	.st0{fill:#231F20;}
	.st1{clip-path:url(#SVGID_2_);fill:none;stroke:#70B244;stroke-width:5;}
	.st2{clip-path:url(#SVGID_4_);fill:none;stroke:#3A4F8D;stroke-width:5;}
	.st3{clip-path:url(#SVGID_4_);fill:none;stroke:#70B244;stroke-width:5;}
	.st4{fill:none;stroke:#70B244;stroke-width:5;}
	.st5{fill:none;stroke:#3A4E8C;stroke-width:4;}
</style>
<g>
	<g>
		<path class="st0" d="M117.6,52c0.8,0,1.5,0.2,2,0.6c0.6,0.5,1,1.2,1,2.1c0,0.8-0.3,1.5-1,2c-0.5,0.4-1.2,0.6-2,0.6s-1.5-0.2-2-0.6
			c-0.7-0.5-1-1.2-1-2c0-0.9,0.3-1.6,1-2C116.1,52.2,116.8,52,117.6,52z M117.6,52.9c-0.5,0-1,0.2-1.3,0.5c-0.3,0.3-0.5,0.7-0.5,1.2
			c0,0.5,0.2,0.9,0.5,1.2c0.3,0.3,0.8,0.5,1.3,0.5c0.5,0,1-0.2,1.3-0.5c0.3-0.3,0.5-0.7,0.5-1.2c0-0.5-0.2-0.9-0.5-1.2
			C118.6,53.1,118.1,52.9,117.6,52.9z"/>
		<path class="st0" d="M122.9,55v1.7c0,0.1,0,0.2,0.1,0.2c0,0,0.1,0.1,0.2,0.1v0.1h-1.8v-0.1c0.1,0,0.2-0.1,0.2-0.1
			c0-0.1,0.1-0.1,0.1-0.2v-4.2c0-0.1,0-0.2-0.1-0.2c0,0-0.1-0.1-0.2-0.1v-0.1h4.6c0.1,0,0.2,0,0.2-0.1c0.1,0,0.1-0.1,0.1-0.2h0.1
			v1.5h-0.1c0-0.1-0.1-0.2-0.1-0.2c0,0-0.1-0.1-0.2-0.1h-3.1v1.1h1.9c0.1,0,0.2,0,0.2-0.1c0,0,0.1-0.1,0.1-0.2h0.1v1.5h-0.1
			c0-0.1-0.1-0.2-0.1-0.2c-0.1,0-0.1-0.1-0.2-0.1H122.9z"/>
		<path class="st0" d="M128.6,55v1.2h3.2c0.1,0,0.2,0,0.2-0.1c0,0,0.1-0.1,0.1-0.2h0.1v1.5h-0.1c0-0.1-0.1-0.2-0.1-0.2
			s-0.1-0.1-0.2-0.1h-4.8v-0.1c0.1,0,0.2-0.1,0.2-0.1c0-0.1,0.1-0.1,0.1-0.2v-4.2c0-0.1,0-0.2-0.1-0.2c0,0-0.1-0.1-0.2-0.1v-0.1h4.6
			c0.1,0,0.2,0,0.2-0.1s0.1-0.1,0.1-0.2h0.1v1.5H132c0-0.1-0.1-0.2-0.1-0.2s-0.1-0.1-0.2-0.1h-3.1v1.1h1.9c0.1,0,0.2,0,0.2-0.1
			c0,0,0.1-0.1,0.1-0.2h0.1v1.5h-0.1c0-0.1-0.1-0.2-0.1-0.2c-0.1,0-0.1-0.1-0.2-0.1H128.6z"/>
		<path class="st0" d="M138,52.5l-0.6,1.2l-0.1-0.1c0-0.1,0-0.2-0.1-0.2c-0.2-0.2-0.4-0.3-0.8-0.4c-0.3-0.1-0.7-0.2-1-0.2
			c-0.3,0-0.6,0-0.8,0.1c-0.3,0.1-0.5,0.3-0.5,0.5c0,0.1,0.1,0.3,0.2,0.3c0.2,0.1,0.5,0.1,0.9,0.1l0.7,0.1c0.6,0,1.1,0.2,1.4,0.4
			c0.2,0.1,0.3,0.3,0.5,0.4c0.1,0.2,0.2,0.5,0.2,0.8c0,0.5-0.2,0.9-0.7,1.2c-0.4,0.3-1.1,0.4-1.8,0.4c-0.8,0-1.5-0.2-2.2-0.5
			c0,0-0.1,0-0.1,0c-0.1,0-0.1,0-0.2,0.1l-0.1,0l0.5-1.3l0.1,0c0,0,0,0,0,0c0,0.1,0,0.1,0.1,0.2c0.2,0.1,0.4,0.3,0.8,0.3
			c0.4,0.1,0.7,0.1,1.1,0.1c0.3,0,0.6,0,0.9-0.1c0.3-0.1,0.5-0.3,0.5-0.5c0-0.2-0.1-0.3-0.3-0.4c-0.1,0-0.4-0.1-0.8-0.1l-0.7-0.1
			c-0.4,0-0.7-0.1-0.9-0.1c-0.2,0-0.4-0.1-0.5-0.2c-0.2-0.1-0.3-0.3-0.5-0.5c-0.1-0.2-0.2-0.4-0.2-0.7c0-0.6,0.2-1,0.7-1.3
			c0.4-0.3,1-0.4,1.6-0.4c0.3,0,0.7,0,1,0.1c0.3,0.1,0.7,0.2,1.1,0.4c0.1,0.1,0.2,0.1,0.3,0.1s0.1,0,0.2-0.1L138,52.5z"/>
		<path class="st0" d="M143.7,52.5l-0.6,1.2l-0.1-0.1c0-0.1,0-0.2-0.1-0.2c-0.2-0.2-0.4-0.3-0.8-0.4c-0.3-0.1-0.7-0.2-1-0.2
			c-0.3,0-0.6,0-0.8,0.1c-0.3,0.1-0.5,0.3-0.5,0.5c0,0.1,0.1,0.3,0.2,0.3c0.2,0.1,0.5,0.1,0.9,0.1l0.7,0.1c0.6,0,1.1,0.2,1.4,0.4
			c0.2,0.1,0.3,0.3,0.5,0.4c0.1,0.2,0.2,0.5,0.2,0.8c0,0.5-0.2,0.9-0.7,1.2c-0.4,0.3-1.1,0.4-1.8,0.4c-0.8,0-1.5-0.2-2.2-0.5
			c0,0-0.1,0-0.1,0c-0.1,0-0.1,0-0.2,0.1l-0.1,0l0.5-1.3l0.1,0c0,0,0,0,0,0c0,0.1,0,0.1,0.1,0.2c0.2,0.1,0.4,0.3,0.8,0.3
			c0.4,0.1,0.7,0.1,1.1,0.1c0.3,0,0.6,0,0.9-0.1c0.3-0.1,0.5-0.3,0.5-0.5c0-0.2-0.1-0.3-0.3-0.4c-0.1,0-0.4-0.1-0.8-0.1l-0.7-0.1
			c-0.4,0-0.7-0.1-0.9-0.1c-0.2,0-0.4-0.1-0.5-0.2c-0.2-0.1-0.3-0.3-0.5-0.5s-0.2-0.4-0.2-0.7c0-0.6,0.2-1,0.7-1.3
			c0.4-0.3,1-0.4,1.6-0.4c0.4,0,0.7,0,1,0.1c0.3,0.1,0.7,0.2,1.1,0.4c0.1,0.1,0.2,0.1,0.3,0.1s0.1,0,0.2-0.1L143.7,52.5z"/>
		<path class="st0" d="M146.1,52.5v4.2c0,0.1,0,0.2,0.1,0.2c0,0,0.1,0.1,0.2,0.1v0.1h-1.8v-0.1c0.1,0,0.2-0.1,0.2-0.1
			s0.1-0.1,0.1-0.2v-4.2c0-0.1,0-0.2-0.1-0.2c0,0-0.1-0.1-0.2-0.1v-0.1h1.8v0.1c-0.1,0-0.2,0.1-0.2,0.1
			C146.1,52.4,146.1,52.4,146.1,52.5z"/>
		<path class="st0" d="M150.2,52c0.8,0,1.5,0.2,2,0.6c0.6,0.5,1,1.2,1,2.1c0,0.8-0.3,1.5-1,2c-0.5,0.4-1.2,0.6-2,0.6
			c-0.8,0-1.5-0.2-2-0.6c-0.7-0.5-1-1.2-1-2c0-0.9,0.3-1.6,1-2C148.7,52.2,149.4,52,150.2,52z M150.2,52.9c-0.5,0-1,0.2-1.3,0.5
			c-0.3,0.3-0.5,0.7-0.5,1.2c0,0.5,0.2,0.9,0.5,1.2c0.3,0.3,0.8,0.5,1.3,0.5c0.5,0,1-0.2,1.3-0.5c0.3-0.3,0.5-0.7,0.5-1.2
			c0-0.5-0.2-0.9-0.5-1.2C151.1,53.1,150.7,52.9,150.2,52.9z"/>
		<path class="st0" d="M155.3,53.8v2.9c0,0.1,0,0.2,0.1,0.2s0.1,0.1,0.2,0.1v0.1h-1.7v-0.1c0.1,0,0.2-0.1,0.2-0.1s0.1-0.1,0.1-0.2
			v-4.2c0-0.1,0-0.2-0.1-0.2c0,0-0.1-0.1-0.2-0.1v-0.1h2v0.1c-0.1,0-0.2,0.1-0.2,0.2c0,0.1,0,0.2,0.1,0.3l2.7,2.7v-2.8
			c0-0.1,0-0.2-0.1-0.2c0,0-0.1-0.1-0.2-0.1v-0.1h1.7v0.1c-0.1,0-0.2,0.1-0.2,0.1c0,0-0.1,0.1-0.1,0.2v4.2c0,0.1,0,0.2,0.1,0.2
			c0,0,0.1,0.1,0.2,0.1v0.1h-1.8v-0.1c0.1,0,0.2-0.1,0.2-0.2c0,0,0-0.1-0.1-0.1c0,0-0.1-0.1-0.3-0.3L155.3,53.8z"/>
		<path class="st0" d="M164.8,55.9h-2.4l-0.3,0.6c-0.1,0.1-0.1,0.2-0.1,0.3c0,0.1,0.1,0.2,0.3,0.3v0.1h-1.9v-0.1
			c0.1,0,0.2-0.1,0.3-0.1c0.1-0.1,0.1-0.2,0.2-0.3l1.9-3.8c0.1-0.1,0.1-0.3,0.1-0.4c0-0.1-0.1-0.2-0.3-0.3v-0.1h2v0.1
			c-0.2,0.1-0.3,0.2-0.3,0.3c0,0.1,0,0.2,0.1,0.4l1.9,3.7c0.1,0.2,0.2,0.3,0.3,0.4c0.1,0.1,0.2,0.1,0.3,0.1v0.1h-2.1v-0.1
			c0.2,0,0.3-0.1,0.3-0.3c0-0.1,0-0.2-0.1-0.3L164.8,55.9z M164.4,55.2l-0.8-1.6l-0.8,1.6H164.4z"/>
		<path class="st0" d="M168.9,56.3h2.9c0.1,0,0.2,0,0.2-0.1c0,0,0.1-0.1,0.1-0.2h0.1v1.5h-0.1c0-0.1-0.1-0.2-0.1-0.2
			c0,0-0.1-0.1-0.2-0.1h-4.4v-0.1c0.1,0,0.2-0.1,0.2-0.1s0.1-0.1,0.1-0.2v-4.2c0-0.1,0-0.2-0.1-0.2c0,0-0.1-0.1-0.2-0.1v-0.1h1.8
			v0.1c-0.1,0-0.2,0.1-0.2,0.1c0,0-0.1,0.1-0.1,0.2V56.3z"/>
		<path class="st0" d="M177.7,52.5l-0.6,1.2l-0.1-0.1c0-0.1,0-0.2-0.1-0.2c-0.2-0.2-0.4-0.3-0.8-0.4c-0.3-0.1-0.7-0.2-1-0.2
			c-0.3,0-0.6,0-0.8,0.1c-0.3,0.1-0.5,0.3-0.5,0.5c0,0.1,0.1,0.3,0.2,0.3c0.2,0.1,0.5,0.1,0.9,0.1l0.7,0.1c0.6,0,1.1,0.2,1.4,0.4
			c0.2,0.1,0.3,0.3,0.5,0.4c0.1,0.2,0.2,0.5,0.2,0.8c0,0.5-0.2,0.9-0.7,1.2c-0.4,0.3-1.1,0.4-1.8,0.4c-0.8,0-1.5-0.2-2.2-0.5
			c0,0-0.1,0-0.1,0c-0.1,0-0.1,0-0.2,0.1l-0.1,0l0.5-1.3l0.1,0c0,0,0,0,0,0c0,0.1,0,0.1,0.1,0.2c0.2,0.1,0.4,0.3,0.8,0.3
			c0.4,0.1,0.7,0.1,1.1,0.1c0.3,0,0.6,0,0.9-0.1c0.3-0.1,0.5-0.3,0.5-0.5c0-0.2-0.1-0.3-0.3-0.4c-0.1,0-0.4-0.1-0.8-0.1l-0.7-0.1
			c-0.4,0-0.7-0.1-0.9-0.1c-0.2,0-0.4-0.1-0.5-0.2c-0.2-0.1-0.3-0.3-0.5-0.5s-0.2-0.4-0.2-0.7c0-0.6,0.2-1,0.7-1.3
			c0.4-0.3,1-0.4,1.6-0.4c0.4,0,0.7,0,1,0.1c0.3,0.1,0.7,0.2,1.1,0.4c0.1,0.1,0.2,0.1,0.3,0.1s0.1,0,0.2-0.1L177.7,52.5z"/>
		<path class="st0" d="M182.4,52.5v4.2c0,0.1,0,0.2,0.1,0.2c0,0,0.1,0.1,0.2,0.1v0.1h-1.8v-0.1c0.1,0,0.2-0.1,0.2-0.1
			s0.1-0.1,0.1-0.2v-4.2c0-0.1,0-0.2-0.1-0.2c0,0-0.1-0.1-0.2-0.1v-0.1h1.8v0.1c-0.1,0-0.2,0.1-0.2,0.1
			C182.4,52.4,182.4,52.4,182.4,52.5z"/>
		<path class="st0" d="M184.9,53.8v2.9c0,0.1,0,0.2,0.1,0.2s0.1,0.1,0.2,0.1v0.1h-1.7v-0.1c0.1,0,0.2-0.1,0.2-0.1s0.1-0.1,0.1-0.2
			v-4.2c0-0.1,0-0.2-0.1-0.2c0,0-0.1-0.1-0.2-0.1v-0.1h2v0.1c-0.1,0-0.2,0.1-0.2,0.2c0,0.1,0,0.2,0.1,0.3l2.7,2.7v-2.8
			c0-0.1,0-0.2-0.1-0.2c0,0-0.1-0.1-0.2-0.1v-0.1h1.7v0.1c-0.1,0-0.2,0.1-0.2,0.1c0,0-0.1,0.1-0.1,0.2v4.2c0,0.1,0,0.2,0.1,0.2
			c0,0,0.1,0.1,0.2,0.1v0.1h-1.8v-0.1c0.1,0,0.2-0.1,0.2-0.2c0,0,0-0.1-0.1-0.1c0,0-0.1-0.1-0.3-0.3L184.9,53.8z"/>
		<path class="st0" d="M196.4,54.6v2.1c0,0.1,0,0.2,0.1,0.2c0,0,0.1,0.1,0.2,0.1v0.1h-2V57c0.1,0,0.2-0.1,0.2-0.1s0.1-0.1,0.1-0.2
			v-2.1l-2-2.8c-0.2-0.2-0.3-0.4-0.4-0.5c-0.1-0.1-0.2-0.1-0.4-0.2V51h2.5v0.1c-0.2,0-0.3,0.1-0.3,0.3c0,0.1,0.1,0.2,0.2,0.4
			l1.1,1.7l1.2-1.7c0.1-0.2,0.2-0.3,0.2-0.4c0-0.1,0-0.1-0.1-0.2c-0.1,0-0.1-0.1-0.2-0.1V51h2.4v0.1c-0.1,0-0.3,0.1-0.4,0.2
			c-0.1,0.1-0.2,0.2-0.4,0.5L196.4,54.6z"/>
	</g>
	<g>
		<path class="st0" d="M201.6,52c0.8,0,1.5,0.2,2,0.6c0.6,0.5,1,1.2,1,2.1c0,0.8-0.3,1.5-1,2c-0.5,0.4-1.2,0.6-2,0.6
			c-0.8,0-1.5-0.2-2-0.6c-0.7-0.5-1-1.2-1-2c0-0.9,0.3-1.6,1-2C200.1,52.2,200.8,52,201.6,52z M201.6,52.9c-0.5,0-1,0.2-1.3,0.5
			c-0.3,0.3-0.5,0.7-0.5,1.2c0,0.5,0.2,0.9,0.5,1.2c0.3,0.3,0.8,0.5,1.3,0.5c0.5,0,1-0.2,1.3-0.5c0.3-0.3,0.5-0.7,0.5-1.2
			c0-0.5-0.2-0.9-0.5-1.2C202.6,53.1,202.2,52.9,201.6,52.9z"/>
		<path class="st0" d="M210.8,52.5v2.7c0,0.6-0.1,1.1-0.4,1.4c-0.4,0.5-1.1,0.7-2.2,0.7c-0.7,0-1.3-0.1-1.8-0.3
			c-0.3-0.2-0.5-0.4-0.7-0.7c-0.1-0.3-0.2-0.6-0.2-1v-2.7c0-0.1,0-0.2-0.1-0.2c0,0-0.1-0.1-0.2-0.1v-0.1h1.8v0.1
			c-0.1,0-0.2,0.1-0.2,0.1s-0.1,0.1-0.1,0.2V55c0,0.3,0,0.5,0.1,0.7c0,0.2,0.1,0.3,0.3,0.4c0.3,0.2,0.6,0.3,1.1,0.3s0.8-0.1,1.1-0.3
			c0.1-0.1,0.2-0.2,0.3-0.4c0-0.2,0.1-0.4,0.1-0.7v-2.5c0-0.1,0-0.2-0.1-0.2c0,0-0.1-0.1-0.2-0.1v-0.1h1.7v0.1
			c-0.1,0-0.2,0.1-0.2,0.1S210.8,52.4,210.8,52.5z"/>
		<path class="st0" d="M213.4,55.1v1.6c0,0.1,0,0.2,0.1,0.2c0,0,0.1,0.1,0.2,0.1v0.1h-1.8v-0.1c0.1,0,0.2-0.1,0.2-0.1
			s0.1-0.1,0.1-0.2v-4.2c0-0.1,0-0.2-0.1-0.2c0,0-0.1-0.1-0.2-0.1v-0.1h3.3c0.4,0,0.8,0,1,0.1c0.2,0,0.4,0.1,0.6,0.2
			c0.4,0.2,0.6,0.6,0.6,1.2c0,0.4-0.1,0.7-0.3,1s-0.6,0.4-1.1,0.5l1,1.3c0.2,0.2,0.3,0.4,0.4,0.5c0.1,0.1,0.2,0.1,0.4,0.2v0.1h-2.1
			v-0.1c0.2,0,0.2-0.1,0.2-0.2c0-0.1,0-0.2-0.1-0.3l-1-1.5H213.4z M213.4,54.2h1.8c0.3,0,0.5,0,0.6-0.1c0.2-0.1,0.3-0.2,0.3-0.5
			c0-0.2-0.1-0.4-0.2-0.5c-0.1-0.1-0.4-0.1-0.7-0.1h-1.8V54.2z"/>
		<path class="st0" d="M226.8,55l0.9,1.3l-0.1,0.1c-0.1-0.1-0.2-0.1-0.2-0.1c-0.1,0-0.2,0.1-0.5,0.2c-0.5,0.3-1,0.5-1.3,0.6
			c-0.4,0.1-0.8,0.2-1.3,0.2c-1,0-1.8-0.2-2.4-0.7c-0.4-0.3-0.7-0.6-0.9-1c-0.2-0.5-0.4-1-0.4-1.5c0-0.8,0.2-1.4,0.7-2
			c0.7-0.8,1.7-1.3,3-1.3c0.5,0,0.9,0.1,1.3,0.2c0.4,0.1,0.8,0.3,1.3,0.6c0.3,0.1,0.4,0.2,0.5,0.2c0.1,0,0.1,0,0.2-0.1l0.1,0.1
			l-0.9,1.3l-0.1-0.1c0,0,0-0.1,0-0.1c0-0.1,0-0.2-0.1-0.2c-0.1-0.1-0.2-0.2-0.4-0.3c-0.5-0.3-1.1-0.5-1.7-0.5
			c-0.7,0-1.3,0.2-1.7,0.5c-0.5,0.4-0.7,1-0.7,1.6s0.2,1.2,0.7,1.6c0.4,0.4,1,0.5,1.7,0.5c0.6,0,1.2-0.2,1.7-0.5
			c0.2-0.1,0.3-0.2,0.4-0.3c0.1-0.1,0.1-0.2,0.1-0.2c0,0,0-0.1,0-0.1L226.8,55z"/>
		<path class="st0" d="M231.3,52c0.8,0,1.5,0.2,2,0.6c0.6,0.5,1,1.2,1,2.1c0,0.8-0.3,1.5-1,2c-0.5,0.4-1.2,0.6-2,0.6
			c-0.8,0-1.5-0.2-2-0.6c-0.7-0.5-1-1.2-1-2c0-0.9,0.3-1.6,1-2C229.9,52.2,230.5,52,231.3,52z M231.3,52.9c-0.5,0-1,0.2-1.3,0.5
			c-0.3,0.3-0.5,0.7-0.5,1.2c0,0.5,0.2,0.9,0.5,1.2c0.3,0.3,0.8,0.5,1.3,0.5c0.5,0,1-0.2,1.3-0.5c0.3-0.3,0.5-0.7,0.5-1.2
			c0-0.5-0.2-0.9-0.5-1.2C232.3,53.1,231.9,52.9,231.3,52.9z"/>
		<path class="st0" d="M238.4,57.2l-1.9-3.4v2.9c0,0.1,0,0.2,0.1,0.2c0,0,0.1,0.1,0.2,0.1v0.1h-1.7v-0.1c0.1,0,0.2-0.1,0.2-0.1
			s0.1-0.1,0.1-0.2v-4.2c0-0.1,0-0.2-0.1-0.2c0,0-0.1-0.1-0.2-0.1v-0.1h2.2v0.1c-0.1,0-0.2,0.1-0.2,0.3c0,0.1,0.1,0.3,0.2,0.5
			l1.3,2.3l1.3-2.3c0.1-0.2,0.2-0.4,0.2-0.5c0-0.1-0.1-0.2-0.2-0.2v-0.1h2.1v0.1c-0.1,0-0.2,0.1-0.2,0.1c0,0-0.1,0.1-0.1,0.2v4.2
			c0,0.1,0,0.2,0.1,0.2c0,0.1,0.1,0.1,0.2,0.1v0.1h-1.8v-0.1c0.1,0,0.2-0.1,0.2-0.1c0-0.1,0.1-0.1,0.1-0.2v-2.9L238.4,57.2z"/>
		<path class="st0" d="M246,57.2l-1.9-3.4v2.9c0,0.1,0,0.2,0.1,0.2c0,0,0.1,0.1,0.2,0.1v0.1h-1.7v-0.1c0.1,0,0.2-0.1,0.2-0.1
			s0.1-0.1,0.1-0.2v-4.2c0-0.1,0-0.2-0.1-0.2c0,0-0.1-0.1-0.2-0.1v-0.1h2.2v0.1c-0.1,0-0.2,0.1-0.2,0.3c0,0.1,0.1,0.3,0.2,0.5
			l1.3,2.3l1.3-2.3c0.1-0.2,0.2-0.4,0.2-0.5c0-0.1-0.1-0.2-0.2-0.2v-0.1h2.1v0.1c-0.1,0-0.2,0.1-0.2,0.1c0,0-0.1,0.1-0.1,0.2v4.2
			c0,0.1,0,0.2,0.1,0.2c0,0.1,0.1,0.1,0.2,0.1v0.1h-1.8v-0.1c0.1,0,0.2-0.1,0.2-0.1c0-0.1,0.1-0.1,0.1-0.2v-2.9L246,57.2z"/>
		<path class="st0" d="M255.8,52.5v2.7c0,0.6-0.1,1.1-0.4,1.4c-0.4,0.5-1.1,0.7-2.2,0.7c-0.7,0-1.3-0.1-1.8-0.3
			c-0.3-0.2-0.5-0.4-0.7-0.7c-0.1-0.3-0.2-0.6-0.2-1v-2.7c0-0.1,0-0.2-0.1-0.2c0,0-0.1-0.1-0.2-0.1v-0.1h1.8v0.1
			c-0.1,0-0.2,0.1-0.2,0.1s-0.1,0.1-0.1,0.2V55c0,0.3,0,0.5,0.1,0.7c0,0.2,0.1,0.3,0.3,0.4c0.3,0.2,0.6,0.3,1.1,0.3s0.8-0.1,1.1-0.3
			c0.1-0.1,0.2-0.2,0.3-0.4c0-0.2,0.1-0.4,0.1-0.7v-2.5c0-0.1,0-0.2-0.1-0.2c0,0-0.1-0.1-0.2-0.1v-0.1h1.7v0.1
			c-0.1,0-0.2,0.1-0.2,0.1S255.8,52.4,255.8,52.5z"/>
		<path class="st0" d="M258.3,53.8v2.9c0,0.1,0,0.2,0.1,0.2s0.1,0.1,0.2,0.1v0.1h-1.7v-0.1c0.1,0,0.2-0.1,0.2-0.1s0.1-0.1,0.1-0.2
			v-4.2c0-0.1,0-0.2-0.1-0.2c0,0-0.1-0.1-0.2-0.1v-0.1h2v0.1c-0.1,0-0.2,0.1-0.2,0.2c0,0.1,0,0.2,0.1,0.3l2.7,2.7v-2.8
			c0-0.1,0-0.2-0.1-0.2c0,0-0.1-0.1-0.2-0.1v-0.1h1.7v0.1c-0.1,0-0.2,0.1-0.2,0.1c0,0-0.1,0.1-0.1,0.2v4.2c0,0.1,0,0.2,0.1,0.2
			c0,0,0.1,0.1,0.2,0.1v0.1h-1.8v-0.1c0.1,0,0.2-0.1,0.2-0.2c0,0,0-0.1-0.1-0.1c0,0-0.1-0.1-0.3-0.3L258.3,53.8z"/>
		<path class="st0" d="M265.3,52.5v4.2c0,0.1,0,0.2,0.1,0.2c0,0,0.1,0.1,0.2,0.1v0.1h-1.8v-0.1c0.1,0,0.2-0.1,0.2-0.1
			s0.1-0.1,0.1-0.2v-4.2c0-0.1,0-0.2-0.1-0.2c0,0-0.1-0.1-0.2-0.1v-0.1h1.8v0.1c-0.1,0-0.2,0.1-0.2,0.1
			C265.4,52.4,265.3,52.4,265.3,52.5z"/>
		<path class="st0" d="M269.4,53v3.7c0,0.1,0,0.2,0.1,0.2c0,0,0.1,0.1,0.2,0.1v0.1h-1.8v-0.1c0.1,0,0.2-0.1,0.2-0.1s0.1-0.1,0.1-0.2
			V53h-1.5c-0.1,0-0.2,0-0.2,0.1c-0.1,0-0.1,0.1-0.1,0.2h-0.1v-1.5h0.1c0,0.1,0.1,0.2,0.1,0.2c0.1,0,0.1,0.1,0.2,0.1h4.2
			c0.1,0,0.2,0,0.2-0.1c0.1,0,0.1-0.1,0.1-0.2h0.1v1.5h-0.1c0-0.1-0.1-0.2-0.1-0.2c-0.1,0-0.1-0.1-0.2-0.1H269.4z"/>
		<path class="st0" d="M274.8,54.9v1.8c0,0.1,0,0.2,0.1,0.2c0,0.1,0.1,0.1,0.2,0.1v0.1h-1.8v-0.1c0.1,0,0.2-0.1,0.2-0.1
			c0-0.1,0.1-0.1,0.1-0.2v-1.8l-1.5-2.1c-0.2-0.2-0.3-0.4-0.4-0.5c-0.1-0.1-0.2-0.1-0.4-0.2v-0.1h2.3v0.1c-0.2,0.1-0.3,0.1-0.3,0.3
			c0,0.1,0.1,0.2,0.2,0.4l0.7,1l0.7-1c0.1-0.2,0.2-0.3,0.2-0.4c0-0.1-0.1-0.2-0.3-0.3l0-0.1h2.2v0.1c-0.1,0-0.3,0.1-0.4,0.2
			c-0.1,0.1-0.2,0.2-0.4,0.5L274.8,54.9z"/>
	</g>
	<g>
		<path class="st0" d="M277.7,55.8c0.2,0,0.4,0.1,0.5,0.2c0.1,0.1,0.2,0.3,0.2,0.5c0,0.2-0.1,0.4-0.2,0.5c-0.1,0.1-0.3,0.2-0.5,0.2
			c-0.2,0-0.4-0.1-0.5-0.2c-0.1-0.1-0.2-0.3-0.2-0.5c0-0.2,0.1-0.4,0.2-0.5S277.5,55.8,277.7,55.8z"/>
	</g>
	<g>
		<path class="st0" d="M219.6,26.5l2.9-0.4c0.2,0.7,0.8,1,2,1c0.9,0,1.4-0.2,1.4-0.5c0-0.2-0.1-0.3-0.3-0.4
			c-0.2-0.1-0.6-0.2-1.3-0.3c-1.9-0.3-3.1-0.7-3.5-1.2c-0.5-0.6-0.7-1.2-0.7-1.9c0-0.9,0.4-1.7,1.2-2.3c0.8-0.6,1.8-0.9,3.1-0.9
			c2.3,0,3.7,0.8,4.3,2.4l-2.8,0.5c-0.3-0.5-0.8-0.8-1.6-0.8c-0.4,0-0.7,0.1-0.9,0.2c-0.2,0.1-0.3,0.2-0.3,0.3
			c0,0.3,0.3,0.5,0.9,0.6c1.5,0.2,2.6,0.3,3.1,0.5c0.5,0.2,1,0.5,1.4,1c0.4,0.5,0.6,1,0.6,1.7c0,1-0.4,1.8-1.3,2.4
			c-0.8,0.6-2,0.9-3.5,0.9C221.7,29.3,220.2,28.4,219.6,26.5z"/>
	</g>
	<g>
		<g>
			<defs>
				<rect id="SVGID_1_" x="8.4" y="12.5" width="276.3" height="47.1"/>
			</defs>
			<clipPath id="SVGID_2_">
				<use xlink:href="#SVGID_1_"  style="overflow:visible;"/>
			</clipPath>
			<path class="st1" d="M23.6,39.3c7,0,12.7-5.2,12.7-11.7c0-6.5-5.7-11.7-12.7-11.7c-7,0-12.7,5.2-12.7,11.7
				C10.9,34.1,16.6,39.3,23.6,39.3L23.6,39.3L23.6,39.3z"/>
		</g>
		<g>
			<path class="st0" d="M71.4,16.7l-3.9,12.5h-3.9l-4-12.5h4l2,6.8c0.1,0.4,0.3,0.8,0.4,1.2l2.3-8H71.4z"/>
		</g>
		<g>
			<path class="st0" d="M81.2,29.1h-3.5c-0.1-0.4-0.1-0.8-0.1-1.3c-0.7,1-1.7,1.5-3,1.5c-1.1,0-1.9-0.3-2.5-0.8
				c-0.5-0.6-0.8-1.2-0.8-1.9c0-1,0.4-1.8,1.3-2.4c0.9-0.6,2.5-1,4.7-1.1v-0.2c0-0.4-0.1-0.7-0.3-0.8s-0.5-0.2-0.8-0.2
				c-0.8,0-1.3,0.3-1.4,1l-3.3-0.3c0.5-1.9,2.1-2.9,4.8-2.9c0.7,0,1.4,0.1,2.1,0.2c0.6,0.1,1.1,0.4,1.5,0.7c0.4,0.3,0.6,0.7,0.7,1
				c0.1,0.4,0.2,1,0.2,2v3.7C80.9,28,81,28.6,81.2,29.1z M77.4,24.8c-1.6,0.2-2.3,0.7-2.3,1.5c0,0.6,0.3,0.8,0.9,0.8
				c0.4,0,0.7-0.1,1-0.3s0.4-0.7,0.4-1.5V24.8z"/>
			<path class="st0" d="M85.8,16.7v12.5h-3.6V16.7H85.8z"/>
			<path class="st0" d="M90.7,16.7v12.5h-3.6V16.7H90.7z"/>
			<path class="st0" d="M98.1,25.8l3.4,0.2c-0.2,0.9-0.7,1.7-1.5,2.3c-0.8,0.6-1.9,1-3.3,1c-1.6,0-2.8-0.5-3.7-1.4
				c-0.9-0.9-1.4-2-1.4-3.4c0-1.4,0.5-2.6,1.4-3.5c0.9-1,2.1-1.4,3.7-1.4c1.5,0,2.7,0.5,3.6,1.4c0.9,0.9,1.4,2.1,1.4,3.7
				c0,0.1,0,0.3,0,0.5h-6.2c0,0.6,0.1,1,0.3,1.3c0.2,0.3,0.6,0.4,1.1,0.4C97.5,26.9,98,26.6,98.1,25.8z M97.9,23.4
				c0-0.6-0.1-1-0.4-1.3c-0.2-0.2-0.6-0.3-0.9-0.3c-0.9,0-1.3,0.5-1.3,1.6H97.9z"/>
			<path class="st0" d="M111,19.8l-3.6,10.1c-0.3,0.8-0.7,1.4-1.2,1.8c-0.5,0.4-1.3,0.6-2.4,0.6c-0.3,0-0.9,0-1.8-0.1v-2.6
				c0.5,0.1,0.9,0.1,1.3,0.1c1,0,1.6-0.2,1.6-0.7c0-0.2-0.1-0.4-0.2-0.6l-3.3-8.6h3.9l1.5,5l1.6-5H111z"/>
			<path class="st0" d="M119.3,24.6v4.5h-3.9V16.7h5.3c1.3,0,2.3,0.2,3,0.5c0.7,0.3,1.2,0.8,1.6,1.4c0.4,0.6,0.6,1.3,0.6,2.1
				c0,1.2-0.4,2.1-1.2,2.9c-0.8,0.7-1.9,1.1-3.3,1.1H119.3z M119.3,21.9h1.3c1.1,0,1.7-0.4,1.7-1.2c0-0.8-0.5-1.2-1.6-1.2h-1.4V21.9
				z"/>
			<path class="st0" d="M130.2,29.1h-3.5v-9.3h3v1.9c0.3-1.4,1.2-2.1,2.4-2.1c0.1,0,0.3,0,0.5,0V23c-0.3-0.1-0.5-0.1-0.7-0.1
				c-1.2,0-1.8,0.7-1.8,2V29.1z"/>
			<path class="st0" d="M137.8,29.3c-1.5,0-2.8-0.5-3.7-1.4c-0.9-1-1.4-2.1-1.4-3.4c0-1.4,0.5-2.5,1.4-3.5c0.9-0.9,2.2-1.4,3.7-1.4
				c1.5,0,2.8,0.5,3.7,1.4s1.4,2.1,1.4,3.4c0,1.4-0.5,2.5-1.4,3.5C140.6,28.9,139.3,29.3,137.8,29.3z M137.8,27.1
				c0.6,0,0.9-0.3,1-0.9c0.1-0.6,0.2-1.2,0.2-1.8c0-0.9-0.1-1.5-0.3-1.9c-0.2-0.4-0.5-0.6-0.9-0.6c-0.4,0-0.7,0.2-0.9,0.6
				s-0.3,1-0.3,2c0,1.1,0.1,1.8,0.3,2.1S137.4,27.1,137.8,27.1z"/>
			<path class="st0" d="M147.7,22.2v6.9h-3.4v-6.9h-1.4v-2.4h1.4c0-0.8,0-1.3,0.1-1.7c0.1-0.4,0.2-0.7,0.5-1.1
				c0.3-0.3,0.6-0.6,1.1-0.8c0.5-0.2,1.1-0.3,1.8-0.3c0.8,0,1.6,0.1,2.3,0.2v2.4c-0.6-0.1-1-0.1-1.3-0.1s-0.5,0.1-0.8,0.2
				c-0.2,0.1-0.4,0.4-0.4,0.8v0.3h2.4v2.4H147.7z"/>
			<path class="st0" d="M156.6,25.8L160,26c-0.2,0.9-0.7,1.7-1.5,2.3c-0.8,0.6-1.9,1-3.3,1c-1.6,0-2.8-0.5-3.7-1.4
				c-0.9-0.9-1.4-2-1.4-3.4c0-1.4,0.5-2.6,1.4-3.5c0.9-1,2.1-1.4,3.7-1.4c1.5,0,2.7,0.5,3.6,1.4c0.9,0.9,1.4,2.1,1.4,3.7
				c0,0.1,0,0.3,0,0.5h-6.2c0,0.6,0.1,1,0.3,1.3c0.2,0.3,0.6,0.4,1.1,0.4C156,26.9,156.4,26.6,156.6,25.8z M156.3,23.4
				c0-0.6-0.1-1-0.4-1.3c-0.2-0.2-0.6-0.3-0.9-0.3c-0.9,0-1.3,0.5-1.3,1.6H156.3z"/>
			<path class="st0" d="M160,26.5l2.9-0.4c0.2,0.7,0.8,1,2,1c0.9,0,1.4-0.2,1.4-0.5c0-0.2-0.1-0.3-0.3-0.4c-0.2-0.1-0.6-0.2-1.3-0.3
				c-1.9-0.3-3.1-0.7-3.5-1.2c-0.5-0.6-0.7-1.2-0.7-1.9c0-0.9,0.4-1.7,1.2-2.3c0.8-0.6,1.8-0.9,3.1-0.9c2.3,0,3.7,0.8,4.3,2.4
				l-2.8,0.5c-0.3-0.5-0.8-0.8-1.6-0.8c-0.4,0-0.7,0.1-0.9,0.2c-0.2,0.1-0.3,0.2-0.3,0.3c0,0.3,0.3,0.5,0.9,0.6
				c1.5,0.2,2.6,0.3,3.1,0.5c0.5,0.2,1,0.5,1.4,1c0.4,0.5,0.6,1,0.6,1.7c0,1-0.4,1.8-1.3,2.4c-0.8,0.6-2,0.9-3.5,0.9
				C162.1,29.3,160.6,28.4,160,26.5z"/>
			<path class="st0" d="M169.2,26.5l2.9-0.4c0.2,0.7,0.8,1,2,1c0.9,0,1.4-0.2,1.4-0.5c0-0.2-0.1-0.3-0.3-0.4
				c-0.2-0.1-0.6-0.2-1.3-0.3c-1.9-0.3-3.1-0.7-3.5-1.2c-0.5-0.6-0.7-1.2-0.7-1.9c0-0.9,0.4-1.7,1.2-2.3c0.8-0.6,1.8-0.9,3.1-0.9
				c2.3,0,3.7,0.8,4.3,2.4l-2.8,0.5c-0.3-0.5-0.8-0.8-1.6-0.8c-0.4,0-0.7,0.1-0.9,0.2c-0.2,0.1-0.3,0.2-0.3,0.3
				c0,0.3,0.3,0.5,0.9,0.6c1.5,0.2,2.6,0.3,3.1,0.5c0.5,0.2,1,0.5,1.4,1c0.4,0.5,0.6,1,0.6,1.7c0,1-0.4,1.8-1.3,2.4
				c-0.8,0.6-2,0.9-3.5,0.9C171.4,29.3,169.8,28.4,169.2,26.5z"/>
			<path class="st0" d="M183,16.3v2.9h-3.6v-2.9H183z M183,19.8v9.3h-3.6v-9.3H183z"/>
			<path class="st0" d="M188.8,29.3c-1.5,0-2.8-0.5-3.7-1.4c-0.9-1-1.4-2.1-1.4-3.4c0-1.4,0.5-2.5,1.4-3.5s2.2-1.4,3.7-1.4
				c1.5,0,2.8,0.5,3.7,1.4s1.4,2.1,1.4,3.4c0,1.4-0.5,2.5-1.4,3.5C191.6,28.9,190.4,29.3,188.8,29.3z M188.9,27.1
				c0.6,0,0.9-0.3,1-0.9c0.1-0.6,0.2-1.2,0.2-1.8c0-0.9-0.1-1.5-0.3-1.9c-0.2-0.4-0.5-0.6-0.9-0.6c-0.4,0-0.7,0.2-0.9,0.6
				c-0.2,0.4-0.3,1-0.3,2c0,1.1,0.1,1.8,0.3,2.1S188.5,27.1,188.9,27.1z"/>
			<path class="st0" d="M203.9,29.1h-3.6v-5.8c0-0.5-0.1-0.8-0.2-0.9c-0.1-0.1-0.3-0.2-0.6-0.2c-0.7,0-1,0.5-1,1.4v5.6h-3.6v-9.3
				h3.4v1.3c0.5-1,1.4-1.5,2.7-1.5c0.7,0,1.2,0.1,1.7,0.4c0.5,0.3,0.8,0.6,1,1c0.2,0.4,0.3,1.1,0.3,2.1V29.1z"/>
			<path class="st0" d="M214.5,29.1H211c-0.1-0.4-0.1-0.8-0.1-1.3c-0.7,1-1.7,1.5-3,1.5c-1.1,0-1.9-0.3-2.5-0.8
				c-0.5-0.6-0.8-1.2-0.8-1.9c0-1,0.4-1.8,1.3-2.4c0.9-0.6,2.5-1,4.7-1.1v-0.2c0-0.4-0.1-0.7-0.3-0.8c-0.2-0.1-0.5-0.2-0.8-0.2
				c-0.8,0-1.3,0.3-1.4,1l-3.3-0.3c0.5-1.9,2.1-2.9,4.8-2.9c0.7,0,1.4,0.1,2.1,0.2c0.6,0.1,1.1,0.4,1.5,0.7s0.6,0.7,0.7,1
				c0.1,0.4,0.2,1,0.2,2v3.7C214.2,28,214.3,28.6,214.5,29.1z M210.7,24.8c-1.6,0.2-2.3,0.7-2.3,1.5c0,0.6,0.3,0.8,0.9,0.8
				c0.4,0,0.7-0.1,1-0.3s0.4-0.7,0.4-1.5V24.8z"/>
			<path class="st0" d="M219.1,16.7v12.5h-3.6V16.7H219.1z"/>
		</g>
		<g>
			<path class="st0" d="M67.5,41.4l3.5,0.2c-0.2,1.5-0.7,2.7-1.7,3.5s-2.1,1.2-3.6,1.2c-1.7,0-3.1-0.6-4.1-1.7
				c-1-1.1-1.6-2.7-1.6-4.6c0-2,0.5-3.5,1.5-4.7s2.4-1.8,4.1-1.8c1.6,0,2.9,0.5,3.8,1.4s1.4,2.1,1.5,3.6l-3.6,0.2
				c0-0.8-0.2-1.4-0.5-1.8s-0.7-0.6-1.1-0.6c-1.2,0-1.8,1.2-1.8,3.6c0,1.4,0.2,2.3,0.5,2.8c0.3,0.5,0.8,0.7,1.3,0.7
				C66.8,43.4,67.4,42.7,67.5,41.4z"/>
			<path class="st0" d="M76.8,46.3c-1.5,0-2.8-0.5-3.7-1.4c-0.9-1-1.4-2.1-1.4-3.4c0-1.4,0.5-2.5,1.4-3.5c0.9-0.9,2.2-1.4,3.7-1.4
				c1.5,0,2.8,0.5,3.7,1.4c0.9,0.9,1.4,2.1,1.4,3.4c0,1.4-0.5,2.5-1.4,3.5C79.6,45.9,78.4,46.3,76.8,46.3z M76.9,44.1
				c0.6,0,0.9-0.3,1-0.9c0.1-0.6,0.2-1.2,0.2-1.8c0-0.9-0.1-1.5-0.3-1.9c-0.2-0.4-0.5-0.6-0.9-0.6c-0.4,0-0.7,0.2-0.9,0.6
				s-0.3,1-0.3,2c0,1.1,0.1,1.8,0.3,2.1S76.5,44.1,76.9,44.1z"/>
			<path class="st0" d="M97.4,46.1h-3.5v-5.8c0-0.4-0.1-0.7-0.2-0.8c-0.1-0.2-0.3-0.2-0.6-0.2c-0.7,0-1,0.5-1,1.5v5.4h-3.5v-5.8
				c0-0.7-0.3-1.1-0.9-1.1c-0.6,0-0.9,0.4-0.9,1.1v5.8h-3.5v-9.3h3.3v1.3c0.6-1,1.4-1.4,2.5-1.4c1.2,0,2.1,0.5,2.6,1.4
				c0.6-1,1.5-1.4,2.8-1.4c0.6,0,1.1,0.1,1.6,0.4c0.5,0.3,0.8,0.6,1,1c0.2,0.4,0.3,1,0.3,1.8V46.1z"/>
			<path class="st0" d="M113.4,46.1h-3.5v-5.8c0-0.4-0.1-0.7-0.2-0.8c-0.1-0.2-0.3-0.2-0.6-0.2c-0.7,0-1,0.5-1,1.5v5.4h-3.5v-5.8
				c0-0.7-0.3-1.1-0.9-1.1c-0.6,0-0.9,0.4-0.9,1.1v5.8h-3.5v-9.3h3.3v1.3c0.6-1,1.4-1.4,2.5-1.4c1.2,0,2.1,0.5,2.6,1.4
				c0.6-1,1.5-1.4,2.8-1.4c0.6,0,1.1,0.1,1.6,0.4c0.5,0.3,0.8,0.6,1,1c0.2,0.4,0.3,1,0.3,1.8V46.1z"/>
			<path class="st0" d="M124.4,36.8v9.3H121v-1.5c-0.5,1.1-1.5,1.7-2.9,1.7c-0.9,0-1.6-0.2-2-0.7c-0.5-0.5-0.7-1.2-0.7-2.1v-6.6h3.6
				v5.8c0,0.4,0,0.6,0.2,0.8c0.1,0.1,0.3,0.2,0.6,0.2c0.3,0,0.6-0.1,0.8-0.3c0.2-0.2,0.3-0.5,0.3-0.9v-5.6H124.4z"/>
			<path class="st0" d="M135.4,46.1h-3.6v-5.8c0-0.5-0.1-0.8-0.2-0.9c-0.1-0.1-0.3-0.2-0.6-0.2c-0.7,0-1,0.5-1,1.4v5.6h-3.6v-9.3
				h3.4v1.3c0.5-1,1.4-1.5,2.7-1.5c0.7,0,1.2,0.1,1.7,0.4c0.5,0.3,0.8,0.6,1,1c0.2,0.4,0.3,1.1,0.3,2.1V46.1z"/>
			<path class="st0" d="M140.9,33.3v2.9h-3.6v-2.9H140.9z M140.9,36.8v9.3h-3.6v-9.3H140.9z"/>
			<path class="st0" d="M148.6,36.8v2.4h-1.9v3.4c0,0.5,0.1,0.7,0.3,0.8c0.2,0.1,0.4,0.1,0.5,0.1c0.3,0,0.6-0.1,1-0.2V46
				c-0.7,0.1-1.4,0.2-2.1,0.2c-1.1,0-1.9-0.2-2.5-0.7s-0.8-1.2-0.8-2.3l0-1.1v-2.9h-1.4v-2.4h1.4l0.1-3l3.5-0.1v3.1H148.6z"/>
			<path class="st0" d="M158.5,36.8l-3.6,10.1c-0.3,0.8-0.7,1.4-1.2,1.8c-0.5,0.4-1.3,0.6-2.4,0.6c-0.3,0-0.9,0-1.8-0.1v-2.6
				c0.5,0.1,0.9,0.1,1.3,0.1c1,0,1.6-0.2,1.6-0.7c0-0.2-0.1-0.4-0.2-0.6l-3.3-8.6h3.9l1.5,5l1.6-5H158.5z"/>
			<path class="st0" d="M174.7,33.7v12.5h-3.8v-4.8H168v4.8h-3.8V33.7h3.8v4.6h2.9v-4.6H174.7z"/>
			<path class="st0" d="M182.9,42.8l3.4,0.2c-0.2,0.9-0.7,1.7-1.5,2.3c-0.8,0.6-1.9,1-3.3,1c-1.6,0-2.8-0.5-3.7-1.4
				c-0.9-0.9-1.4-2-1.4-3.4c0-1.4,0.5-2.6,1.4-3.5c0.9-1,2.1-1.4,3.7-1.4c1.5,0,2.7,0.5,3.6,1.4s1.4,2.1,1.4,3.7c0,0.1,0,0.3,0,0.5
				h-6.2c0,0.6,0.1,1,0.3,1.3c0.2,0.3,0.6,0.4,1.1,0.4C182.3,43.9,182.8,43.6,182.9,42.8z M182.7,40.4c0-0.6-0.1-1-0.4-1.3
				c-0.2-0.2-0.6-0.3-0.9-0.3c-0.9,0-1.3,0.5-1.3,1.6H182.7z"/>
			<path class="st0" d="M197.1,46.1h-3.5c-0.1-0.4-0.1-0.8-0.1-1.3c-0.7,1-1.7,1.5-3,1.5c-1.1,0-1.9-0.3-2.5-0.8
				c-0.5-0.6-0.8-1.2-0.8-1.9c0-1,0.4-1.8,1.3-2.4c0.9-0.6,2.5-1,4.7-1.1v-0.2c0-0.4-0.1-0.7-0.3-0.8c-0.2-0.1-0.5-0.2-0.8-0.2
				c-0.8,0-1.3,0.3-1.4,1l-3.3-0.3c0.5-1.9,2.1-2.9,4.8-2.9c0.7,0,1.4,0.1,2.1,0.2c0.6,0.1,1.1,0.4,1.5,0.7s0.6,0.7,0.7,1
				c0.1,0.4,0.2,1,0.2,2v3.7C196.8,45,196.9,45.6,197.1,46.1z M193.3,41.8c-1.6,0.2-2.3,0.7-2.3,1.5c0,0.6,0.3,0.8,0.9,0.8
				c0.4,0,0.7-0.1,1-0.3c0.3-0.2,0.4-0.7,0.4-1.5V41.8z"/>
			<path class="st0" d="M202.3,33.7v12.5h-3.6V33.7H202.3z"/>
			<path class="st0" d="M209.9,36.8v2.4h-1.9v3.4c0,0.5,0.1,0.7,0.3,0.8c0.2,0.1,0.4,0.1,0.5,0.1c0.3,0,0.6-0.1,1-0.2V46
				c-0.7,0.1-1.4,0.2-2.1,0.2c-1.1,0-1.9-0.2-2.5-0.7s-0.8-1.2-0.8-2.3l0-1.1v-2.9h-1.4v-2.4h1.4l0.1-3l3.5-0.1v3.1H209.9z"/>
			<path class="st0" d="M220.3,46.1h-3.6v-5.6c0-0.5-0.1-0.9-0.2-1.1c-0.1-0.2-0.3-0.3-0.6-0.3c-0.2,0-0.5,0.1-0.6,0.2
				c-0.2,0.1-0.3,0.3-0.3,0.5c0,0.2,0,0.5,0,1v5.2h-3.6V33.7h3.6v4.3c0.7-0.9,1.5-1.3,2.6-1.3c0.5,0,1,0.1,1.4,0.3
				c0.4,0.2,0.7,0.4,0.9,0.7c0.2,0.3,0.4,0.6,0.4,0.8c0.1,0.3,0.1,0.8,0.1,1.6V46.1z"/>
			<path class="st0" d="M233.8,41.4l3.5,0.2c-0.2,1.5-0.7,2.7-1.7,3.5c-1,0.8-2.1,1.2-3.6,1.2c-1.7,0-3.1-0.6-4.1-1.7
				c-1-1.1-1.6-2.7-1.6-4.6c0-2,0.5-3.5,1.5-4.7s2.4-1.8,4.1-1.8c1.6,0,2.9,0.5,3.8,1.4s1.4,2.1,1.5,3.6l-3.6,0.2
				c0-0.8-0.2-1.4-0.5-1.8c-0.3-0.4-0.7-0.6-1.1-0.6c-1.2,0-1.8,1.2-1.8,3.6c0,1.4,0.2,2.3,0.5,2.8c0.3,0.5,0.8,0.7,1.3,0.7
				C233.2,43.4,233.7,42.7,233.8,41.4z"/>
			<path class="st0" d="M244.7,42.8l3.4,0.2c-0.2,0.9-0.7,1.7-1.5,2.3c-0.8,0.6-1.9,1-3.3,1c-1.6,0-2.8-0.5-3.7-1.4
				c-0.9-0.9-1.4-2-1.4-3.4c0-1.4,0.5-2.6,1.4-3.5c0.9-1,2.1-1.4,3.7-1.4c1.5,0,2.7,0.5,3.6,1.4s1.4,2.1,1.4,3.7c0,0.1,0,0.3,0,0.5
				h-6.2c0,0.6,0.1,1,0.3,1.3c0.2,0.3,0.6,0.4,1.1,0.4C244.1,43.9,244.6,43.6,244.7,42.8z M244.5,40.4c0-0.6-0.1-1-0.4-1.3
				c-0.2-0.2-0.6-0.3-0.9-0.3c-0.9,0-1.3,0.5-1.3,1.6H244.5z"/>
			<path class="st0" d="M258.6,46.1H255v-5.8c0-0.5-0.1-0.8-0.2-0.9c-0.1-0.1-0.3-0.2-0.6-0.2c-0.7,0-1,0.5-1,1.4v5.6h-3.6v-9.3h3.4
				v1.3c0.5-1,1.4-1.5,2.7-1.5c0.7,0,1.2,0.1,1.7,0.4c0.5,0.3,0.8,0.6,1,1c0.2,0.4,0.3,1.1,0.3,2.1V46.1z"/>
			<path class="st0" d="M266.3,36.8v2.4h-1.9v3.4c0,0.5,0.1,0.7,0.3,0.8c0.2,0.1,0.4,0.1,0.5,0.1c0.3,0,0.6-0.1,1-0.2V46
				c-0.7,0.1-1.4,0.2-2.1,0.2c-1.1,0-1.9-0.2-2.5-0.7s-0.8-1.2-0.8-2.3l0-1.1v-2.9h-1.4v-2.4h1.4l0.1-3l3.5-0.1v3.1H266.3z"/>
			<path class="st0" d="M273.6,42.8L277,43c-0.2,0.9-0.7,1.7-1.5,2.3c-0.8,0.6-1.9,1-3.3,1c-1.6,0-2.8-0.5-3.7-1.4
				c-0.9-0.9-1.4-2-1.4-3.4c0-1.4,0.5-2.6,1.4-3.5c0.9-1,2.1-1.4,3.7-1.4c1.5,0,2.7,0.5,3.6,1.4s1.4,2.1,1.4,3.7c0,0.1,0,0.3,0,0.5
				h-6.2c0,0.6,0.1,1,0.3,1.3c0.2,0.3,0.6,0.4,1.1,0.4C273,43.9,273.5,43.6,273.6,42.8z M273.4,40.4c0-0.6-0.1-1-0.4-1.3
				c-0.2-0.2-0.6-0.3-0.9-0.3c-0.9,0-1.3,0.5-1.3,1.6H273.4z"/>
			<path class="st0" d="M281.9,46.1h-3.5v-9.3h3v1.9c0.3-1.4,1.2-2.1,2.4-2.1c0.1,0,0.3,0,0.5,0v3.2c-0.3-0.1-0.5-0.1-0.7-0.1
				c-1.2,0-1.8,0.7-1.8,2V46.1z"/>
		</g>
		<g>
			<path class="st0" d="M67.9,55l0.9,1.3l-0.1,0.1c-0.1-0.1-0.2-0.1-0.2-0.1s-0.2,0.1-0.5,0.2c-0.5,0.3-1,0.5-1.3,0.6
				c-0.4,0.1-0.8,0.2-1.3,0.2c-1,0-1.8-0.2-2.4-0.7c-0.4-0.3-0.7-0.6-0.9-1c-0.2-0.5-0.4-1-0.4-1.5c0-0.8,0.2-1.4,0.7-2
				c0.7-0.8,1.7-1.3,3-1.3c0.5,0,0.9,0.1,1.3,0.2c0.4,0.1,0.8,0.3,1.3,0.6c0.3,0.1,0.4,0.2,0.5,0.2s0.1,0,0.2-0.1l0.1,0.1l-0.9,1.3
				L67.8,53c0,0,0-0.1,0-0.1c0-0.1,0-0.2-0.1-0.2c-0.1-0.1-0.2-0.2-0.4-0.3c-0.5-0.3-1.1-0.5-1.7-0.5c-0.7,0-1.3,0.2-1.7,0.5
				c-0.5,0.4-0.7,1-0.7,1.6s0.2,1.2,0.7,1.6c0.4,0.4,1,0.5,1.7,0.5c0.6,0,1.2-0.2,1.7-0.5c0.2-0.1,0.3-0.2,0.4-0.3
				c0.1-0.1,0.1-0.2,0.1-0.2c0,0,0-0.1,0-0.1L67.9,55z"/>
			<path class="st0" d="M73.5,55.9h-2.4l-0.3,0.6c-0.1,0.1-0.1,0.2-0.1,0.3c0,0.1,0.1,0.2,0.3,0.3v0.1h-1.9v-0.1
				c0.1,0,0.2-0.1,0.3-0.1c0.1-0.1,0.1-0.2,0.2-0.3l1.9-3.8c0.1-0.1,0.1-0.3,0.1-0.4c0-0.1-0.1-0.2-0.3-0.3v-0.1h2v0.1
				c-0.2,0.1-0.3,0.2-0.3,0.3c0,0.1,0,0.2,0.1,0.4l1.9,3.7c0.1,0.2,0.2,0.3,0.3,0.4s0.2,0.1,0.3,0.1v0.1h-2.1v-0.1
				c0.2,0,0.3-0.1,0.3-0.3c0-0.1,0-0.2-0.1-0.3L73.5,55.9z M73.1,55.2l-0.8-1.6l-0.8,1.6H73.1z"/>
			<path class="st0" d="M77.6,55.1v1.6c0,0.1,0,0.2,0.1,0.2c0,0,0.1,0.1,0.2,0.1v0.1h-1.8v-0.1c0.1,0,0.2-0.1,0.2-0.1
				c0-0.1,0.1-0.1,0.1-0.2v-4.2c0-0.1,0-0.2-0.1-0.2c0,0-0.1-0.1-0.2-0.1v-0.1h3.3c0.4,0,0.8,0,1,0.1s0.4,0.1,0.6,0.2
				c0.4,0.2,0.6,0.6,0.6,1.2c0,0.4-0.1,0.7-0.3,1s-0.6,0.4-1.1,0.5l1,1.3c0.2,0.2,0.3,0.4,0.4,0.5c0.1,0.1,0.2,0.1,0.4,0.2v0.1h-2.1
				v-0.1c0.2,0,0.2-0.1,0.2-0.2c0-0.1,0-0.2-0.1-0.3l-1-1.5H77.6z M77.6,54.2h1.8c0.3,0,0.5,0,0.6-0.1c0.2-0.1,0.3-0.2,0.3-0.5
				c0-0.2-0.1-0.4-0.2-0.5S79.8,53,79.5,53h-1.8V54.2z"/>
			<path class="st0" d="M84,52.5v4.2c0,0.1,0,0.2,0.1,0.2c0,0,0.1,0.1,0.2,0.1v0.1h-1.8v-0.1c0.1,0,0.2-0.1,0.2-0.1
				c0-0.1,0.1-0.1,0.1-0.2v-4.2c0-0.1,0-0.2-0.1-0.2c0,0-0.1-0.1-0.2-0.1v-0.1h1.8v0.1c-0.1,0-0.2,0.1-0.2,0.1
				C84.1,52.4,84,52.4,84,52.5z"/>
			<path class="st0" d="M86.6,53.8v2.9c0,0.1,0,0.2,0.1,0.2s0.1,0.1,0.2,0.1v0.1h-1.7v-0.1c0.1,0,0.2-0.1,0.2-0.1
				c0-0.1,0.1-0.1,0.1-0.2v-4.2c0-0.1,0-0.2-0.1-0.2c0,0-0.1-0.1-0.2-0.1v-0.1h2v0.1c-0.1,0-0.2,0.1-0.2,0.2c0,0.1,0,0.2,0.1,0.3
				l2.7,2.7v-2.8c0-0.1,0-0.2-0.1-0.2c0,0-0.1-0.1-0.2-0.1v-0.1h1.7v0.1c-0.1,0-0.2,0.1-0.2,0.1c0,0-0.1,0.1-0.1,0.2v4.2
				c0,0.1,0,0.2,0.1,0.2c0,0,0.1,0.1,0.2,0.1v0.1h-1.8v-0.1c0.1,0,0.2-0.1,0.2-0.2c0,0,0-0.1-0.1-0.1c0,0-0.1-0.1-0.3-0.3L86.6,53.8
				z"/>
			<path class="st0" d="M96.8,55.2h-1.2c-0.1,0-0.2,0-0.2,0.1c-0.1,0-0.1,0.1-0.1,0.2h-0.1v-1.4h0.1c0,0.1,0.1,0.2,0.1,0.2
				s0.1,0.1,0.2,0.1h2.4v0.1c-0.1,0-0.2,0.1-0.2,0.1c0,0.1-0.1,0.1-0.1,0.2V56c0,0.1,0,0.2,0.1,0.2c0,0.1,0.1,0.1,0.2,0.1v0.1
				c-1,0.5-2,0.8-2.9,0.8c-0.8,0-1.5-0.2-2.1-0.6c-0.3-0.2-0.5-0.5-0.7-0.8c-0.2-0.4-0.3-0.8-0.3-1.2c0-0.6,0.2-1.1,0.6-1.6
				c0.6-0.7,1.4-1.1,2.6-1.1c0.5,0,1.1,0.1,1.7,0.3c0.3,0.1,0.4,0.1,0.4,0.1c0.1,0,0.1,0,0.2-0.1l0.1,0.1L97,53.7l-0.1-0.1
				c0,0,0,0,0,0c0-0.1-0.1-0.2-0.3-0.3c-0.4-0.2-0.9-0.3-1.3-0.3c-0.6,0-1,0.2-1.4,0.5c-0.4,0.3-0.6,0.7-0.6,1.3
				c0,0.5,0.2,0.9,0.5,1.2c0.3,0.3,0.8,0.5,1.5,0.5c0.6,0,1.1-0.1,1.5-0.3V55.2z"/>
			<path class="st0" d="M103,54.7v2.1c0,0.1,0,0.2,0.1,0.2c0,0.1,0.1,0.1,0.2,0.1v0.1h-1.9V57c0.1,0,0.2-0.1,0.2-0.1
				s0.1-0.1,0.1-0.2v-5.3c0-0.1,0-0.2-0.1-0.2c0,0-0.1-0.1-0.2-0.1V51h3.9c0.5,0,0.8,0,1.1,0.1c0.3,0.1,0.5,0.2,0.7,0.3
				c0.2,0.2,0.4,0.4,0.5,0.6c0.1,0.3,0.2,0.5,0.2,0.8c0,0.4-0.1,0.8-0.3,1.1c-0.2,0.3-0.5,0.5-0.8,0.6c-0.3,0.1-0.8,0.2-1.3,0.2H103
				z M103,53.6h2.1c0.4,0,0.7,0,0.9-0.1c0.1-0.1,0.2-0.1,0.3-0.3c0.1-0.1,0.1-0.3,0.1-0.4c0-0.1,0-0.3-0.1-0.4s-0.2-0.2-0.3-0.3
				c-0.2-0.1-0.5-0.1-0.9-0.1H103V53.6z"/>
			<path class="st0" d="M109.9,55.1v1.6c0,0.1,0,0.2,0.1,0.2c0,0,0.1,0.1,0.2,0.1v0.1h-1.8v-0.1c0.1,0,0.2-0.1,0.2-0.1
				c0-0.1,0.1-0.1,0.1-0.2v-4.2c0-0.1,0-0.2-0.1-0.2c0,0-0.1-0.1-0.2-0.1v-0.1h3.3c0.4,0,0.8,0,1,0.1s0.4,0.1,0.6,0.2
				c0.4,0.2,0.6,0.6,0.6,1.2c0,0.4-0.1,0.7-0.3,1s-0.6,0.4-1.1,0.5l1,1.3c0.2,0.2,0.3,0.4,0.4,0.5c0.1,0.1,0.2,0.1,0.4,0.2v0.1h-2.1
				v-0.1c0.2,0,0.2-0.1,0.2-0.2c0-0.1,0-0.2-0.1-0.3l-1-1.5H109.9z M109.9,54.2h1.8c0.3,0,0.5,0,0.6-0.1c0.2-0.1,0.3-0.2,0.3-0.5
				c0-0.2-0.1-0.4-0.2-0.5s-0.4-0.1-0.7-0.1h-1.8V54.2z"/>
		</g>
		<g>
			<defs>
				<rect id="SVGID_3_" x="8.4" y="12.5" width="276.3" height="47.1"/>
			</defs>
			<clipPath id="SVGID_4_">
				<use xlink:href="#SVGID_3_"  style="overflow:visible;"/>
			</clipPath>
			<path class="st2" d="M23.6,54.9c7,0,12.7-5.2,12.7-11.7c0-6.5-5.7-11.7-12.7-11.7c-7,0-12.7,5.2-12.7,11.7
				C10.9,49.7,16.6,54.9,23.6,54.9L23.6,54.9L23.6,54.9z"/>
			<path class="st3" d="M40.6,54.4c7,0,12.7-5.2,12.7-11.7c0-6.5-5.7-11.7-12.7-11.7s-12.7,5.2-12.7,11.7
				C27.9,49.2,33.6,54.4,40.6,54.4L40.6,54.4L40.6,54.4z"/>
			<path class="st2" d="M40.1,38.5c7,0,12.7-5.2,12.7-11.7c0-6.5-5.7-11.7-12.7-11.7c-7,0-12.7,5.2-12.7,11.7
				C27.4,30.5,30.4,38.5,40.1,38.5L40.1,38.5L40.1,38.5z"/>
		</g>
		<path class="st4" d="M24.4,15.9c6.4,0.4,11.4,4.3,11.9,12.2"/>
		<path class="st5" d="M37.5,39.9c-0.6-3.5-8.1-9.1-11.5-8.5"/>
	</g>
</g>
</svg>
