<svg id="Original" xmlns="http://www.w3.org/2000/svg" xmlns:xlink="http://www.w3.org/1999/xlink" viewBox="0 0 276.19 46.7"><defs><style>.cls-1,.cls-4,.cls-7{fill:none;}.cls-2,.cls-5{font-size:18.69px;fill:#231f20;font-family:FranklinGothic-Heavy, Franklin Gothic Heavy;}.cls-3{clip-path:url(#clip-path);}.cls-4{stroke:#70b244;}.cls-4,.cls-7{stroke-width:5px;}.cls-5{letter-spacing:-0.03em;}.cls-6{fill:url(#linear-gradient);}.cls-7{stroke:#3a4f8d;}</style><clipPath id="clip-path" transform="translate(-8.43 -12.53)"><rect class="cls-1" x="8.37" y="12.47" width="276.25" height="47.06"/></clipPath><linearGradient id="linear-gradient" x1="121.67" y1="112.95" x2="233.08" y2="-15.81" gradientUnits="userSpaceOnUse"><stop offset="0" stop-color="#fff"/><stop offset="1"/></linearGradient></defs><title>logo</title><text class="cls-2" transform="translate(186.27 23.97)"> </text><g class="cls-3"><path class="cls-4" d="M23.6,39.3c7,0,12.67-5.24,12.67-11.71S30.6,15.88,23.6,15.88,10.93,21.12,10.93,27.59,16.6,39.3,23.6,39.3Z" transform="translate(-8.43 -12.53)"/></g><text class="cls-2" transform="translate(51.14 23.97)">V</text><text class="cls-5" transform="translate(62.46 23.97)">alley Professional</text><text class="cls-2" transform="translate(210.99 23.97)">s</text><path class="cls-6" d="M67.51,48.74l3.5.21a5.1,5.1,0,0,1-1.69,3.51A5.81,5.81,0,0,1,61.66,52a6.55,6.55,0,0,1-1.56-4.64,7.21,7.21,0,0,1,1.48-4.73,5.78,5.78,0,0,1,7.93-.43A5.65,5.65,0,0,1,71,45.84L67.44,46A2.75,2.75,0,0,0,67,44.23a1.45,1.45,0,0,0-1.13-.56Q64,43.67,64,47.31a5.59,5.59,0,0,0,.47,2.76,1.48,1.48,0,0,0,1.32.73Q67.33,50.8,67.51,48.74Z" transform="translate(-8.43 -12.53)"/><path class="cls-6" d="M76.81,53.68a4.81,4.81,0,0,1-3.67-1.44,4.75,4.75,0,0,1-1.36-3.37,4.65,4.65,0,0,1,1.42-3.47,5.62,5.62,0,0,1,7.37,0A4.61,4.61,0,0,1,82,48.82a4.68,4.68,0,0,1-1.41,3.47A5.1,5.1,0,0,1,76.81,53.68Zm.06-2.21a1,1,0,0,0,1-.88,8.85,8.85,0,0,0,.19-1.84,4.85,4.85,0,0,0-.26-1.88,1,1,0,0,0-.95-.58,1,1,0,0,0-.92.59,4.74,4.74,0,0,0-.29,2A4.83,4.83,0,0,0,76,51,1,1,0,0,0,76.87,51.48Z" transform="translate(-8.43 -12.53)"/><path class="cls-6" d="M97.45,53.49H93.92v-5.8a1.45,1.45,0,0,0-.17-.82.69.69,0,0,0-.6-.23q-1,0-1,1.49v5.37h-3.5v-5.8q0-1.11-.86-1.11t-.89,1.11v5.8h-3.5V44.21h3.27v1.25A2.81,2.81,0,0,1,89.2,44a2.77,2.77,0,0,1,2.61,1.44A3,3,0,0,1,94.58,44a3.22,3.22,0,0,1,1.57.37,2.34,2.34,0,0,1,1,1,4.12,4.12,0,0,1,.31,1.82Z" transform="translate(-8.43 -12.53)"/><path class="cls-6" d="M113.44,53.49h-3.53v-5.8a1.45,1.45,0,0,0-.17-.82.69.69,0,0,0-.6-.23q-1,0-1,1.49v5.37h-3.5v-5.8q0-1.11-.86-1.11t-.89,1.11v5.8h-3.5V44.21h3.27v1.25A2.81,2.81,0,0,1,105.19,44a2.77,2.77,0,0,1,2.61,1.44A3,3,0,0,1,110.57,44a3.22,3.22,0,0,1,1.57.37,2.34,2.34,0,0,1,1,1,4.12,4.12,0,0,1,.31,1.82Z" transform="translate(-8.43 -12.53)"/><path class="cls-6" d="M124.39,44.21v9.28H121V52a2.84,2.84,0,0,1-2.88,1.72,2.75,2.75,0,0,1-2-.73,2.87,2.87,0,0,1-.73-2.1V44.21H119v5.84a1.45,1.45,0,0,0,.15.77.66.66,0,0,0,.59.22,1,1,0,0,0,.76-.33,1.37,1.37,0,0,0,.29-.94V44.21Z" transform="translate(-8.43 -12.53)"/><path class="cls-6" d="M135.37,53.49h-3.64V47.65a1.3,1.3,0,0,0-.22-.92.81.81,0,0,0-.56-.2q-1,0-1,1.39v5.58h-3.64V44.21h3.38v1.31A2.72,2.72,0,0,1,132.36,44a3.49,3.49,0,0,1,1.71.39,2.31,2.31,0,0,1,1,1,5.33,5.33,0,0,1,.3,2.14Z" transform="translate(-8.43 -12.53)"/><path class="cls-6" d="M140.93,40.64v2.88h-3.64V40.64Zm0,3.57v9.28h-3.64V44.21Z" transform="translate(-8.43 -12.53)"/><path class="cls-6" d="M148.58,44.21v2.36h-1.85V50c0,.47.09.75.26.83a1.22,1.22,0,0,0,.55.13,4.27,4.27,0,0,0,1-.16V53.4a11.08,11.08,0,0,1-2.12.21,3.58,3.58,0,0,1-2.47-.72,3,3,0,0,1-.79-2.3v-4h-1.39V44.21h1.39l.05-3,3.46-.05v3.08Z" transform="translate(-8.43 -12.53)"/><path class="cls-6" d="M158.46,44.21l-3.64,10.06a4.06,4.06,0,0,1-1.21,1.79,3.77,3.77,0,0,1-2.42.64q-.39,0-1.83-.08V54a8.67,8.67,0,0,0,1.31.11q1.57,0,1.57-.69a1.9,1.9,0,0,0-.16-.63l-3.33-8.61h3.89l1.54,5,1.6-5Z" transform="translate(-8.43 -12.53)"/><path class="cls-6" d="M174.73,41V53.49h-3.82V48.65H168v4.85h-3.82V41H168v4.58h2.92V41Z" transform="translate(-8.43 -12.53)"/><path class="cls-6" d="M182.9,50.16l3.39.23a4,4,0,0,1-1.54,2.33,5.3,5.3,0,0,1-3.35,1,5.14,5.14,0,0,1-3.74-1.36,4.49,4.49,0,0,1-1.4-3.36,5,5,0,1,1,10,.08c0,.13,0,.3,0,.53h-6.21a2.39,2.39,0,0,0,.31,1.3,1.5,1.5,0,0,0,2.51-.72Zm-.25-2.41a1.69,1.69,0,0,0-.38-1.26,1.34,1.34,0,0,0-.91-.32q-1.29,0-1.29,1.59Z" transform="translate(-8.43 -12.53)"/><path class="cls-6" d="M197.08,53.49h-3.47a6.17,6.17,0,0,1-.13-1.3,3.34,3.34,0,0,1-3,1.49,3.28,3.28,0,0,1-2.46-.84,2.68,2.68,0,0,1-.82-1.93,2.76,2.76,0,0,1,1.34-2.38,9.91,9.91,0,0,1,4.74-1.09v-.21a1,1,0,0,0-.28-.81,1.39,1.39,0,0,0-.82-.2q-1.26,0-1.41,1l-3.32-.31Q188.2,44,192.33,44a9,9,0,0,1,2.06.22,3.47,3.47,0,0,1,1.49.7,2.43,2.43,0,0,1,.74,1,7.23,7.23,0,0,1,.19,2v3.71A5.13,5.13,0,0,0,197.08,53.49Zm-3.78-4.34Q191,49.4,191,50.64q0,.84.92.84a1.49,1.49,0,0,0,1-.35,2,2,0,0,0,.41-1.53Z" transform="translate(-8.43 -12.53)"/><path class="cls-6" d="M202.28,41V53.49h-3.59V41Z" transform="translate(-8.43 -12.53)"/><path class="cls-6" d="M209.93,44.21v2.36h-1.85V50c0,.47.09.75.26.83a1.22,1.22,0,0,0,.55.13,4.27,4.27,0,0,0,1-.16V53.4a11.08,11.08,0,0,1-2.12.21,3.58,3.58,0,0,1-2.47-.72,3,3,0,0,1-.79-2.3v-4h-1.39V44.21h1.39l.05-3,3.46-.05v3.08Z" transform="translate(-8.43 -12.53)"/><path class="cls-6" d="M220.26,53.49h-3.64V47.91a2.3,2.3,0,0,0-.17-1.05.69.69,0,0,0-.65-.29,1,1,0,0,0-.65.22.82.82,0,0,0-.32.46,6.69,6.69,0,0,0,0,1v5.25h-3.64V41h3.64v4.27A3.09,3.09,0,0,1,217.36,44a3.36,3.36,0,0,1,1.41.28,2.38,2.38,0,0,1,.94.72,2.59,2.59,0,0,1,.44.85,7.1,7.1,0,0,1,.11,1.59Z" transform="translate(-8.43 -12.53)"/><path class="cls-6" d="M233.84,48.74l3.5.21a5.1,5.1,0,0,1-1.69,3.51A5.81,5.81,0,0,1,228,52a6.55,6.55,0,0,1-1.56-4.64,7.21,7.21,0,0,1,1.48-4.73,5.78,5.78,0,0,1,7.93-.43,5.64,5.64,0,0,1,1.5,3.63l-3.57.19a2.75,2.75,0,0,0-.48-1.81,1.45,1.45,0,0,0-1.13-.56q-1.81,0-1.81,3.63a5.59,5.59,0,0,0,.47,2.76,1.48,1.48,0,0,0,1.32.73Q233.66,50.8,233.84,48.74Z" transform="translate(-8.43 -12.53)"/><path class="cls-6" d="M244.74,50.16l3.39.23a4,4,0,0,1-1.54,2.33,5.3,5.3,0,0,1-3.35,1,5.14,5.14,0,0,1-3.74-1.36,4.49,4.49,0,0,1-1.4-3.36,5,5,0,1,1,10,.08c0,.13,0,.3,0,.53h-6.21a2.39,2.39,0,0,0,.31,1.3,1.5,1.5,0,0,0,2.51-.72Zm-.25-2.41a1.69,1.69,0,0,0-.38-1.26,1.34,1.34,0,0,0-.91-.32q-1.29,0-1.29,1.59Z" transform="translate(-8.43 -12.53)"/><path class="cls-6" d="M258.63,53.49H255V47.65a1.3,1.3,0,0,0-.22-.92.81.81,0,0,0-.56-.2q-1,0-1,1.39v5.58h-3.64V44.21h3.38v1.31A2.72,2.72,0,0,1,255.62,44a3.49,3.49,0,0,1,1.71.39,2.32,2.32,0,0,1,1,1,5.33,5.33,0,0,1,.3,2.14Z" transform="translate(-8.43 -12.53)"/><path class="cls-6" d="M266.28,44.21v2.36h-1.85V50c0,.47.09.75.26.83a1.22,1.22,0,0,0,.55.13,4.27,4.27,0,0,0,1-.16V53.4a11.08,11.08,0,0,1-2.12.21,3.58,3.58,0,0,1-2.47-.72,3,3,0,0,1-.79-2.3v-4h-1.39V44.21h1.39l.05-3,3.46-.05v3.08Z" transform="translate(-8.43 -12.53)"/><path class="cls-6" d="M273.62,50.16l3.39.23a4,4,0,0,1-1.54,2.33,5.3,5.3,0,0,1-3.35,1,5.14,5.14,0,0,1-3.74-1.36A4.49,4.49,0,0,1,267,49,5,5,0,1,1,277,49c0,.13,0,.3,0,.53H270.8a2.39,2.39,0,0,0,.31,1.3,1.5,1.5,0,0,0,2.51-.72Zm-.25-2.41a1.69,1.69,0,0,0-.38-1.26,1.34,1.34,0,0,0-.91-.32q-1.29,0-1.29,1.59Z" transform="translate(-8.43 -12.53)"/><path class="cls-6" d="M281.94,53.49h-3.49V44.21h3v1.92A2.36,2.36,0,0,1,283.9,44l.53,0v3.24a3,3,0,0,0-.68-.09q-1.81,0-1.81,2Z" transform="translate(-8.43 -12.53)"/><text class="cls-2" transform="translate(51.14 40.97)">Community Health Center</text><g class="cls-3"><path class="cls-7" d="M23.6,54.92c7,0,12.67-5.25,12.67-11.71S30.6,31.49,23.6,31.49,10.93,36.74,10.93,43.21,16.6,54.92,23.6,54.92Z" transform="translate(-8.43 -12.53)"/><path class="cls-4" d="M40.58,54.43c7,0,12.67-5.25,12.67-11.71S47.58,31,40.58,31,27.9,36.25,27.9,42.72s5.67,11.71,12.67,11.71Z" transform="translate(-8.43 -12.53)"/><path class="cls-7" d="M40.09,38.46c7,0,12.67-5.24,12.67-11.71S47.09,15,40.09,15,27.41,20.27,27.41,26.74s5.67,11.71,12.67,11.71Z" transform="translate(-8.43 -12.53)"/></g></svg>