<svg id="Layer_1" data-name="Layer 1" xmlns="http://www.w3.org/2000/svg" xmlns:xlink="http://www.w3.org/1999/xlink" viewBox="0 0 275.91 44.8"><defs><style>.cls-1,.cls-4,.cls-5,.cls-6{fill:none;}.cls-2{fill:#231f20;}.cls-3{clip-path:url(#clip-path);}.cls-4{stroke:#70b244;}.cls-4,.cls-5{stroke-width:5px;}.cls-5{stroke:#3a4f8d;}.cls-6{stroke:#3a4e8c;stroke-width:4px;}</style><clipPath id="clip-path" transform="translate(-8.4 -12.6)"><rect class="cls-1" x="8.4" y="12.5" width="276.3" height="47.1"/></clipPath></defs><title>logo</title><path class="cls-2" d="M224.3,53.08" transform="translate(-8.4 -12.6)"/><path class="cls-2" d="M219.6,28.78l2.9-.4c.2.7.8,1,2,1,.9,0,1.4-.2,1.4-.5s-.1-.3-.3-.4a4.91,4.91,0,0,0-1.3-.3c-1.9-.3-3.1-.7-3.5-1.2a2.86,2.86,0,0,1,.5-4.2,5,5,0,0,1,3.1-.9c2.3,0,3.7.8,4.3,2.4l-2.8.5a1.7,1.7,0,0,0-1.6-.8,2,2,0,0,0-.9.2q-.3.15-.3.3,0,.45.9.6a19.53,19.53,0,0,1,3.1.5,3.32,3.32,0,0,1,1.4,1,2.52,2.52,0,0,1,.6,1.7,2.71,2.71,0,0,1-1.3,2.4,5.84,5.84,0,0,1-3.5.9C221.7,31.58,220.2,30.68,219.6,28.78Z" transform="translate(-8.4 -12.6)"/><g class="cls-3"><path class="cls-4" d="M23.6,39.3c7,0,12.7-5.2,12.7-11.7S30.6,15.9,23.6,15.9,10.9,21.1,10.9,27.6s5.7,11.7,12.7,11.7Z" transform="translate(-8.4 -12.6)"/></g><path class="cls-2" d="M71.4,19l-3.9,12.5H63.6L59.6,19h4l2,6.8c.1.4.3.8.4,1.2l2.3-8Z" transform="translate(-8.4 -12.6)"/><path class="cls-2" d="M81.2,31.38H77.7a5.28,5.28,0,0,1-.1-1.3,3.44,3.44,0,0,1-3,1.5,3.74,3.74,0,0,1-2.5-.8,2.93,2.93,0,0,1-.8-1.9,2.71,2.71,0,0,1,1.3-2.4,9.76,9.76,0,0,1,4.7-1.1v-.2c0-.4-.1-.7-.3-.8a1.88,1.88,0,0,0-.8-.2c-.8,0-1.3.3-1.4,1l-3.3-.3C72,23,73.6,22,76.3,22a14.92,14.92,0,0,1,2.1.2,3.48,3.48,0,0,1,1.5.7,2,2,0,0,1,.7,1,8.09,8.09,0,0,1,.2,2v3.7A8,8,0,0,0,81.2,31.38Zm-3.8-4.3c-1.6.2-2.3.7-2.3,1.5,0,.6.3.8.9.8a1.69,1.69,0,0,0,1-.3c.3-.2.4-.7.4-1.5Z" transform="translate(-8.4 -12.6)"/><path class="cls-2" d="M85.8,19v12.5H82.2V19Z" transform="translate(-8.4 -12.6)"/><path class="cls-2" d="M90.7,19v12.5H87.1V19Z" transform="translate(-8.4 -12.6)"/><path class="cls-2" d="M98.1,28.08l3.4.2a3.89,3.89,0,0,1-1.5,2.3,5.4,5.4,0,0,1-3.3,1,5,5,0,0,1-3.7-1.4,4.6,4.6,0,0,1-1.4-3.4,4.83,4.83,0,0,1,1.4-3.5,4.62,4.62,0,0,1,3.7-1.4,4.9,4.9,0,0,1,3.6,1.4,5,5,0,0,1,1.4,3.7v.5H95.5a2.27,2.27,0,0,0,.3,1.3,1.25,1.25,0,0,0,1.1.4A1.12,1.12,0,0,0,98.1,28.08Zm-.2-2.4a1.7,1.7,0,0,0-.4-1.3,1.4,1.4,0,0,0-.9-.3c-.9,0-1.3.5-1.3,1.6Z" transform="translate(-8.4 -12.6)"/><path class="cls-2" d="M111,22.08l-3.6,10.1a4.07,4.07,0,0,1-1.2,1.8,3.84,3.84,0,0,1-2.4.6,15.26,15.26,0,0,1-1.8-.1v-2.6a6.15,6.15,0,0,0,1.3.1c1,0,1.6-.2,1.6-.7a1.42,1.42,0,0,0-.2-.6l-3.3-8.6h3.9l1.5,5,1.6-5Z" transform="translate(-8.4 -12.6)"/><path class="cls-2" d="M119.3,26.88v4.5h-3.9V19h5.3a7.75,7.75,0,0,1,3,.5,3.64,3.64,0,0,1,1.6,1.4,3.7,3.7,0,0,1,.6,2.1,3.85,3.85,0,0,1-1.2,2.9,4.86,4.86,0,0,1-3.3,1.1h-2.1Zm0-2.7h1.3c1.1,0,1.7-.4,1.7-1.2s-.5-1.2-1.6-1.2h-1.4Z" transform="translate(-8.4 -12.6)"/><path class="cls-2" d="M130.2,31.38h-3.5v-9.3h3V24a2.36,2.36,0,0,1,2.4-2.1h.5v3.4a2,2,0,0,0-.7-.1c-1.2,0-1.8.7-1.8,2v4.2Z" transform="translate(-8.4 -12.6)"/><path class="cls-2" d="M137.8,31.58a5.14,5.14,0,0,1-3.7-1.4,4.94,4.94,0,0,1-1.4-3.4,5,5,0,0,1,1.4-3.5,5.59,5.59,0,0,1,7.4,0,4.76,4.76,0,0,1,1.4,3.4,5,5,0,0,1-1.4,3.5A4.75,4.75,0,0,1,137.8,31.58Zm0-2.2a.92.92,0,0,0,1-.9,11,11,0,0,0,.2-1.8,4.39,4.39,0,0,0-.3-1.9,1,1,0,0,0-1.8,0,4.6,4.6,0,0,0-.3,2,4.54,4.54,0,0,0,.3,2.1A1.05,1.05,0,0,0,137.8,29.38Z" transform="translate(-8.4 -12.6)"/><path class="cls-2" d="M147.7,24.48v6.9h-3.4v-6.9h-1.4v-2.4h1.4a7.63,7.63,0,0,1,.1-1.7,2.7,2.7,0,0,1,.5-1.1,3.13,3.13,0,0,1,1.1-.8,4.84,4.84,0,0,1,1.8-.3,16.41,16.41,0,0,1,2.3.2v2.4a7.17,7.17,0,0,0-1.3-.1,2.35,2.35,0,0,0-.8.2.89.89,0,0,0-.4.8V22H150v2.4h-2.3Z" transform="translate(-8.4 -12.6)"/><path class="cls-2" d="M156.6,28.08l3.4.2a3.89,3.89,0,0,1-1.5,2.3,5.4,5.4,0,0,1-3.3,1,5,5,0,0,1-3.7-1.4,4.6,4.6,0,0,1-1.4-3.4,4.83,4.83,0,0,1,1.4-3.5,4.62,4.62,0,0,1,3.7-1.4,4.9,4.9,0,0,1,3.6,1.4,5,5,0,0,1,1.4,3.7v.5H154a2.27,2.27,0,0,0,.3,1.3,1.25,1.25,0,0,0,1.1.4C156,29.18,156.4,28.88,156.6,28.08Zm-.3-2.4a1.7,1.7,0,0,0-.4-1.3,1.4,1.4,0,0,0-.9-.3c-.9,0-1.3.5-1.3,1.6Z" transform="translate(-8.4 -12.6)"/><path class="cls-2" d="M160,28.78l2.9-.4c.2.7.8,1,2,1,.9,0,1.4-.2,1.4-.5s-.1-.3-.3-.4a4.91,4.91,0,0,0-1.3-.3c-1.9-.3-3.1-.7-3.5-1.2a2.86,2.86,0,0,1,.5-4.2,5,5,0,0,1,3.1-.9c2.3,0,3.7.8,4.3,2.4l-2.8.5a1.7,1.7,0,0,0-1.6-.8,2,2,0,0,0-.9.2q-.3.15-.3.3,0,.45.9.6a19.53,19.53,0,0,1,3.1.5,3.32,3.32,0,0,1,1.4,1,2.52,2.52,0,0,1,.6,1.7,2.71,2.71,0,0,1-1.3,2.4,5.84,5.84,0,0,1-3.5.9C162.1,31.58,160.6,30.68,160,28.78Z" transform="translate(-8.4 -12.6)"/><path class="cls-2" d="M169.2,28.78l2.9-.4c.2.7.8,1,2,1,.9,0,1.4-.2,1.4-.5s-.1-.3-.3-.4a4.91,4.91,0,0,0-1.3-.3c-1.9-.3-3.1-.7-3.5-1.2a2.86,2.86,0,0,1,.5-4.2,5,5,0,0,1,3.1-.9c2.3,0,3.7.8,4.3,2.4l-2.8.5a1.7,1.7,0,0,0-1.6-.8,2,2,0,0,0-.9.2q-.3.15-.3.3,0,.45.9.6a19.53,19.53,0,0,1,3.1.5,3.32,3.32,0,0,1,1.4,1,2.52,2.52,0,0,1,.6,1.7,2.71,2.71,0,0,1-1.3,2.4,5.84,5.84,0,0,1-3.5.9C171.4,31.58,169.8,30.68,169.2,28.78Z" transform="translate(-8.4 -12.6)"/><path class="cls-2" d="M183,18.58v2.9h-3.6v-2.9Zm0,3.5v9.3h-3.6v-9.3Z" transform="translate(-8.4 -12.6)"/><path class="cls-2" d="M188.8,31.58a5.14,5.14,0,0,1-3.7-1.4,4.94,4.94,0,0,1-1.4-3.4,5,5,0,0,1,1.4-3.5,4.75,4.75,0,0,1,3.7-1.4,5.14,5.14,0,0,1,3.7,1.4,4.76,4.76,0,0,1,1.4,3.4,5,5,0,0,1-1.4,3.5A4.62,4.62,0,0,1,188.8,31.58Zm.1-2.2a.92.92,0,0,0,1-.9,11,11,0,0,0,.2-1.8,4.39,4.39,0,0,0-.3-1.9,1,1,0,0,0-1.8,0,4.6,4.6,0,0,0-.3,2,4.54,4.54,0,0,0,.3,2.1A1.05,1.05,0,0,0,188.9,29.38Z" transform="translate(-8.4 -12.6)"/><path class="cls-2" d="M203.9,31.38h-3.6v-5.8a1.44,1.44,0,0,0-.2-.9.85.85,0,0,0-.6-.2c-.7,0-1,.5-1,1.4v5.6h-3.6v-9.3h3.4v1.3A2.75,2.75,0,0,1,201,22a3.06,3.06,0,0,1,1.7.4,2.4,2.4,0,0,1,1,1,5.15,5.15,0,0,1,.3,2.1v5.9Z" transform="translate(-8.4 -12.6)"/><path class="cls-2" d="M214.5,31.38H211a5.28,5.28,0,0,1-.1-1.3,3.44,3.44,0,0,1-3,1.5,3.74,3.74,0,0,1-2.5-.8,2.93,2.93,0,0,1-.8-1.9,2.71,2.71,0,0,1,1.3-2.4,9.76,9.76,0,0,1,4.7-1.1v-.2c0-.4-.1-.7-.3-.8a1.88,1.88,0,0,0-.8-.2c-.8,0-1.3.3-1.4,1l-3.3-.3c.5-1.9,2.1-2.9,4.8-2.9a14.92,14.92,0,0,1,2.1.2,3.48,3.48,0,0,1,1.5.7,2,2,0,0,1,.7,1,8.09,8.09,0,0,1,.2,2v3.7A8,8,0,0,0,214.5,31.38Zm-3.8-4.3c-1.6.2-2.3.7-2.3,1.5,0,.6.3.8.9.8a1.69,1.69,0,0,0,1-.3c.3-.2.4-.7.4-1.5v-.5Z" transform="translate(-8.4 -12.6)"/><path class="cls-2" d="M219.1,19v12.5h-3.6V19Z" transform="translate(-8.4 -12.6)"/><path class="cls-2" d="M67.5,43.68l3.5.2a5.1,5.1,0,0,1-1.7,3.5,5.89,5.89,0,0,1-7.7-.5,6.75,6.75,0,0,1-1.6-4.6,7,7,0,0,1,1.5-4.7,5.1,5.1,0,0,1,4.1-1.8,5.22,5.22,0,0,1,3.8,1.4,5.4,5.4,0,0,1,1.5,3.6l-3.6.2a3,3,0,0,0-.5-1.8,1.38,1.38,0,0,0-1.1-.6q-1.8,0-1.8,3.6a5.75,5.75,0,0,0,.5,2.8,1.46,1.46,0,0,0,1.3.7C66.8,45.68,67.4,45,67.5,43.68Z" transform="translate(-8.4 -12.6)"/><path class="cls-2" d="M76.8,48.58a5.14,5.14,0,0,1-3.7-1.4,4.94,4.94,0,0,1-1.4-3.4,5,5,0,0,1,1.4-3.5,5.59,5.59,0,0,1,7.4,0,4.76,4.76,0,0,1,1.4,3.4,5,5,0,0,1-1.4,3.5A4.62,4.62,0,0,1,76.8,48.58Zm.1-2.2a.92.92,0,0,0,1-.9,11,11,0,0,0,.2-1.8,4.39,4.39,0,0,0-.3-1.9,1,1,0,0,0-1.8,0,4.6,4.6,0,0,0-.3,2,4.54,4.54,0,0,0,.3,2.1A1.05,1.05,0,0,0,76.9,46.38Z" transform="translate(-8.4 -12.6)"/><path class="cls-2" d="M97.4,48.38H93.9v-5.8a1.29,1.29,0,0,0-.2-.8c-.1-.2-.3-.2-.6-.2-.7,0-1,.5-1,1.5v5.4H88.6v-5.8c0-.7-.3-1.1-.9-1.1s-.9.4-.9,1.1v5.8H83.3v-9.3h3.3v1.3a2.66,2.66,0,0,1,2.5-1.4,2.79,2.79,0,0,1,2.6,1.4,3.47,3.47,0,0,1,4.4-1,2.4,2.4,0,0,1,1,1,4.18,4.18,0,0,1,.3,1.8Z" transform="translate(-8.4 -12.6)"/><path class="cls-2" d="M113.4,48.38h-3.5v-5.8a1.29,1.29,0,0,0-.2-.8c-.1-.2-.3-.2-.6-.2-.7,0-1,.5-1,1.5v5.4h-3.5v-5.8c0-.7-.3-1.1-.9-1.1s-.9.4-.9,1.1v5.8H99.3v-9.3h3.3v1.3a2.66,2.66,0,0,1,2.5-1.4,2.79,2.79,0,0,1,2.6,1.4,3.47,3.47,0,0,1,4.4-1,2.4,2.4,0,0,1,1,1,4.18,4.18,0,0,1,.3,1.8Z" transform="translate(-8.4 -12.6)"/><path class="cls-2" d="M124.4,39.08v9.3H121v-1.5a2.94,2.94,0,0,1-2.9,1.7,2.44,2.44,0,0,1-2-.7,2.82,2.82,0,0,1-.7-2.1v-6.6H119V45c0,.4,0,.6.2.8a.85.85,0,0,0,.6.2,1.14,1.14,0,0,0,.8-.3,1.22,1.22,0,0,0,.3-.9v-5.6h3.5Z" transform="translate(-8.4 -12.6)"/><path class="cls-2" d="M135.4,48.38h-3.6v-5.8a1.44,1.44,0,0,0-.2-.9.85.85,0,0,0-.6-.2c-.7,0-1,.5-1,1.4v5.6h-3.6v-9.3h3.4v1.3a2.75,2.75,0,0,1,2.7-1.5,3.06,3.06,0,0,1,1.7.4,2.4,2.4,0,0,1,1,1,5.15,5.15,0,0,1,.3,2.1v5.9Z" transform="translate(-8.4 -12.6)"/><path class="cls-2" d="M140.9,35.58v2.9h-3.6v-2.9Zm0,3.5v9.3h-3.6v-9.3Z" transform="translate(-8.4 -12.6)"/><path class="cls-2" d="M148.6,39.08v2.4h-1.9v3.4c0,.5.1.7.3.8a1.09,1.09,0,0,0,.5.1,4.4,4.4,0,0,0,1-.2v2.7a14.92,14.92,0,0,1-2.1.2,3.73,3.73,0,0,1-2.5-.7,2.7,2.7,0,0,1-.8-2.3v-4h-1.4v-2.4h1.4l.1-3,3.5-.1v3.1Z" transform="translate(-8.4 -12.6)"/><path class="cls-2" d="M158.5,39.08l-3.6,10.1a4.07,4.07,0,0,1-1.2,1.8,3.84,3.84,0,0,1-2.4.6,15.26,15.26,0,0,1-1.8-.1v-2.6a6.15,6.15,0,0,0,1.3.1c1,0,1.6-.2,1.6-.7a1.42,1.42,0,0,0-.2-.6l-3.3-8.6h3.9l1.5,5,1.6-5Z" transform="translate(-8.4 -12.6)"/><path class="cls-2" d="M174.7,36v12.5h-3.8v-4.8H168v4.8h-3.8V36H168v4.6h2.9V36Z" transform="translate(-8.4 -12.6)"/><path class="cls-2" d="M182.9,45.08l3.4.2a3.89,3.89,0,0,1-1.5,2.3,5.4,5.4,0,0,1-3.3,1,5,5,0,0,1-3.7-1.4,4.6,4.6,0,0,1-1.4-3.4,4.83,4.83,0,0,1,1.4-3.5,4.62,4.62,0,0,1,3.7-1.4,4.9,4.9,0,0,1,3.6,1.4,5,5,0,0,1,1.4,3.7v.5h-6.2a2.27,2.27,0,0,0,.3,1.3,1.25,1.25,0,0,0,1.1.4A1.12,1.12,0,0,0,182.9,45.08Zm-.2-2.4a1.7,1.7,0,0,0-.4-1.3,1.4,1.4,0,0,0-.9-.3c-.9,0-1.3.5-1.3,1.6Z" transform="translate(-8.4 -12.6)"/><path class="cls-2" d="M197.1,48.38h-3.5a5.28,5.28,0,0,1-.1-1.3,3.44,3.44,0,0,1-3,1.5,3.74,3.74,0,0,1-2.5-.8,2.93,2.93,0,0,1-.8-1.9,2.71,2.71,0,0,1,1.3-2.4,9.76,9.76,0,0,1,4.7-1.1v-.2c0-.4-.1-.7-.3-.8a1.88,1.88,0,0,0-.8-.2c-.8,0-1.3.3-1.4,1l-3.3-.3c.5-1.9,2.1-2.9,4.8-2.9a14.92,14.92,0,0,1,2.1.2,3.48,3.48,0,0,1,1.5.7,2,2,0,0,1,.7,1,8.09,8.09,0,0,1,.2,2v3.7A8,8,0,0,0,197.1,48.38Zm-3.8-4.3c-1.6.2-2.3.7-2.3,1.5,0,.6.3.8.9.8a1.69,1.69,0,0,0,1-.3c.3-.2.4-.7.4-1.5v-.5Z" transform="translate(-8.4 -12.6)"/><path class="cls-2" d="M202.3,36v12.5h-3.6V36Z" transform="translate(-8.4 -12.6)"/><path class="cls-2" d="M209.9,39.08v2.4H208v3.4c0,.5.1.7.3.8a1.09,1.09,0,0,0,.5.1,4.4,4.4,0,0,0,1-.2v2.7a14.92,14.92,0,0,1-2.1.2,3.73,3.73,0,0,1-2.5-.7,2.7,2.7,0,0,1-.8-2.3v-4H203v-2.4h1.4l.1-3L208,36v3.1Z" transform="translate(-8.4 -12.6)"/><path class="cls-2" d="M220.3,48.38h-3.6v-5.6a2.68,2.68,0,0,0-.2-1.1.6.6,0,0,0-.6-.3,1.07,1.07,0,0,0-.6.2.55.55,0,0,0-.3.5v6.2h-3.6V36H215v4.3a3,3,0,0,1,2.6-1.3,3.19,3.19,0,0,1,1.4.3,2.18,2.18,0,0,1,.9.7,2,2,0,0,1,.4.8,6.22,6.22,0,0,1,.1,1.6v6Z" transform="translate(-8.4 -12.6)"/><path class="cls-2" d="M233.8,43.68l3.5.2a5.1,5.1,0,0,1-1.7,3.5,5.89,5.89,0,0,1-7.7-.5,6.75,6.75,0,0,1-1.6-4.6,7,7,0,0,1,1.5-4.7,5.1,5.1,0,0,1,4.1-1.8,5.22,5.22,0,0,1,3.8,1.4,5.4,5.4,0,0,1,1.5,3.6l-3.6.2a3,3,0,0,0-.5-1.8,1.38,1.38,0,0,0-1.1-.6q-1.8,0-1.8,3.6a5.75,5.75,0,0,0,.5,2.8,1.46,1.46,0,0,0,1.3.7C233.2,45.68,233.7,45,233.8,43.68Z" transform="translate(-8.4 -12.6)"/><path class="cls-2" d="M244.7,45.08l3.4.2a3.89,3.89,0,0,1-1.5,2.3,5.4,5.4,0,0,1-3.3,1,5,5,0,0,1-3.7-1.4,4.6,4.6,0,0,1-1.4-3.4,4.83,4.83,0,0,1,1.4-3.5,4.62,4.62,0,0,1,3.7-1.4,4.9,4.9,0,0,1,3.6,1.4,5,5,0,0,1,1.4,3.7v.5h-6.2a2.27,2.27,0,0,0,.3,1.3,1.25,1.25,0,0,0,1.1.4A1.12,1.12,0,0,0,244.7,45.08Zm-.2-2.4a1.7,1.7,0,0,0-.4-1.3,1.4,1.4,0,0,0-.9-.3c-.9,0-1.3.5-1.3,1.6Z" transform="translate(-8.4 -12.6)"/><path class="cls-2" d="M258.6,48.38H255v-5.8a1.44,1.44,0,0,0-.2-.9.85.85,0,0,0-.6-.2c-.7,0-1,.5-1,1.4v5.6h-3.6v-9.3H253v1.3a2.75,2.75,0,0,1,2.7-1.5,3.06,3.06,0,0,1,1.7.4,2.4,2.4,0,0,1,1,1,5.15,5.15,0,0,1,.3,2.1v5.9Z" transform="translate(-8.4 -12.6)"/><path class="cls-2" d="M266.3,39.08v2.4h-1.9v3.4c0,.5.1.7.3.8a1.09,1.09,0,0,0,.5.1,4.4,4.4,0,0,0,1-.2v2.7a14.92,14.92,0,0,1-2.1.2,3.73,3.73,0,0,1-2.5-.7,2.7,2.7,0,0,1-.8-2.3v-4h-1.4v-2.4h1.4l.1-3,3.5-.1v3.1Z" transform="translate(-8.4 -12.6)"/><path class="cls-2" d="M273.6,45.08l3.4.2a3.89,3.89,0,0,1-1.5,2.3,5.4,5.4,0,0,1-3.3,1,5,5,0,0,1-3.7-1.4,4.6,4.6,0,0,1-1.4-3.4,4.83,4.83,0,0,1,1.4-3.5,4.62,4.62,0,0,1,3.7-1.4,4.9,4.9,0,0,1,3.6,1.4,5,5,0,0,1,1.4,3.7v.5H271a2.27,2.27,0,0,0,.3,1.3,1.25,1.25,0,0,0,1.1.4A1.12,1.12,0,0,0,273.6,45.08Zm-.2-2.4a1.7,1.7,0,0,0-.4-1.3,1.4,1.4,0,0,0-.9-.3c-.9,0-1.3.5-1.3,1.6Z" transform="translate(-8.4 -12.6)"/><path class="cls-2" d="M281.74,48.38h-3.5v-9.3h3V41a2.36,2.36,0,0,1,2.4-2.1h.66l-.06,3.2a2.49,2.49,0,0,0-.8-.1c-1.2,0-1.8.7-1.8,2v4.4Z" transform="translate(-8.4 -12.6)"/><g class="cls-3"><path class="cls-5" d="M23.6,54.9c7,0,12.7-5.2,12.7-11.7S30.6,31.5,23.6,31.5,10.9,36.7,10.9,43.2s5.7,11.7,12.7,11.7Z" transform="translate(-8.4 -12.6)"/></g><g class="cls-3"><path class="cls-4" d="M40.6,54.4c7,0,12.7-5.2,12.7-11.7S47.6,31,40.6,31,27.9,36.2,27.9,42.7s5.7,11.7,12.7,11.7Z" transform="translate(-8.4 -12.6)"/></g><g class="cls-3"><path class="cls-5" d="M40.1,38.5c7,0,12.7-5.2,12.7-11.7S47.1,15.1,40.1,15.1,27.4,20.3,27.4,26.8c0,3.7,3,11.7,12.7,11.7Z" transform="translate(-8.4 -12.6)"/></g><path class="cls-4" d="M24.4,15.9c6.4.4,11.4,4.3,11.9,12.2" transform="translate(-8.4 -12.6)"/><path class="cls-6" d="M37.5,39.9c-.6-3.5-8.1-9.1-11.5-8.5" transform="translate(-8.4 -12.6)"/></svg>